<?xml version="1.0" encoding="UTF-8" standalone="no"?>
<svg
   xmlns:dc="http://purl.org/dc/elements/1.1/"
   xmlns:cc="http://creativecommons.org/ns#"
   xmlns:rdf="http://www.w3.org/1999/02/22-rdf-syntax-ns#"
   xmlns:svg="http://www.w3.org/2000/svg"
   xmlns="http://www.w3.org/2000/svg"
   xmlns:xlink="http://www.w3.org/1999/xlink"
   xmlns:sodipodi="http://sodipodi.sourceforge.net/DTD/sodipodi-0.dtd"
   xmlns:inkscape="http://www.inkscape.org/namespaces/inkscape"
   id="svg26"
   version="1.1"
   viewBox="0 0 140 140"
   height="140"
   width="140"
   sodipodi:docname="l0.svg"
   inkscape:version="0.92.3 (2405546, 2018-03-11)">
  <sodipodi:namedview
     pagecolor="#ffffff"
     bordercolor="#666666"
     borderopacity="1"
     objecttolerance="10"
     gridtolerance="10"
     guidetolerance="10"
     inkscape:pageopacity="0"
     inkscape:pageshadow="2"
     inkscape:window-width="1920"
     inkscape:window-height="1024"
     id="namedview21"
     showgrid="false"
     inkscape:zoom="5.7928571"
     inkscape:cx="30.123304"
     inkscape:cy="70"
     inkscape:window-x="0"
     inkscape:window-y="0"
     inkscape:window-maximized="1"
     inkscape:current-layer="svg26"
     inkscape:pagecheckerboard="true" />
  <metadata
     id="metadata32">
    <rdf:RDF>
      <cc:Work
         rdf:about="">
        <dc:format>image/svg+xml</dc:format>
        <dc:type
           rdf:resource="http://purl.org/dc/dcmitype/StillImage" />
        <dc:title></dc:title>
        <cc:license
           rdf:resource="http://creativecommons.org/licenses/by-sa/4.0/" />
      </cc:Work>
      <cc:License
         rdf:about="http://creativecommons.org/licenses/by-sa/4.0/">
        <cc:permits
           rdf:resource="http://creativecommons.org/ns#Reproduction" />
        <cc:permits
           rdf:resource="http://creativecommons.org/ns#Distribution" />
        <cc:requires
           rdf:resource="http://creativecommons.org/ns#Notice" />
        <cc:requires
           rdf:resource="http://creativecommons.org/ns#Attribution" />
        <cc:permits
           rdf:resource="http://creativecommons.org/ns#DerivativeWorks" />
        <cc:requires
           rdf:resource="http://creativecommons.org/ns#ShareAlike" />
      </cc:License>
    </rdf:RDF>
  </metadata>
  <defs
     id="defs30">
    <linearGradient
       id="Gradient_74"
       gradientUnits="userSpaceOnUse"
       x1="52.4375"
       y1="167.14999"
       x2="197.7625"
       y2="167.14999"
       spreadMethod="pad">
      <stop
         offset="0%"
         stop-color="#4EB9F3"
         id="stop381" />
      <stop
         offset="100%"
         stop-color="#22A7F0"
         id="stop383" />
    </linearGradient>
    <linearGradient
       id="Gradient_75"
       gradientUnits="userSpaceOnUse"
       x1="55.287498"
       y1="167.14999"
       x2="194.91251"
       y2="167.14999"
       spreadMethod="pad">
      <stop
         offset="0%"
         stop-color="#22A7F0"
         id="stop386" />
      <stop
         offset="100%"
         stop-color="#4EB9F3"
         id="stop388" />
    </linearGradient>
    <linearGradient
       id="Gradient_76"
       gradientUnits="userSpaceOnUse"
       x1="69.525002"
       y1="167.14999"
       x2="180.675"
       y2="167.14999"
       spreadMethod="pad">
      <stop
         offset="0%"
         stop-color="#F1F2F2"
         id="stop391" />
      <stop
         offset="100%"
         stop-color="#D1D3D4"
         id="stop393" />
    </linearGradient>
    <linearGradient
       id="Gradient_77"
       gradientUnits="userSpaceOnUse"
       x1="72.387497"
       y1="167.14999"
       x2="177.8125"
       y2="167.14999"
       spreadMethod="pad">
      <stop
         offset="0%"
         stop-color="#D1D3D4"
         id="stop396" />
      <stop
         offset="100%"
         stop-color="#F1F2F2"
         id="stop398" />
    </linearGradient>
    <linearGradient
       inkscape:collect="always"
       xlink:href="#Gradient_74"
       id="linearGradient158"
       gradientUnits="userSpaceOnUse"
       x1="52.4375"
       y1="167.14999"
       x2="197.7625"
       y2="167.14999"
       spreadMethod="pad" />
    <linearGradient
       inkscape:collect="always"
       xlink:href="#Gradient_75"
       id="linearGradient164"
       gradientUnits="userSpaceOnUse"
       x1="55.287498"
       y1="167.14999"
       x2="194.91251"
       y2="167.14999"
       spreadMethod="pad" />
    <linearGradient
       inkscape:collect="always"
       xlink:href="#Gradient_76"
       id="linearGradient174"
       gradientUnits="userSpaceOnUse"
       x1="69.525002"
       y1="167.14999"
       x2="180.675"
       y2="167.14999"
       spreadMethod="pad" />
    <linearGradient
       inkscape:collect="always"
       xlink:href="#Gradient_77"
       id="linearGradient180"
       gradientUnits="userSpaceOnUse"
       x1="72.387497"
       y1="167.14999"
       x2="177.8125"
       y2="167.14999"
       spreadMethod="pad" />
  </defs>
  <g
     transform="matrix(0.88057561,0,0,0.87898093,69.952306,70.00073)"
     id="g3712">
    <g
       transform="matrix(1.5233459,0,0,1.5223846,374.2,-515.65)"
       id="g3710">
      <g
         id="use3706">
        <path
           style="fill:#ffffff;fill-opacity:0.87843137;stroke:none"
           inkscape:connector-curvature="0"
           id="path76"
           d="m -296.85,377.05 q 0,13 13,13 h 76.4 q 13,0 13,-13 V 300.4 q 0,-13 -13,-13 h -76.4 q -13,0 -13,13 z" />
      </g>
      <path
         inkscape:connector-curvature="0"
         d="m -283.80644,287.38827 h 76.39984 q 12.99998,0 12.99998,12.99992 v 76.64955 q 0,12.99992 -12.99998,12.99992 h -76.39984 q -12.99997,0 -12.99997,-12.99992 v -76.64955 q 0,-12.99992 12.99997,-12.99992 z"
         id="use3708"
         style="fill:none;stroke:#ffffff;stroke-width:1.96996295;stroke-linecap:round;stroke-linejoin:round" />
    </g>
  </g>
  <g
     transform="matrix(0.65361023,0,0,0.65361023,70.008143,69.98366)"
     id="g3766">
    <g
       transform="translate(-125.1,-167.1)"
       id="g3748">
      <g
         id="use3746">
        <path
           style="fill:url(#linearGradient158);stroke:none"
           inkscape:connector-curvature="0"
           id="path154"
           d="M 141.4,90.1 Q 133.95,85 125.1,85 q -8.85,0 -16.3,5.1 -7.45,5.1 -11.05,13.65 L 55,204.95 q -5.05,11.9 -0.55,24.1 4.45,12.15 15.75,17.45 5.9,2.75 12.15,2.75 8.85,0 16.3,-5.1 7.45,-5.1 11.05,-13.65 l 6.35,-15 h 18.1 l 6.35,15 q 3.6,8.55 11.05,13.65 7.45,5.1 16.3,5.1 6.25,0 12.15,-2.75 11.3,-5.3 15.75,-17.45 4.45,-12.2 -0.55,-24.1 L 152.45,103.75 Q 148.85,95.2 141.4,90.1 Z" />
      </g>
    </g>
    <g
       transform="translate(-125.1,-167.1)"
       id="g3752">
      <g
         id="use3750">
        <path
           style="fill:url(#linearGradient164);stroke:none"
           inkscape:connector-curvature="0"
           id="path160"
           d="M 139.85,92.6 Q 133.1,88 125.1,88 q -8,0 -14.75,4.6 -6.75,4.6 -10,12.35 L 57.6,206.15 q -4.55,10.75 -0.5,21.8 4,11.05 14.25,15.8 5.3,2.5 11,2.5 8,0 14.75,-4.6 6.75,-4.6 10,-12.35 l 7.1,-16.8 H 136 l 7.1,16.8 q 3.25,7.75 10,12.35 6.75,4.6 14.75,4.6 5.7,0 11,-2.5 10.25,-4.75 14.25,-15.8 4.05,-11.05 -0.5,-21.8 l -42.75,-101.2 q -3.25,-7.75 -10,-12.35 z" />
      </g>
    </g>
    <g
       transform="translate(-116.3,-159.4)"
       id="g3756">
      <g
         id="use3754">
        <path
           style="fill:#000000;fill-opacity:0.2;stroke:none"
           inkscape:connector-curvature="0"
           id="path166"
           d="m 132.1,105.2 q -3.2,-2.2 -7,-2.2 -3.8,0 -6.95,2.2 -3.2,2.2 -4.75,5.85 l -42.75,101.2 q -2.2,5.1 -0.25,10.35 1.9,5.2 6.75,7.45 4.85,2.3 9.8,0.25 4.95,-2 7.1,-7.1 l 10.9,-25.7 h 40.3 l 10.9,25.7 q 1.55,3.75 4.8,5.9 3.15,2.15 6.9,2.15 2.65,0 5.2,-1.2 4.85,-2.25 6.8,-7.45 1.9,-5.25 -0.3,-10.35 L 136.8,111.05 q -1.55,-3.65 -4.7,-5.85 m -7,44.55 8.75,20.75 h -17.5 z" />
      </g>
    </g>
    <g
       transform="translate(-125.1,-167.1)"
       id="g3760">
      <g
         id="use3758">
        <path
           style="fill:url(#linearGradient174);stroke:none"
           inkscape:connector-curvature="0"
           id="path170"
           d="m 132.1,105.2 q -3.2,-2.2 -7,-2.2 -3.8,0 -6.95,2.2 -3.2,2.2 -4.75,5.85 l -42.75,101.2 q -2.2,5.1 -0.25,10.35 1.9,5.2 6.75,7.45 4.85,2.3 9.8,0.25 4.95,-2 7.1,-7.1 l 10.9,-25.7 h 40.3 l 10.9,25.7 q 1.55,3.75 4.8,5.9 3.15,2.15 6.9,2.15 2.65,0 5.2,-1.2 4.85,-2.25 6.8,-7.45 1.9,-5.25 -0.3,-10.35 L 136.8,111.05 q -1.55,-3.65 -4.7,-5.85 m -7,44.55 8.75,20.75 h -17.5 z" />
      </g>
    </g>
    <g
       transform="translate(-125.1,-167.1)"
       id="g3764">
      <g
         id="use3762">
        <path
           style="fill:url(#linearGradient180);stroke:none"
           inkscape:connector-curvature="0"
           id="path176"
           d="m 134.2,112.25 q -1.2,-2.85 -3.65,-4.55 -2.5,-1.7 -5.45,-1.7 -2.95,0 -5.45,1.7 -2.45,1.7 -3.65,4.55 l -42.75,101.2 q -1.7,4 -0.2,8.05 1.45,4.05 5.25,5.8 2.05,0.95 4.05,0.95 2.95,0 5.45,-1.7 2.45,-1.7 3.65,-4.55 l 11.65,-27.5 h 44 l 11.65,27.5 q 1.2,2.85 3.65,4.55 2.5,1.7 5.45,1.7 2,0 4.05,-0.95 3.8,-1.75 5.25,-5.8 1.5,-4.05 -0.2,-8.05 L 134.2,112.25 m -22.25,61.25 13.15,-31.1 13.15,31.1 z" />
      </g>
    </g>
  </g>
</svg>
