<?xml version="1.0" encoding="UTF-8" standalone="no"?>
<svg
   xmlns:dc="http://purl.org/dc/elements/1.1/"
   xmlns:cc="http://creativecommons.org/ns#"
   xmlns:rdf="http://www.w3.org/1999/02/22-rdf-syntax-ns#"
   xmlns:svg="http://www.w3.org/2000/svg"
   xmlns="http://www.w3.org/2000/svg"
   xmlns:xlink="http://www.w3.org/1999/xlink"
   xmlns:sodipodi="http://sodipodi.sourceforge.net/DTD/sodipodi-0.dtd"
   xmlns:inkscape="http://www.inkscape.org/namespaces/inkscape"
   id="svg26"
   version="1.1"
   viewBox="0 0 140 140"
   height="140"
   width="140"
   sodipodi:docname="l1.svg"
   inkscape:version="0.92.3 (2405546, 2018-03-11)">
  <sodipodi:namedview
     pagecolor="#ffffff"
     bordercolor="#666666"
     borderopacity="1"
     objecttolerance="10"
     gridtolerance="10"
     guidetolerance="10"
     inkscape:pageopacity="0"
     inkscape:pageshadow="2"
     inkscape:window-width="1920"
     inkscape:window-height="1024"
     id="namedview21"
     showgrid="false"
     inkscape:zoom="5.7928571"
     inkscape:cx="30.123304"
     inkscape:cy="70"
     inkscape:window-x="0"
     inkscape:window-y="0"
     inkscape:window-maximized="1"
     inkscape:current-layer="svg26"
     inkscape:pagecheckerboard="true" />
  <metadata
     id="metadata32">
    <rdf:RDF>
      <cc:Work
         rdf:about="">
        <dc:format>image/svg+xml</dc:format>
        <dc:type
           rdf:resource="http://purl.org/dc/dcmitype/StillImage" />
        <dc:title></dc:title>
        <cc:license
           rdf:resource="http://creativecommons.org/licenses/by-sa/4.0/" />
      </cc:Work>
      <cc:License
         rdf:about="http://creativecommons.org/licenses/by-sa/4.0/">
        <cc:permits
           rdf:resource="http://creativecommons.org/ns#Reproduction" />
        <cc:permits
           rdf:resource="http://creativecommons.org/ns#Distribution" />
        <cc:requires
           rdf:resource="http://creativecommons.org/ns#Notice" />
        <cc:requires
           rdf:resource="http://creativecommons.org/ns#Attribution" />
        <cc:permits
           rdf:resource="http://creativecommons.org/ns#DerivativeWorks" />
        <cc:requires
           rdf:resource="http://creativecommons.org/ns#ShareAlike" />
      </cc:License>
    </rdf:RDF>
  </metadata>
  <defs
     id="defs30">
    <linearGradient
       id="Gradient_74"
       gradientUnits="userSpaceOnUse"
       x1="52.4375"
       y1="167.14999"
       x2="197.7625"
       y2="167.14999"
       spreadMethod="pad">
      <stop
         offset="0%"
         stop-color="#4EB9F3"
         id="stop381" />
      <stop
         offset="100%"
         stop-color="#22A7F0"
         id="stop383" />
    </linearGradient>
    <linearGradient
       id="Gradient_75"
       gradientUnits="userSpaceOnUse"
       x1="55.287498"
       y1="167.14999"
       x2="194.91251"
       y2="167.14999"
       spreadMethod="pad">
      <stop
         offset="0%"
         stop-color="#22A7F0"
         id="stop386" />
      <stop
         offset="100%"
         stop-color="#4EB9F3"
         id="stop388" />
    </linearGradient>
    <linearGradient
       id="Gradient_76"
       gradientUnits="userSpaceOnUse"
       x1="69.525002"
       y1="167.14999"
       x2="180.675"
       y2="167.14999"
       spreadMethod="pad">
      <stop
         offset="0%"
         stop-color="#F1F2F2"
         id="stop391" />
      <stop
         offset="100%"
         stop-color="#D1D3D4"
         id="stop393" />
    </linearGradient>
    <linearGradient
       id="Gradient_77"
       gradientUnits="userSpaceOnUse"
       x1="72.387497"
       y1="167.14999"
       x2="177.8125"
       y2="167.14999"
       spreadMethod="pad">
      <stop
         offset="0%"
         stop-color="#D1D3D4"
         id="stop396" />
      <stop
         offset="100%"
         stop-color="#F1F2F2"
         id="stop398" />
    </linearGradient>
    <linearGradient
       id="Gradient_78"
       gradientUnits="userSpaceOnUse"
       x1="226.9125"
       y1="170.65"
       x2="346.5875"
       y2="170.65"
       spreadMethod="pad">
      <stop
         offset="0%"
         stop-color="#EB984E"
         id="stop401" />
      <stop
         offset="100%"
         stop-color="#E67E22"
         id="stop403" />
    </linearGradient>
    <linearGradient
       id="Gradient_79"
       gradientUnits="userSpaceOnUse"
       x1="229.7625"
       y1="170.65"
       x2="343.7375"
       y2="170.65"
       spreadMethod="pad">
      <stop
         offset="0%"
         stop-color="#E67E22"
         id="stop406" />
      <stop
         offset="100%"
         stop-color="#EB984E"
         id="stop408" />
    </linearGradient>
    <linearGradient
       id="Gradient_80"
       gradientUnits="userSpaceOnUse"
       x1="244.0125"
       y1="170.65"
       x2="329.4875"
       y2="170.65"
       spreadMethod="pad">
      <stop
         offset="0%"
         stop-color="#F1F2F2"
         id="stop411" />
      <stop
         offset="100%"
         stop-color="#D1D3D4"
         id="stop413" />
    </linearGradient>
    <linearGradient
       id="Gradient_81"
       gradientUnits="userSpaceOnUse"
       x1="246.8625"
       y1="170.65"
       x2="326.6375"
       y2="170.65"
       spreadMethod="pad">
      <stop
         offset="0%"
         stop-color="#D1D3D4"
         id="stop416" />
      <stop
         offset="100%"
         stop-color="#F1F2F2"
         id="stop418" />
    </linearGradient>
    <linearGradient
       inkscape:collect="always"
       xlink:href="#Gradient_78"
       id="linearGradient122"
       gradientUnits="userSpaceOnUse"
       x1="226.9125"
       y1="170.65"
       x2="346.5875"
       y2="170.65"
       spreadMethod="pad" />
    <linearGradient
       inkscape:collect="always"
       xlink:href="#Gradient_79"
       id="linearGradient128"
       gradientUnits="userSpaceOnUse"
       x1="229.7625"
       y1="170.65"
       x2="343.7375"
       y2="170.65"
       spreadMethod="pad" />
    <linearGradient
       inkscape:collect="always"
       xlink:href="#Gradient_80"
       id="linearGradient138"
       gradientUnits="userSpaceOnUse"
       x1="244.0125"
       y1="170.65"
       x2="329.4875"
       y2="170.65"
       spreadMethod="pad" />
    <linearGradient
       inkscape:collect="always"
       xlink:href="#Gradient_81"
       id="linearGradient144"
       gradientUnits="userSpaceOnUse"
       x1="246.8625"
       y1="170.65"
       x2="326.6375"
       y2="170.65"
       spreadMethod="pad" />
  </defs>
  <g
     transform="matrix(0.88057561,0,0,0.87898093,69.952306,70.00073)"
     id="g3712">
    <g
       transform="matrix(1.5233459,0,0,1.5223846,374.2,-515.65)"
       id="g3710">
      <g
         id="use3706">
        <path
           style="fill:#ffffff;fill-opacity:0.87843137;stroke:none"
           inkscape:connector-curvature="0"
           id="path76"
           d="m -296.85,377.05 q 0,13 13,13 h 76.4 q 13,0 13,-13 V 300.4 q 0,-13 -13,-13 h -76.4 q -13,0 -13,13 z" />
      </g>
      <path
         inkscape:connector-curvature="0"
         d="m -283.80644,287.38827 h 76.39984 q 12.99998,0 12.99998,12.99992 v 76.64955 q 0,12.99992 -12.99998,12.99992 h -76.39984 q -12.99997,0 -12.99997,-12.99992 v -76.64955 q 0,-12.99992 12.99997,-12.99992 z"
         id="use3708"
         style="fill:none;stroke:#ffffff;stroke-width:1.96996295;stroke-linecap:round;stroke-linejoin:round" />
    </g>
  </g>
  <g
     transform="matrix(0.65361023,0,0,0.65361023,70,70)"
     id="g3348">
    <g
       transform="translate(-286.75,-170.65)"
       id="g3328">
      <g
         id="use3326">
        <path
           style="fill:url(#linearGradient122);stroke:none"
           inkscape:connector-curvature="0"
           id="path118"
           d="m 338.05,145.35 q 0,-11.4 -4.05,-21.75 -4.1,-10.4 -11.75,-18.45 -7.65,-8 -17.5,-12.3 -9.85,-4.3 -20.65,-4.3 h -27.25 q -12.4,0 -21.15,9.25 -8.8,9.2 -8.8,22.25 v 101.2 q 0,13 8.8,22.25 8.8,9.25 21.15,9.25 0.7,0 2.1,-0.1 l 33.7,0.1 q 10.8,0 20.65,-4.3 9.85,-4.3 17.5,-12.35 7.65,-8.05 11.75,-18.4 4.05,-10.4 4.05,-21.75 0,-9.35 -2.75,-18.05 -2.75,-8.7 -8.1,-16.15 2.3,-7.85 2.3,-16.4 z" />
      </g>
    </g>
    <g
       transform="translate(-286.75,-170.65)"
       id="g3332">
      <g
         id="use3330">
        <path
           style="fill:url(#linearGradient128);stroke:none"
           inkscape:connector-curvature="0"
           id="path124"
           d="m 335.2,145.35 q 0,-10.8 -3.85,-20.6 -3.85,-9.85 -11.1,-17.45 -7.2,-7.65 -16.55,-11.7 -9.35,-4.05 -19.6,-4.05 h -27.25 q -11.2,0 -19.15,8.35 -7.95,8.35 -7.95,20.15 v 101.2 q 0,11.8 7.95,20.15 7.95,8.35 19.15,8.35 0.7,0 2.1,-0.1 l 33.7,0.1 q 10.25,0 19.6,-4.05 9.3,-4.1 16.55,-11.75 7.25,-7.6 11.1,-17.4 3.85,-9.85 3.85,-20.6 0,-9.25 -2.85,-17.85 -2.9,-8.65 -8.35,-15.75 2.65,-8.25 2.65,-17 z" />
      </g>
    </g>
    <g
       transform="translate(0.9,-30.2)"
       id="g3334" />
    <g
       transform="translate(-277.3,-164.4)"
       id="g3338">
      <g
         id="use3336">
        <path
           style="fill:#000000;fill-opacity:0.2;stroke:none"
           inkscape:connector-curvature="0"
           id="path130"
           d="m 329.5,195.95 q 0,-7.8 -2.75,-14.85 -2.8,-7.1 -8.05,-12.6 -1.25,-1.3 -3.15,-2.95 5.4,-9.25 5.4,-20.2 0,-7.8 -2.75,-14.85 -2.8,-7.1 -8.05,-12.6 -5.2,-5.5 -11.95,-8.45 -6.7,-2.9 -14.1,-2.9 h -27.25 q -5.35,0 -9.1,3.95 -3.75,3.95 -3.75,9.55 v 101.2 q 0,5.6 3.75,9.55 3.8,3.95 9.1,3.95 1,0 2.1,-0.25 1.15,0.25 2.15,0.25 h 31.55 q 7.4,0 14.1,-2.95 6.75,-2.95 11.95,-8.45 5.25,-5.45 8.05,-12.55 2.75,-7.05 2.75,-14.85 m -45.4,-62.4 q 4.7,0 7.9,3.45 3.3,3.4 3.3,8.35 0,4.85 -3.25,8.35 -3.35,3.45 -7.95,3.45 h -14.45 v -23.6 h 14.45 m 16.45,54.05 q 3.3,3.45 3.3,8.35 0,4.9 -3.25,8.3 -3.35,3.5 -7.95,3.5 h -23 v -23.6 h 23 q 4.6,0 7.9,3.45 z" />
      </g>
    </g>
    <g
       transform="translate(-286.75,-170.65)"
       id="g3342">
      <g
         id="use3340">
        <path
           style="fill:url(#linearGradient138);stroke:none"
           inkscape:connector-curvature="0"
           id="path134"
           d="m 329.5,195.95 q 0,-7.8 -2.75,-14.85 -2.8,-7.1 -8.05,-12.6 -1.25,-1.3 -3.15,-2.95 5.4,-9.25 5.4,-20.2 0,-7.8 -2.75,-14.85 -2.8,-7.1 -8.05,-12.6 -5.2,-5.5 -11.95,-8.45 -6.7,-2.9 -14.1,-2.9 h -27.25 q -5.35,0 -9.1,3.95 -3.75,3.95 -3.75,9.55 v 101.2 q 0,5.6 3.75,9.55 3.8,3.95 9.1,3.95 1,0 2.1,-0.25 1.15,0.25 2.15,0.25 h 31.55 q 7.4,0 14.1,-2.95 6.75,-2.95 11.95,-8.45 5.25,-5.45 8.05,-12.55 2.75,-7.05 2.75,-14.85 m -45.4,-62.4 q 4.7,0 7.9,3.45 3.3,3.4 3.3,8.35 0,4.85 -3.25,8.35 -3.35,3.45 -7.95,3.45 h -14.45 v -23.6 h 14.45 m 16.45,54.05 q 3.3,3.45 3.3,8.35 0,4.9 -3.25,8.3 -3.35,3.5 -7.95,3.5 h -23 v -23.6 h 23 q 4.6,0 7.9,3.45 z" />
      </g>
    </g>
    <g
       transform="translate(-286.75,-170.65)"
       id="g3346">
      <g
         id="use3344">
        <path
           style="fill:url(#linearGradient144);stroke:none"
           inkscape:connector-curvature="0"
           id="path140"
           d="m 326.65,195.95 q 0,-7.15 -2.55,-13.7 -2.6,-6.55 -7.4,-11.6 -1.35,-1.4 -2.95,-2.75 l -1.95,-1.65 1.3,-2.25 q 5,-8.55 5,-18.65 0,-7.2 -2.55,-13.7 -2.6,-6.55 -7.4,-11.65 -4.85,-5.05 -11.05,-7.75 -6.2,-2.7 -13,-2.7 h -27.25 q -4.15,0 -7.05,3.1 -2.95,3.05 -2.95,7.4 v 101.2 q 0,4.3 2.95,7.4 2.95,3.1 7.05,3.1 0.45,0 1.65,-0.2 l 0.45,-0.05 0.5,0.05 q 1.2,0.2 1.65,0.2 h 31.55 q 6.8,0 13,-2.7 6.2,-2.7 11.05,-7.8 4.8,-5.1 7.4,-11.6 2.55,-6.55 2.55,-13.7 m -42.55,-65.4 q 5.9,0 9.95,4.3 4.1,4.35 4.1,10.5 0,6.1 -4.1,10.45 -4.1,4.35 -9.95,4.35 h -17.3 v -29.6 h 17.3 m 8.55,50.6 q 5.85,0 9.95,4.35 4.1,4.35 4.1,10.45 0,6.1 -4.1,10.45 -4.1,4.35 -9.95,4.35 H 266.8 v -29.6 z" />
      </g>
    </g>
  </g>
</svg>
