<?xml version="1.0" encoding="UTF-8" standalone="no"?>
<svg
   xmlns:dc="http://purl.org/dc/elements/1.1/"
   xmlns:cc="http://creativecommons.org/ns#"
   xmlns:rdf="http://www.w3.org/1999/02/22-rdf-syntax-ns#"
   xmlns:svg="http://www.w3.org/2000/svg"
   xmlns="http://www.w3.org/2000/svg"
   xmlns:xlink="http://www.w3.org/1999/xlink"
   xmlns:sodipodi="http://sodipodi.sourceforge.net/DTD/sodipodi-0.dtd"
   xmlns:inkscape="http://www.inkscape.org/namespaces/inkscape"
   id="svg26"
   version="1.1"
   viewBox="0 0 140 140"
   height="140"
   width="140"
   sodipodi:docname="l13.svg"
   inkscape:version="0.92.3 (2405546, 2018-03-11)">
  <sodipodi:namedview
     pagecolor="#ffffff"
     bordercolor="#666666"
     borderopacity="1"
     objecttolerance="10"
     gridtolerance="10"
     guidetolerance="10"
     inkscape:pageopacity="0"
     inkscape:pageshadow="2"
     inkscape:window-width="1920"
     inkscape:window-height="1024"
     id="namedview21"
     showgrid="false"
     inkscape:zoom="5.7928571"
     inkscape:cx="30.123304"
     inkscape:cy="70"
     inkscape:window-x="0"
     inkscape:window-y="0"
     inkscape:window-maximized="1"
     inkscape:current-layer="svg26"
     inkscape:pagecheckerboard="true" />
  <metadata
     id="metadata32">
    <rdf:RDF>
      <cc:Work
         rdf:about="">
        <dc:format>image/svg+xml</dc:format>
        <dc:type
           rdf:resource="http://purl.org/dc/dcmitype/StillImage" />
        <dc:title></dc:title>
        <cc:license
           rdf:resource="http://creativecommons.org/licenses/by-sa/4.0/" />
      </cc:Work>
      <cc:License
         rdf:about="http://creativecommons.org/licenses/by-sa/4.0/">
        <cc:permits
           rdf:resource="http://creativecommons.org/ns#Reproduction" />
        <cc:permits
           rdf:resource="http://creativecommons.org/ns#Distribution" />
        <cc:requires
           rdf:resource="http://creativecommons.org/ns#Notice" />
        <cc:requires
           rdf:resource="http://creativecommons.org/ns#Attribution" />
        <cc:permits
           rdf:resource="http://creativecommons.org/ns#DerivativeWorks" />
        <cc:requires
           rdf:resource="http://creativecommons.org/ns#ShareAlike" />
      </cc:License>
    </rdf:RDF>
  </metadata>
  <defs
     id="defs30">
    <linearGradient
       id="Gradient_74"
       gradientUnits="userSpaceOnUse"
       x1="52.4375"
       y1="167.14999"
       x2="197.7625"
       y2="167.14999"
       spreadMethod="pad">
      <stop
         offset="0%"
         stop-color="#4EB9F3"
         id="stop381" />
      <stop
         offset="100%"
         stop-color="#22A7F0"
         id="stop383" />
    </linearGradient>
    <linearGradient
       id="Gradient_75"
       gradientUnits="userSpaceOnUse"
       x1="55.287498"
       y1="167.14999"
       x2="194.91251"
       y2="167.14999"
       spreadMethod="pad">
      <stop
         offset="0%"
         stop-color="#22A7F0"
         id="stop386" />
      <stop
         offset="100%"
         stop-color="#4EB9F3"
         id="stop388" />
    </linearGradient>
    <linearGradient
       id="Gradient_76"
       gradientUnits="userSpaceOnUse"
       x1="69.525002"
       y1="167.14999"
       x2="180.675"
       y2="167.14999"
       spreadMethod="pad">
      <stop
         offset="0%"
         stop-color="#F1F2F2"
         id="stop391" />
      <stop
         offset="100%"
         stop-color="#D1D3D4"
         id="stop393" />
    </linearGradient>
    <linearGradient
       id="Gradient_77"
       gradientUnits="userSpaceOnUse"
       x1="72.387497"
       y1="167.14999"
       x2="177.8125"
       y2="167.14999"
       spreadMethod="pad">
      <stop
         offset="0%"
         stop-color="#D1D3D4"
         id="stop396" />
      <stop
         offset="100%"
         stop-color="#F1F2F2"
         id="stop398" />
    </linearGradient>
    <linearGradient
       id="Gradient_78"
       gradientUnits="userSpaceOnUse"
       x1="226.9125"
       y1="170.65"
       x2="346.5875"
       y2="170.65"
       spreadMethod="pad">
      <stop
         offset="0%"
         stop-color="#EB984E"
         id="stop401" />
      <stop
         offset="100%"
         stop-color="#E67E22"
         id="stop403" />
    </linearGradient>
    <linearGradient
       id="Gradient_79"
       gradientUnits="userSpaceOnUse"
       x1="229.7625"
       y1="170.65"
       x2="343.7375"
       y2="170.65"
       spreadMethod="pad">
      <stop
         offset="0%"
         stop-color="#E67E22"
         id="stop406" />
      <stop
         offset="100%"
         stop-color="#EB984E"
         id="stop408" />
    </linearGradient>
    <linearGradient
       id="Gradient_80"
       gradientUnits="userSpaceOnUse"
       x1="244.0125"
       y1="170.65"
       x2="329.4875"
       y2="170.65"
       spreadMethod="pad">
      <stop
         offset="0%"
         stop-color="#F1F2F2"
         id="stop411" />
      <stop
         offset="100%"
         stop-color="#D1D3D4"
         id="stop413" />
    </linearGradient>
    <linearGradient
       id="Gradient_81"
       gradientUnits="userSpaceOnUse"
       x1="246.8625"
       y1="170.65"
       x2="326.6375"
       y2="170.65"
       spreadMethod="pad">
      <stop
         offset="0%"
         stop-color="#D1D3D4"
         id="stop416" />
      <stop
         offset="100%"
         stop-color="#F1F2F2"
         id="stop418" />
    </linearGradient>
    <linearGradient
       id="Gradient_82"
       gradientUnits="userSpaceOnUse"
       x1="389.96250000000003"
       y1="172.9"
       x2="503.2375"
       y2="172.9"
       spreadMethod="pad">
      <stop
         offset="0%"
         stop-color="#AF7AC5"
         id="stop421" />
      <stop
         offset="100%"
         stop-color="#9B59B6"
         id="stop423" />
    </linearGradient>
    <linearGradient
       id="Gradient_83"
       gradientUnits="userSpaceOnUse"
       x1="392.8125"
       y1="172.9"
       x2="500.38750000000005"
       y2="172.9"
       spreadMethod="pad">
      <stop
         offset="0%"
         stop-color="#9B59B6"
         id="stop426" />
      <stop
         offset="100%"
         stop-color="#AF7AC5"
         id="stop428" />
    </linearGradient>
    <linearGradient
       id="Gradient_84"
       gradientUnits="userSpaceOnUse"
       x1="407.0625"
       y1="172.9"
       x2="486.13750000000005"
       y2="172.9"
       spreadMethod="pad">
      <stop
         offset="0%"
         stop-color="#F1F2F2"
         id="stop431" />
      <stop
         offset="100%"
         stop-color="#D1D3D4"
         id="stop433" />
    </linearGradient>
    <linearGradient
       id="Gradient_85"
       gradientUnits="userSpaceOnUse"
       x1="409.9125"
       y1="172.9"
       x2="483.2875"
       y2="172.9"
       spreadMethod="pad">
      <stop
         offset="0%"
         stop-color="#D1D3D4"
         id="stop436" />
      <stop
         offset="100%"
         stop-color="#F1F2F2"
         id="stop438" />
    </linearGradient>
    <linearGradient
       id="Gradient_86"
       gradientUnits="userSpaceOnUse"
       x1="525.7125"
       y1="176.25"
       x2="671.0875"
       y2="176.25"
       spreadMethod="pad">
      <stop
         offset="0%"
         stop-color="#FFC241"
         id="stop441" />
      <stop
         offset="100%"
         stop-color="#FFB312"
         id="stop443" />
    </linearGradient>
    <linearGradient
       id="Gradient_87"
       gradientUnits="userSpaceOnUse"
       x1="528.5625"
       y1="176.25"
       x2="668.2375"
       y2="176.25"
       spreadMethod="pad">
      <stop
         offset="0%"
         stop-color="#FFB312"
         id="stop446" />
      <stop
         offset="100%"
         stop-color="#FFC241"
         id="stop448" />
    </linearGradient>
    <linearGradient
       id="Gradient_88"
       gradientUnits="userSpaceOnUse"
       x1="541.4749999999999"
       y1="176.55"
       x2="652.625"
       y2="176.55"
       spreadMethod="pad">
      <stop
         offset="0%"
         stop-color="#F1F2F2"
         id="stop451" />
      <stop
         offset="100%"
         stop-color="#D1D3D4"
         id="stop453" />
    </linearGradient>
    <linearGradient
       id="Gradient_89"
       gradientUnits="userSpaceOnUse"
       x1="544.1625"
       y1="176.5"
       x2="649.6374999999999"
       y2="176.5"
       spreadMethod="pad">
      <stop
         offset="0%"
         stop-color="#D1D3D4"
         id="stop456" />
      <stop
         offset="100%"
         stop-color="#F1F2F2"
         id="stop458" />
    </linearGradient>
    <linearGradient
       id="Gradient_90"
       gradientUnits="userSpaceOnUse"
       x1="705.525"
       y1="170.65"
       x2="829.475"
       y2="170.65"
       spreadMethod="pad">
      <stop
         offset="0%"
         stop-color="#7B9BD3"
         id="stop461" />
      <stop
         offset="61.96078431372549%"
         stop-color="#6389CB"
         id="stop463" />
      <stop
         offset="100%"
         stop-color="#5A82C8"
         id="stop465" />
    </linearGradient>
    <linearGradient
       id="Gradient_91"
       gradientUnits="userSpaceOnUse"
       x1="708.375"
       y1="170.65"
       x2="826.625"
       y2="170.65"
       spreadMethod="pad">
      <stop
         offset="0%"
         stop-color="#5A82C8"
         id="stop468" />
      <stop
         offset="38.03921568627451%"
         stop-color="#6389CB"
         id="stop470" />
      <stop
         offset="100%"
         stop-color="#7B9BD3"
         id="stop472" />
    </linearGradient>
    <linearGradient
       id="Gradient_92"
       gradientUnits="userSpaceOnUse"
       x1="722.625"
       y1="170.65"
       x2="812.375"
       y2="170.65"
       spreadMethod="pad">
      <stop
         offset="0%"
         stop-color="#F1F2F2"
         id="stop475" />
      <stop
         offset="100%"
         stop-color="#D1D3D4"
         id="stop477" />
    </linearGradient>
    <linearGradient
       id="Gradient_93"
       gradientUnits="userSpaceOnUse"
       x1="725.475"
       y1="170.65"
       x2="809.525"
       y2="170.65"
       spreadMethod="pad">
      <stop
         offset="0%"
         stop-color="#D1D3D4"
         id="stop480" />
      <stop
         offset="100%"
         stop-color="#F1F2F2"
         id="stop482" />
    </linearGradient>
    <linearGradient
       id="Gradient_94"
       gradientUnits="userSpaceOnUse"
       x1="855.925"
       y1="169.2"
       x2="990.575"
       y2="169.2"
       spreadMethod="pad">
      <stop
         offset="0%"
         stop-color="#48C9B0"
         id="stop485" />
      <stop
         offset="100%"
         stop-color="#1ABC9C"
         id="stop487" />
    </linearGradient>
    <linearGradient
       id="Gradient_95"
       gradientUnits="userSpaceOnUse"
       x1="858.775"
       y1="169.2"
       x2="987.725"
       y2="169.2"
       spreadMethod="pad">
      <stop
         offset="0%"
         stop-color="#1ABC9C"
         id="stop490" />
      <stop
         offset="100%"
         stop-color="#48C9B0"
         id="stop492" />
    </linearGradient>
    <linearGradient
       id="Gradient_96"
       gradientUnits="userSpaceOnUse"
       x1="873.025"
       y1="169.2"
       x2="973.475"
       y2="169.2"
       spreadMethod="pad">
      <stop
         offset="0%"
         stop-color="#F1F2F2"
         id="stop495" />
      <stop
         offset="100%"
         stop-color="#D1D3D4"
         id="stop497" />
    </linearGradient>
    <linearGradient
       id="Gradient_97"
       gradientUnits="userSpaceOnUse"
       x1="875.875"
       y1="169.2"
       x2="970.625"
       y2="169.2"
       spreadMethod="pad">
      <stop
         offset="0%"
         stop-color="#D1D3D4"
         id="stop500" />
      <stop
         offset="100%"
         stop-color="#F1F2F2"
         id="stop502" />
    </linearGradient>
    <linearGradient
       id="Gradient_98"
       gradientUnits="userSpaceOnUse"
       x1="1013.7749999999999"
       y1="172.65"
       x2="1148.425"
       y2="172.65"
       spreadMethod="pad">
      <stop
         offset="0%"
         stop-color="#F379A4"
         id="stop505" />
      <stop
         offset="100%"
         stop-color="#F0588D"
         id="stop507" />
    </linearGradient>
    <linearGradient
       id="Gradient_99"
       gradientUnits="userSpaceOnUse"
       x1="1016.6249999999999"
       y1="172.65"
       x2="1145.5749999999998"
       y2="172.65"
       spreadMethod="pad">
      <stop
         offset="0%"
         stop-color="#F0588D"
         id="stop510" />
      <stop
         offset="100%"
         stop-color="#F379A4"
         id="stop512" />
    </linearGradient>
    <linearGradient
       id="Gradient_100"
       gradientUnits="userSpaceOnUse"
       x1="1030.875"
       y1="172.65"
       x2="1131.3249999999998"
       y2="172.65"
       spreadMethod="pad">
      <stop
         offset="0%"
         stop-color="#F1F2F2"
         id="stop515" />
      <stop
         offset="100%"
         stop-color="#D1D3D4"
         id="stop517" />
    </linearGradient>
    <linearGradient
       id="Gradient_101"
       gradientUnits="userSpaceOnUse"
       x1="1033.725"
       y1="172.65"
       x2="1128.475"
       y2="172.65"
       spreadMethod="pad">
      <stop
         offset="0%"
         stop-color="#D1D3D4"
         id="stop520" />
      <stop
         offset="100%"
         stop-color="#F1F2F2"
         id="stop522" />
    </linearGradient>
    <linearGradient
       id="Gradient_8"
       gradientUnits="userSpaceOnUse"
       x1="55.312500000000014"
       y1="414.3"
       x2="207.28750000000002"
       y2="414.3"
       spreadMethod="pad">
      <stop
         offset="0%"
         stop-color="#AF7AC5"
         id="stop47" />
      <stop
         offset="100%"
         stop-color="#9B59B6"
         id="stop49" />
    </linearGradient>
    <linearGradient
       id="Gradient_9"
       gradientUnits="userSpaceOnUse"
       x1="58.16250000000001"
       y1="414.3"
       x2="204.4375"
       y2="414.3"
       spreadMethod="pad">
      <stop
         offset="0%"
         stop-color="#9B59B6"
         id="stop52" />
      <stop
         offset="100%"
         stop-color="#AF7AC5"
         id="stop54" />
    </linearGradient>
    <linearGradient
       id="Gradient_10"
       gradientUnits="userSpaceOnUse"
       x1="71.775"
       y1="414.65"
       x2="189.225"
       y2="414.65"
       spreadMethod="pad">
      <stop
         offset="0%"
         stop-color="#F1F2F2"
         id="stop57" />
      <stop
         offset="100%"
         stop-color="#D1D3D4"
         id="stop59" />
    </linearGradient>
    <linearGradient
       id="Gradient_11"
       gradientUnits="userSpaceOnUse"
       x1="74.625"
       y1="414.65"
       x2="186.375"
       y2="414.65"
       spreadMethod="pad">
      <stop
         offset="0%"
         stop-color="#D1D3D4"
         id="stop62" />
      <stop
         offset="100%"
         stop-color="#F1F2F2"
         id="stop64" />
    </linearGradient>
    <linearGradient
       id="Gradient_12"
       gradientUnits="userSpaceOnUse"
       x1="132.15"
       y1="402.325"
       x2="132.15"
       y2="427.97499999999997"
       spreadMethod="pad">
      <stop
         offset="0%"
         stop-color="#F1F2F2"
         id="stop67" />
      <stop
         offset="100%"
         stop-color="#D1D3D4"
         id="stop69" />
    </linearGradient>
    <linearGradient
       id="Gradient_13"
       gradientUnits="userSpaceOnUse"
       x1="132.15"
       y1="405.17499999999995"
       x2="132.15"
       y2="425.125"
       spreadMethod="pad">
      <stop
         offset="0%"
         stop-color="#D1D3D4"
         id="stop72" />
      <stop
         offset="100%"
         stop-color="#F1F2F2"
         id="stop74" />
    </linearGradient>
    <linearGradient
       id="Gradient_14"
       gradientUnits="userSpaceOnUse"
       x1="227.5875"
       y1="416.6"
       x2="287.4125"
       y2="416.6"
       spreadMethod="pad">
      <stop
         offset="0%"
         stop-color="#48C9B0"
         id="stop77" />
      <stop
         offset="100%"
         stop-color="#1ABC9C"
         id="stop79" />
    </linearGradient>
    <linearGradient
       id="Gradient_15"
       gradientUnits="userSpaceOnUse"
       x1="230.425"
       y1="416.6"
       x2="284.575"
       y2="416.6"
       spreadMethod="pad">
      <stop
         offset="0%"
         stop-color="#1ABC9C"
         id="stop82" />
      <stop
         offset="100%"
         stop-color="#48C9B0"
         id="stop84" />
    </linearGradient>
    <linearGradient
       id="Gradient_16"
       gradientUnits="userSpaceOnUse"
       x1="244.675"
       y1="416.6"
       x2="270.325"
       y2="416.6"
       spreadMethod="pad">
      <stop
         offset="0%"
         stop-color="#F1F2F2"
         id="stop87" />
      <stop
         offset="100%"
         stop-color="#D1D3D4"
         id="stop89" />
    </linearGradient>
    <linearGradient
       id="Gradient_17"
       gradientUnits="userSpaceOnUse"
       x1="247.525"
       y1="416.6"
       x2="267.475"
       y2="416.6"
       spreadMethod="pad">
      <stop
         offset="0%"
         stop-color="#D1D3D4"
         id="stop92" />
      <stop
         offset="100%"
         stop-color="#F1F2F2"
         id="stop94" />
    </linearGradient>
    <linearGradient
       id="Gradient_18"
       gradientUnits="userSpaceOnUse"
       x1="328.425"
       y1="410.6"
       x2="463.075"
       y2="410.6"
       spreadMethod="pad">
      <stop
         offset="0%"
         stop-color="#EB984E"
         id="stop97" />
      <stop
         offset="100%"
         stop-color="#E67E22"
         id="stop99" />
    </linearGradient>
    <linearGradient
       id="Gradient_19"
       gradientUnits="userSpaceOnUse"
       x1="331.275"
       y1="410.6"
       x2="460.225"
       y2="410.6"
       spreadMethod="pad">
      <stop
         offset="0%"
         stop-color="#E67E22"
         id="stop102" />
      <stop
         offset="100%"
         stop-color="#EB984E"
         id="stop104" />
    </linearGradient>
    <linearGradient
       id="Gradient_20"
       gradientUnits="userSpaceOnUse"
       x1="345.525"
       y1="410.6"
       x2="445.975"
       y2="410.6"
       spreadMethod="pad">
      <stop
         offset="0%"
         stop-color="#F1F2F2"
         id="stop107" />
      <stop
         offset="100%"
         stop-color="#D1D3D4"
         id="stop109" />
    </linearGradient>
    <linearGradient
       id="Gradient_21"
       gradientUnits="userSpaceOnUse"
       x1="348.375"
       y1="410.6"
       x2="443.125"
       y2="410.6"
       spreadMethod="pad">
      <stop
         offset="0%"
         stop-color="#D1D3D4"
         id="stop112" />
      <stop
         offset="100%"
         stop-color="#F1F2F2"
         id="stop114" />
    </linearGradient>
    <linearGradient
       id="Gradient_22"
       gradientUnits="userSpaceOnUse"
       x1="487.6625"
       y1="411.6"
       x2="633.0375"
       y2="411.6"
       spreadMethod="pad">
      <stop
         offset="0%"
         stop-color="#48C9B0"
         id="stop117" />
      <stop
         offset="100%"
         stop-color="#1ABC9C"
         id="stop119" />
    </linearGradient>
    <linearGradient
       id="Gradient_23"
       gradientUnits="userSpaceOnUse"
       x1="490.51250000000005"
       y1="411.6"
       x2="630.1875"
       y2="411.6"
       spreadMethod="pad">
      <stop
         offset="0%"
         stop-color="#1ABC9C"
         id="stop122" />
      <stop
         offset="100%"
         stop-color="#48C9B0"
         id="stop124" />
    </linearGradient>
    <linearGradient
       id="Gradient_24"
       gradientUnits="userSpaceOnUse"
       x1="504.77500000000003"
       y1="411.6"
       x2="615.9250000000001"
       y2="411.6"
       spreadMethod="pad">
      <stop
         offset="0%"
         stop-color="#F1F2F2"
         id="stop127" />
      <stop
         offset="100%"
         stop-color="#D1D3D4"
         id="stop129" />
    </linearGradient>
    <linearGradient
       id="Gradient_25"
       gradientUnits="userSpaceOnUse"
       x1="507.625"
       y1="411.6"
       x2="613.075"
       y2="411.6"
       spreadMethod="pad">
      <stop
         offset="0%"
         stop-color="#D1D3D4"
         id="stop132" />
      <stop
         offset="100%"
         stop-color="#F1F2F2"
         id="stop134" />
    </linearGradient>
    <linearGradient
       id="Gradient_26"
       gradientUnits="userSpaceOnUse"
       x1="648.0875000000001"
       y1="408.6"
       x2="814.8125"
       y2="408.6"
       spreadMethod="pad">
      <stop
         offset="0%"
         stop-color="#FFC241"
         id="stop137" />
      <stop
         offset="100%"
         stop-color="#FFB312"
         id="stop139" />
    </linearGradient>
    <linearGradient
       id="Gradient_27"
       gradientUnits="userSpaceOnUse"
       x1="650.9375"
       y1="408.6"
       x2="811.9625000000001"
       y2="408.6"
       spreadMethod="pad">
      <stop
         offset="0%"
         stop-color="#FFB312"
         id="stop142" />
      <stop
         offset="100%"
         stop-color="#FFC241"
         id="stop144" />
    </linearGradient>
    <linearGradient
       id="Gradient_28"
       gradientUnits="userSpaceOnUse"
       x1="665.1875"
       y1="408.6"
       x2="797.7125000000001"
       y2="408.6"
       spreadMethod="pad">
      <stop
         offset="0%"
         stop-color="#F1F2F2"
         id="stop147" />
      <stop
         offset="100%"
         stop-color="#D1D3D4"
         id="stop149" />
    </linearGradient>
    <linearGradient
       id="Gradient_29"
       gradientUnits="userSpaceOnUse"
       x1="668.0375"
       y1="408.6"
       x2="794.8625000000001"
       y2="408.6"
       spreadMethod="pad">
      <stop
         offset="0%"
         stop-color="#D1D3D4"
         id="stop152" />
      <stop
         offset="100%"
         stop-color="#F1F2F2"
         id="stop154" />
    </linearGradient>
    <linearGradient
       id="Gradient_30"
       gradientUnits="userSpaceOnUse"
       x1="834.275"
       y1="410.6"
       x2="968.9250000000001"
       y2="410.6"
       spreadMethod="pad">
      <stop
         offset="0%"
         stop-color="#4EB9F3"
         id="stop157" />
      <stop
         offset="100%"
         stop-color="#22A7F0"
         id="stop159" />
    </linearGradient>
    <linearGradient
       id="Gradient_31"
       gradientUnits="userSpaceOnUse"
       x1="837.125"
       y1="410.6"
       x2="966.075"
       y2="410.6"
       spreadMethod="pad">
      <stop
         offset="0%"
         stop-color="#22A7F0"
         id="stop162" />
      <stop
         offset="100%"
         stop-color="#4EB9F3"
         id="stop164" />
    </linearGradient>
    <linearGradient
       id="Gradient_32"
       gradientUnits="userSpaceOnUse"
       x1="851.375"
       y1="410.6"
       x2="951.825"
       y2="410.6"
       spreadMethod="pad">
      <stop
         offset="0%"
         stop-color="#F1F2F2"
         id="stop167" />
      <stop
         offset="100%"
         stop-color="#D1D3D4"
         id="stop169" />
    </linearGradient>
    <linearGradient
       id="Gradient_33"
       gradientUnits="userSpaceOnUse"
       x1="854.225"
       y1="410.6"
       x2="948.975"
       y2="410.6"
       spreadMethod="pad">
      <stop
         offset="0%"
         stop-color="#D1D3D4"
         id="stop172" />
      <stop
         offset="100%"
         stop-color="#F1F2F2"
         id="stop174" />
    </linearGradient>
    <linearGradient
       id="Gradient_34"
       gradientUnits="userSpaceOnUse"
       x1="1028.375"
       y1="328.25"
       x2="1192.625"
       y2="328.25"
       spreadMethod="pad">
      <stop
         offset="0%"
         stop-color="#48C9B0"
         id="stop177" />
      <stop
         offset="100%"
         stop-color="#1ABC9C"
         id="stop179" />
    </linearGradient>
    <linearGradient
       id="Gradient_35"
       gradientUnits="userSpaceOnUse"
       x1="1031.375"
       y1="328.25"
       x2="1189.625"
       y2="328.25"
       spreadMethod="pad">
      <stop
         offset="0%"
         stop-color="#1ABC9C"
         id="stop182" />
      <stop
         offset="100%"
         stop-color="#48C9B0"
         id="stop184" />
    </linearGradient>
    <linearGradient
       id="Gradient_36"
       gradientUnits="userSpaceOnUse"
       x1="1114.8"
       y1="317.77500000000003"
       x2="1114.8"
       y2="343.425"
       spreadMethod="pad">
      <stop
         offset="0%"
         stop-color="#F1F2F2"
         id="stop187" />
      <stop
         offset="100%"
         stop-color="#D1D3D4"
         id="stop189" />
    </linearGradient>
    <linearGradient
       id="Gradient_37"
       gradientUnits="userSpaceOnUse"
       x1="1114.8"
       y1="320.625"
       x2="1114.8"
       y2="340.57500000000005"
       spreadMethod="pad">
      <stop
         offset="0%"
         stop-color="#D1D3D4"
         id="stop192" />
      <stop
         offset="100%"
         stop-color="#F1F2F2"
         id="stop194" />
    </linearGradient>
    <linearGradient
       id="Gradient_38"
       gradientUnits="userSpaceOnUse"
       x1="1110.5"
       y1="365.1375"
       x2="1110.5"
       y2="390.7625"
       spreadMethod="pad">
      <stop
         offset="0%"
         stop-color="#F1F2F2"
         id="stop197" />
      <stop
         offset="100%"
         stop-color="#D1D3D4"
         id="stop199" />
    </linearGradient>
    <linearGradient
       id="Gradient_39"
       gradientUnits="userSpaceOnUse"
       x1="1110.5"
       y1="367.97499999999997"
       x2="1110.5"
       y2="387.925"
       spreadMethod="pad">
      <stop
         offset="0%"
         stop-color="#D1D3D4"
         id="stop202" />
      <stop
         offset="100%"
         stop-color="#F1F2F2"
         id="stop204" />
    </linearGradient>
    <linearGradient
       id="Gradient_40"
       gradientUnits="userSpaceOnUse"
       x1="1110.5"
       y1="265.7875"
       x2="1110.5"
       y2="291.4125"
       spreadMethod="pad">
      <stop
         offset="0%"
         stop-color="#F1F2F2"
         id="stop207" />
      <stop
         offset="100%"
         stop-color="#D1D3D4"
         id="stop209" />
    </linearGradient>
    <linearGradient
       id="Gradient_41"
       gradientUnits="userSpaceOnUse"
       x1="1110.5"
       y1="268.625"
       x2="1110.5"
       y2="288.57500000000005"
       spreadMethod="pad">
      <stop
         offset="0%"
         stop-color="#D1D3D4"
         id="stop212" />
      <stop
         offset="100%"
         stop-color="#F1F2F2"
         id="stop214" />
    </linearGradient>
    <linearGradient
       inkscape:collect="always"
       xlink:href="#Gradient_34"
       id="linearGradient1943"
       gradientUnits="userSpaceOnUse"
       x1="1028.375"
       y1="328.25"
       x2="1192.625"
       y2="328.25"
       spreadMethod="pad" />
    <linearGradient
       inkscape:collect="always"
       xlink:href="#Gradient_35"
       id="linearGradient1945"
       gradientUnits="userSpaceOnUse"
       x1="1031.375"
       y1="328.25"
       x2="1189.625"
       y2="328.25"
       spreadMethod="pad" />
    <linearGradient
       inkscape:collect="always"
       xlink:href="#Gradient_36"
       id="linearGradient1965"
       gradientUnits="userSpaceOnUse"
       x1="1114.8"
       y1="317.77500000000003"
       x2="1114.8"
       y2="343.425"
       spreadMethod="pad" />
    <linearGradient
       inkscape:collect="always"
       xlink:href="#Gradient_37"
       id="linearGradient1967"
       gradientUnits="userSpaceOnUse"
       x1="1114.8"
       y1="320.625"
       x2="1114.8"
       y2="340.57500000000005"
       spreadMethod="pad" />
    <linearGradient
       inkscape:collect="always"
       xlink:href="#Gradient_38"
       id="linearGradient1969"
       gradientUnits="userSpaceOnUse"
       x1="1110.5"
       y1="365.1375"
       x2="1110.5"
       y2="390.7625"
       spreadMethod="pad" />
    <linearGradient
       inkscape:collect="always"
       xlink:href="#Gradient_39"
       id="linearGradient1971"
       gradientUnits="userSpaceOnUse"
       x1="1110.5"
       y1="367.97499999999997"
       x2="1110.5"
       y2="387.925"
       spreadMethod="pad" />
    <linearGradient
       inkscape:collect="always"
       xlink:href="#Gradient_40"
       id="linearGradient1973"
       gradientUnits="userSpaceOnUse"
       x1="1110.5"
       y1="265.7875"
       x2="1110.5"
       y2="291.4125"
       spreadMethod="pad" />
    <linearGradient
       inkscape:collect="always"
       xlink:href="#Gradient_41"
       id="linearGradient1975"
       gradientUnits="userSpaceOnUse"
       x1="1110.5"
       y1="268.625"
       x2="1110.5"
       y2="288.57500000000005"
       spreadMethod="pad" />
  </defs>
  <g
     transform="matrix(0.88057561,0,0,0.87898093,69.952306,70.00073)"
     id="g3712">
    <g
       transform="matrix(1.5233459,0,0,1.5223846,374.2,-515.65)"
       id="g3710">
      <g
         id="use3706">
        <path
           style="fill:#ffffff;fill-opacity:0.87843137;stroke:none"
           inkscape:connector-curvature="0"
           id="path76"
           d="m -296.85,377.05 q 0,13 13,13 h 76.4 q 13,0 13,-13 V 300.4 q 0,-13 -13,-13 h -76.4 q -13,0 -13,13 z" />
      </g>
      <path
         inkscape:connector-curvature="0"
         d="m -283.80644,287.38827 h 76.39984 q 12.99998,0 12.99998,12.99992 v 76.64955 q 0,12.99992 -12.99998,12.99992 h -76.39984 q -12.99997,0 -12.99997,-12.99992 v -76.64955 q 0,-12.99992 12.99997,-12.99992 z"
         id="use3708"
         style="fill:none;stroke:#ffffff;stroke-width:1.96996295;stroke-linecap:round;stroke-linejoin:round" />
    </g>
  </g>
  <g
     transform="matrix(0.65361023,0,0,0.65361023,69.98366,69.98366)"
     id="g2904">
    <g
       transform="translate(-1110.45,-328.25)"
       id="g2894">
      <g
         id="use2892">
        <path
           style="fill:url(#linearGradient1943);stroke:none"
           inkscape:connector-curvature="0"
           id="path1937"
           d="m 1037.6,257.45 q -9.25,8.8 -9.25,21.15 0,12.35 9.25,21.15 1.1938,1.13574 2.45,2.1 8.4777,6.7 19.8,6.7 h 3.75 q -4.8,4.15 -7.5,9.8 -2.75,5.8 -2.75,12.25 0,9.55 5.9,17.45 -11.0141,0.21426 -19.2,6.6 -1.3643,1.10703 -2.65,2.35 -9.05,8.7 -9.05,20.95 0,12.35 9.25,21.15 1.1938,1.1293 2.45,2.1 5.4416,4.27734 12.05,5.8 3.6953,0.85 7.75,0.85 h 101.25 q 4.0672,0 7.75,-0.85 8.1828,-1.87695 14.55,-7.9 9.2,-8.75 9.2,-21.15 0,-10.15 -6.45,-18.15 -6.35,-7.9 -16.35,-10.6 6.8,-8.25 6.8,-18.6 0,-6.55 -2.9,-12.5 -2.75,-5.75 -7.75,-9.9 11.4,-1.7 18.95,-10.05 7.7,-8.4 7.7,-19.55 0,-12.4 -9.2,-21.15 -9.25,-8.75 -22.3,-8.75 h -101.25 q -11.3223,0 -19.8,6.6 -1.2562,1.0207 -2.45,2.15 m -6.25,21.15 q 0,-11.15 8.35,-19.1 0.1744,-0.16504 0.35,-0.35 8.2938,-7.6 19.8,-7.6 h 101.25 q 11.8,0 20.15,7.95 8.35,7.95 8.35,19.1 0,11.2 -8.35,19.15 -8.35,7.95 -20.15,7.95 h -5.85 q 7.75,3.1 12.5,9.8 4.85,6.8 4.85,15.1 0,5.95 -2.6,11.35 -2.55,5.15 -7.1,8.95 11.2,0.7 18.95,8.5 7.75,7.8 7.75,18.55 0,11.2 -8.35,19.1 -8.35,7.95 -20.15,7.95 h -101.25 q -11.5062,0 -19.8,-7.65 -0.1756,-0.13496 -0.35,-0.3 -8.35,-7.9 -8.35,-19.1 0,-11.2 8.35,-19.15 0.1742,-0.16602 0.35,-0.35 8.2463,-7.6 19.8,-7.6 h 7.15 q -4.5,-3.8 -7.05,-8.95 -2.6,-5.35 -2.6,-11.3 0,-8.25 4.9,-15.1 4.75,-6.65 12.5,-9.8 h -14.9 q -11.5537,0 -19.8,-7.65 -0.1758,-0.13398 -0.35,-0.3 -8.35,-7.95 -8.35,-19.15 z" />
        <path
           style="fill:url(#linearGradient1945);stroke:none"
           inkscape:connector-curvature="0"
           id="path1939"
           d="m 1039.7,259.5 q -8.35,7.95 -8.35,19.1 0,11.2 8.35,19.15 0.1742,0.16602 0.35,0.3 8.2463,7.65 19.8,7.65 h 14.9 q -7.75,3.15 -12.5,9.8 -4.9,6.85 -4.9,15.1 0,5.95 2.6,11.3 2.55,5.15 7.05,8.95 h -7.15 q -11.5537,0 -19.8,7.6 -0.1758,0.18398 -0.35,0.35 -8.35,7.95 -8.35,19.15 0,11.2 8.35,19.1 0.1744,0.16504 0.35,0.3 8.2938,7.65 19.8,7.65 h 101.25 q 11.8,0 20.15,-7.95 8.35,-7.9 8.35,-19.1 0,-10.75 -7.75,-18.55 -7.75,-7.8 -18.95,-8.5 4.55,-3.8 7.1,-8.95 2.6,-5.4 2.6,-11.35 0,-8.3 -4.85,-15.1 -4.75,-6.7 -12.5,-9.8 h 5.85 q 11.8,0 20.15,-7.95 8.35,-7.95 8.35,-19.15 0,-11.15 -8.35,-19.1 -8.35,-7.95 -20.15,-7.95 h -101.25 q -11.5062,0 -19.8,7.6 -0.1756,0.18496 -0.35,0.35 z" />
      </g>
    </g>
    <g
       transform="translate(-1277.6,-214.9)"
       id="g2898">
      <g
         id="use2896">
        <path
           style="fill:#000000;fill-opacity:0.2;stroke:none"
           inkscape:connector-curvature="0"
           id="path1947"
           d="m 1345.8,281.5 q 3.95,-3.75 3.95,-9.05 0,-5.3 -3.95,-9.1 -3.95,-3.75 -9.55,-3.75 H 1235 q -5.6,0 -9.55,3.75 -3.95,3.8 -3.95,9.1 0,5.3 3.95,9.05 3.95,3.75 9.55,3.75 h 101.25 q 5.6,0 9.55,-3.75 m -15.65,-47.3 q 3.95,-3.8 3.95,-9.1 0,-5.3 -3.95,-9.05 -3.95,-3.75 -9.55,-3.75 h -61.25 q -5.6,0 -9.55,3.75 -3.95,3.75 -3.95,9.05 0,5.3 3.95,9.1 3.95,3.75 9.55,3.75 h 61.25 q 5.6,0 9.55,-3.75 m 15.65,-52 q 3.95,-3.8 3.95,-9.1 0,-5.3 -3.95,-9.05 -3.95,-3.75 -9.55,-3.75 H 1235 q -5.6,0 -9.55,3.75 -3.95,3.75 -3.95,9.05 0,5.3 3.95,9.1 3.95,3.75 9.55,3.75 h 101.25 q 5.6,0 9.55,-3.75 z" />
      </g>
    </g>
    <g
       transform="translate(-1109.25,-328.25)"
       id="g2902">
      <g
         id="use2900">
        <path
           style="fill:url(#linearGradient1965);stroke:none"
           inkscape:connector-curvature="0"
           id="path1951"
           d="m 1074.65,339.7 q 3.95,3.75 9.55,3.75 h 61.25 q 5.6,0 9.55,-3.75 3.95,-3.8 3.95,-9.1 0,-5.3 -3.95,-9.05 -3.95,-3.75 -9.55,-3.75 h -61.25 q -5.6,0 -9.55,3.75 -3.95,3.75 -3.95,9.05 0,5.3 3.95,9.1 m 9.55,0.9 q -4.35,0 -7.4,-2.95 -3.1,-2.9 -3.1,-7.05 0,-4.1 3.1,-7.05 3.05,-2.9 7.4,-2.9 h 61.25 q 4.35,0 7.45,2.9 3.05,2.95 3.05,7.05 0,4.15 -3.05,7.05 -3.1,2.95 -7.45,2.95 z" />
        <path
           style="fill:url(#linearGradient1967);stroke:none"
           inkscape:connector-curvature="0"
           id="path1953"
           d="m 1076.8,337.65 q 3.05,2.95 7.4,2.95 h 61.25 q 4.35,0 7.45,-2.95 3.05,-2.9 3.05,-7.05 0,-4.1 -3.05,-7.05 -3.1,-2.9 -7.45,-2.9 h -61.25 q -4.35,0 -7.4,2.9 -3.1,2.95 -3.1,7.05 0,4.15 3.1,7.05 z" />
        <path
           style="fill:url(#linearGradient1969);stroke:none"
           inkscape:connector-curvature="0"
           id="path1955"
           d="m 1046.35,377.95 q 0,5.3 3.95,9.05 3.95,3.75 9.55,3.75 h 101.25 q 5.6,0 9.55,-3.75 3.95,-3.75 3.95,-9.05 0,-5.3 -3.95,-9.1 -3.95,-3.75 -9.55,-3.75 h -101.25 q -5.6,0 -9.55,3.75 -3.95,3.8 -3.95,9.1 m 6.1,7.05 q -3.1,-2.9 -3.1,-7.05 0,-4.15 3.1,-7.05 3.05,-2.95 7.4,-2.95 h 101.25 q 4.35,0 7.45,2.95 3.05,2.9 3.05,7.05 0,4.15 -3.05,7.05 -3.1,2.9 -7.45,2.9 h -101.25 q -4.35,0 -7.4,-2.9 z" />
        <path
           style="fill:url(#linearGradient1971);stroke:none"
           inkscape:connector-curvature="0"
           id="path1957"
           d="m 1049.35,377.95 q 0,4.15 3.1,7.05 3.05,2.9 7.4,2.9 h 101.25 q 4.35,0 7.45,-2.9 3.05,-2.9 3.05,-7.05 0,-4.15 -3.05,-7.05 -3.1,-2.95 -7.45,-2.95 h -101.25 q -4.35,0 -7.4,2.95 -3.1,2.9 -3.1,7.05 z" />
        <path
           style="fill:url(#linearGradient1973);stroke:none"
           inkscape:connector-curvature="0"
           id="path1959"
           d="m 1046.35,278.6 q 0,5.3 3.95,9.1 3.95,3.75 9.55,3.75 h 101.25 q 5.6,0 9.55,-3.75 3.95,-3.8 3.95,-9.1 0,-5.3 -3.95,-9.05 -3.95,-3.75 -9.55,-3.75 h -101.25 q -5.6,0 -9.55,3.75 -3.95,3.75 -3.95,9.05 m 6.1,7.05 q -3.1,-2.9 -3.1,-7.05 0,-4.1 3.1,-7.05 3.05,-2.9 7.4,-2.9 h 101.25 q 4.35,0 7.45,2.9 3.05,2.95 3.05,7.05 0,4.15 -3.05,7.05 -3.1,2.95 -7.45,2.95 h -101.25 q -4.35,0 -7.4,-2.95 z" />
        <path
           style="fill:url(#linearGradient1975);stroke:none"
           inkscape:connector-curvature="0"
           id="path1961"
           d="m 1049.35,278.6 q 0,4.15 3.1,7.05 3.05,2.95 7.4,2.95 h 101.25 q 4.35,0 7.45,-2.95 3.05,-2.9 3.05,-7.05 0,-4.1 -3.05,-7.05 -3.1,-2.9 -7.45,-2.9 h -101.25 q -4.35,0 -7.4,2.9 -3.1,2.95 -3.1,7.05 z" />
      </g>
    </g>
  </g>
</svg>
