<?xml version="1.0" encoding="UTF-8" standalone="no"?>
<svg
   xmlns:dc="http://purl.org/dc/elements/1.1/"
   xmlns:cc="http://creativecommons.org/ns#"
   xmlns:rdf="http://www.w3.org/1999/02/22-rdf-syntax-ns#"
   xmlns:svg="http://www.w3.org/2000/svg"
   xmlns="http://www.w3.org/2000/svg"
   id="svg26"
   version="1.1"
   viewBox="0 0 100 100"
   height="100"
   width="100">
  <metadata
     id="metadata32">
    <rdf:RDF>
      <cc:Work
         rdf:about="">
        <dc:format>image/svg+xml</dc:format>
        <dc:type
           rdf:resource="http://purl.org/dc/dcmitype/StillImage" />
      </cc:Work>
    </rdf:RDF>
  </metadata>
  <defs
     id="defs30" />
  <title
     id="title2">Ρ</title>
  <rect
     id="rect4"
     style="fill: #ffffff"
     stroke-width="4"
     opacity="0.90"
     stroke="#ffffff"
     ry="10"
     rx="10"
     height="96"
     width="96"
     y="2"
     x="2" />
  <g
     id="g24"
     style="font-weight:bold;font-size:96px;font-family:'Comics Sans MS', Helvetica, sans-serif;text-anchor:middle;overflow:hidden">
    <defs
       id="defs16">
      <filter
         id="shadow">
        <feGaussianBlur
           id="feGaussianBlur6"
           result="shadow"
           stdDeviation="2 2" />
        <feOffset
           id="feOffset8"
           dy="1"
           dx="1" />
      </filter>
      <filter
         id="innerShadow">
        <feGaussianBlur
           id="feGaussianBlur11"
           result="blur"
           stdDeviation="0.5"
           in="SourceGraphic" />
        <feOffset
           id="feOffset13"
           dy="0"
           dx="0"
           in="blur" />
      </filter>
    </defs>
    <g
       id="text18"
       style="opacity:0.5;fill:#104020;filter:url(#shadow)"
       aria-label="Ρ">
      <path
         id="path34"
         style="opacity:0.5;fill:#104020;filter:url(#shadow)"
         d="m 23.65625,16.015625 h 29.953125 q 13.359375,0 20.484375,5.953125 7.171875,5.90625 7.171875,16.875 0,11.015625 -7.171875,16.96875 -7.125,5.90625 -20.484375,5.90625 H 41.703125 V 86 H 23.65625 Z M 41.703125,29.09375 V 48.640625 H 51.6875 q 5.25,0 8.109375,-2.53125 2.859375,-2.578125 2.859375,-7.265625 0,-4.6875 -2.859375,-7.21875 Q 56.9375,29.09375 51.6875,29.09375 Z" />
    </g>
    <g
       id="text20"
       style="fill:#000040;stroke:#102030;stroke-width:3"
       aria-label="Ρ">
      <path
         id="path37"
         style="fill:#000040;stroke:#102030;stroke-width:3"
         d="m 23.65625,16.015625 h 29.953125 q 13.359375,0 20.484375,5.953125 7.171875,5.90625 7.171875,16.875 0,11.015625 -7.171875,16.96875 -7.125,5.90625 -20.484375,5.90625 H 41.703125 V 86 H 23.65625 Z M 41.703125,29.09375 V 48.640625 H 51.6875 q 5.25,0 8.109375,-2.53125 2.859375,-2.578125 2.859375,-7.265625 0,-4.6875 -2.859375,-7.21875 Q 56.9375,29.09375 51.6875,29.09375 Z" />
    </g>
    <g
       id="text22"
       style="fill:#5cc067;filter:url(#innerShadow)"
       aria-label="Ρ">
      <path
         id="path40"
         style="fill:#5cc067;filter:url(#innerShadow)"
         d="m 23.65625,16.015625 h 29.953125 q 13.359375,0 20.484375,5.953125 7.171875,5.90625 7.171875,16.875 0,11.015625 -7.171875,16.96875 -7.125,5.90625 -20.484375,5.90625 H 41.703125 V 86 H 23.65625 Z M 41.703125,29.09375 V 48.640625 H 51.6875 q 5.25,0 8.109375,-2.53125 2.859375,-2.578125 2.859375,-7.265625 0,-4.6875 -2.859375,-7.21875 Q 56.9375,29.09375 51.6875,29.09375 Z" />
    </g>
  </g>
</svg>
