<?xml version="1.0" encoding="UTF-8" standalone="no"?>
<svg
   xmlns:dc="http://purl.org/dc/elements/1.1/"
   xmlns:cc="http://creativecommons.org/ns#"
   xmlns:rdf="http://www.w3.org/1999/02/22-rdf-syntax-ns#"
   xmlns:svg="http://www.w3.org/2000/svg"
   xmlns="http://www.w3.org/2000/svg"
   xmlns:xlink="http://www.w3.org/1999/xlink"
   xmlns:sodipodi="http://sodipodi.sourceforge.net/DTD/sodipodi-0.dtd"
   xmlns:inkscape="http://www.inkscape.org/namespaces/inkscape"
   id="svg26"
   version="1.1"
   viewBox="0 0 140 140"
   height="140"
   width="140"
   sodipodi:docname="l17.svg"
   inkscape:version="0.92.3 (2405546, 2018-03-11)">
  <sodipodi:namedview
     pagecolor="#ffffff"
     bordercolor="#666666"
     borderopacity="1"
     objecttolerance="10"
     gridtolerance="10"
     guidetolerance="10"
     inkscape:pageopacity="0"
     inkscape:pageshadow="2"
     inkscape:window-width="1920"
     inkscape:window-height="1024"
     id="namedview21"
     showgrid="false"
     inkscape:zoom="5.7928571"
     inkscape:cx="30.123304"
     inkscape:cy="70"
     inkscape:window-x="0"
     inkscape:window-y="0"
     inkscape:window-maximized="1"
     inkscape:current-layer="svg26"
     inkscape:pagecheckerboard="true" />
  <metadata
     id="metadata32">
    <rdf:RDF>
      <cc:Work
         rdf:about="">
        <dc:format>image/svg+xml</dc:format>
        <dc:type
           rdf:resource="http://purl.org/dc/dcmitype/StillImage" />
        <dc:title></dc:title>
        <cc:license
           rdf:resource="http://creativecommons.org/licenses/by-sa/4.0/" />
      </cc:Work>
      <cc:License
         rdf:about="http://creativecommons.org/licenses/by-sa/4.0/">
        <cc:permits
           rdf:resource="http://creativecommons.org/ns#Reproduction" />
        <cc:permits
           rdf:resource="http://creativecommons.org/ns#Distribution" />
        <cc:requires
           rdf:resource="http://creativecommons.org/ns#Notice" />
        <cc:requires
           rdf:resource="http://creativecommons.org/ns#Attribution" />
        <cc:permits
           rdf:resource="http://creativecommons.org/ns#DerivativeWorks" />
        <cc:requires
           rdf:resource="http://creativecommons.org/ns#ShareAlike" />
      </cc:License>
    </rdf:RDF>
  </metadata>
  <defs
     id="defs30">
    <linearGradient
       id="Gradient_74"
       gradientUnits="userSpaceOnUse"
       x1="52.4375"
       y1="167.14999"
       x2="197.7625"
       y2="167.14999"
       spreadMethod="pad">
      <stop
         offset="0%"
         stop-color="#4EB9F3"
         id="stop381" />
      <stop
         offset="100%"
         stop-color="#22A7F0"
         id="stop383" />
    </linearGradient>
    <linearGradient
       id="Gradient_75"
       gradientUnits="userSpaceOnUse"
       x1="55.287498"
       y1="167.14999"
       x2="194.91251"
       y2="167.14999"
       spreadMethod="pad">
      <stop
         offset="0%"
         stop-color="#22A7F0"
         id="stop386" />
      <stop
         offset="100%"
         stop-color="#4EB9F3"
         id="stop388" />
    </linearGradient>
    <linearGradient
       id="Gradient_76"
       gradientUnits="userSpaceOnUse"
       x1="69.525002"
       y1="167.14999"
       x2="180.675"
       y2="167.14999"
       spreadMethod="pad">
      <stop
         offset="0%"
         stop-color="#F1F2F2"
         id="stop391" />
      <stop
         offset="100%"
         stop-color="#D1D3D4"
         id="stop393" />
    </linearGradient>
    <linearGradient
       id="Gradient_77"
       gradientUnits="userSpaceOnUse"
       x1="72.387497"
       y1="167.14999"
       x2="177.8125"
       y2="167.14999"
       spreadMethod="pad">
      <stop
         offset="0%"
         stop-color="#D1D3D4"
         id="stop396" />
      <stop
         offset="100%"
         stop-color="#F1F2F2"
         id="stop398" />
    </linearGradient>
    <linearGradient
       id="Gradient_78"
       gradientUnits="userSpaceOnUse"
       x1="226.9125"
       y1="170.65"
       x2="346.5875"
       y2="170.65"
       spreadMethod="pad">
      <stop
         offset="0%"
         stop-color="#EB984E"
         id="stop401" />
      <stop
         offset="100%"
         stop-color="#E67E22"
         id="stop403" />
    </linearGradient>
    <linearGradient
       id="Gradient_79"
       gradientUnits="userSpaceOnUse"
       x1="229.7625"
       y1="170.65"
       x2="343.7375"
       y2="170.65"
       spreadMethod="pad">
      <stop
         offset="0%"
         stop-color="#E67E22"
         id="stop406" />
      <stop
         offset="100%"
         stop-color="#EB984E"
         id="stop408" />
    </linearGradient>
    <linearGradient
       id="Gradient_80"
       gradientUnits="userSpaceOnUse"
       x1="244.0125"
       y1="170.65"
       x2="329.4875"
       y2="170.65"
       spreadMethod="pad">
      <stop
         offset="0%"
         stop-color="#F1F2F2"
         id="stop411" />
      <stop
         offset="100%"
         stop-color="#D1D3D4"
         id="stop413" />
    </linearGradient>
    <linearGradient
       id="Gradient_81"
       gradientUnits="userSpaceOnUse"
       x1="246.8625"
       y1="170.65"
       x2="326.6375"
       y2="170.65"
       spreadMethod="pad">
      <stop
         offset="0%"
         stop-color="#D1D3D4"
         id="stop416" />
      <stop
         offset="100%"
         stop-color="#F1F2F2"
         id="stop418" />
    </linearGradient>
    <linearGradient
       id="Gradient_82"
       gradientUnits="userSpaceOnUse"
       x1="389.96250000000003"
       y1="172.9"
       x2="503.2375"
       y2="172.9"
       spreadMethod="pad">
      <stop
         offset="0%"
         stop-color="#AF7AC5"
         id="stop421" />
      <stop
         offset="100%"
         stop-color="#9B59B6"
         id="stop423" />
    </linearGradient>
    <linearGradient
       id="Gradient_83"
       gradientUnits="userSpaceOnUse"
       x1="392.8125"
       y1="172.9"
       x2="500.38750000000005"
       y2="172.9"
       spreadMethod="pad">
      <stop
         offset="0%"
         stop-color="#9B59B6"
         id="stop426" />
      <stop
         offset="100%"
         stop-color="#AF7AC5"
         id="stop428" />
    </linearGradient>
    <linearGradient
       id="Gradient_84"
       gradientUnits="userSpaceOnUse"
       x1="407.0625"
       y1="172.9"
       x2="486.13750000000005"
       y2="172.9"
       spreadMethod="pad">
      <stop
         offset="0%"
         stop-color="#F1F2F2"
         id="stop431" />
      <stop
         offset="100%"
         stop-color="#D1D3D4"
         id="stop433" />
    </linearGradient>
    <linearGradient
       id="Gradient_85"
       gradientUnits="userSpaceOnUse"
       x1="409.9125"
       y1="172.9"
       x2="483.2875"
       y2="172.9"
       spreadMethod="pad">
      <stop
         offset="0%"
         stop-color="#D1D3D4"
         id="stop436" />
      <stop
         offset="100%"
         stop-color="#F1F2F2"
         id="stop438" />
    </linearGradient>
    <linearGradient
       id="Gradient_86"
       gradientUnits="userSpaceOnUse"
       x1="525.7125"
       y1="176.25"
       x2="671.0875"
       y2="176.25"
       spreadMethod="pad">
      <stop
         offset="0%"
         stop-color="#FFC241"
         id="stop441" />
      <stop
         offset="100%"
         stop-color="#FFB312"
         id="stop443" />
    </linearGradient>
    <linearGradient
       id="Gradient_87"
       gradientUnits="userSpaceOnUse"
       x1="528.5625"
       y1="176.25"
       x2="668.2375"
       y2="176.25"
       spreadMethod="pad">
      <stop
         offset="0%"
         stop-color="#FFB312"
         id="stop446" />
      <stop
         offset="100%"
         stop-color="#FFC241"
         id="stop448" />
    </linearGradient>
    <linearGradient
       id="Gradient_88"
       gradientUnits="userSpaceOnUse"
       x1="541.4749999999999"
       y1="176.55"
       x2="652.625"
       y2="176.55"
       spreadMethod="pad">
      <stop
         offset="0%"
         stop-color="#F1F2F2"
         id="stop451" />
      <stop
         offset="100%"
         stop-color="#D1D3D4"
         id="stop453" />
    </linearGradient>
    <linearGradient
       id="Gradient_89"
       gradientUnits="userSpaceOnUse"
       x1="544.1625"
       y1="176.5"
       x2="649.6374999999999"
       y2="176.5"
       spreadMethod="pad">
      <stop
         offset="0%"
         stop-color="#D1D3D4"
         id="stop456" />
      <stop
         offset="100%"
         stop-color="#F1F2F2"
         id="stop458" />
    </linearGradient>
    <linearGradient
       id="Gradient_90"
       gradientUnits="userSpaceOnUse"
       x1="705.525"
       y1="170.65"
       x2="829.475"
       y2="170.65"
       spreadMethod="pad">
      <stop
         offset="0%"
         stop-color="#7B9BD3"
         id="stop461" />
      <stop
         offset="61.96078431372549%"
         stop-color="#6389CB"
         id="stop463" />
      <stop
         offset="100%"
         stop-color="#5A82C8"
         id="stop465" />
    </linearGradient>
    <linearGradient
       id="Gradient_91"
       gradientUnits="userSpaceOnUse"
       x1="708.375"
       y1="170.65"
       x2="826.625"
       y2="170.65"
       spreadMethod="pad">
      <stop
         offset="0%"
         stop-color="#5A82C8"
         id="stop468" />
      <stop
         offset="38.03921568627451%"
         stop-color="#6389CB"
         id="stop470" />
      <stop
         offset="100%"
         stop-color="#7B9BD3"
         id="stop472" />
    </linearGradient>
    <linearGradient
       id="Gradient_92"
       gradientUnits="userSpaceOnUse"
       x1="722.625"
       y1="170.65"
       x2="812.375"
       y2="170.65"
       spreadMethod="pad">
      <stop
         offset="0%"
         stop-color="#F1F2F2"
         id="stop475" />
      <stop
         offset="100%"
         stop-color="#D1D3D4"
         id="stop477" />
    </linearGradient>
    <linearGradient
       id="Gradient_93"
       gradientUnits="userSpaceOnUse"
       x1="725.475"
       y1="170.65"
       x2="809.525"
       y2="170.65"
       spreadMethod="pad">
      <stop
         offset="0%"
         stop-color="#D1D3D4"
         id="stop480" />
      <stop
         offset="100%"
         stop-color="#F1F2F2"
         id="stop482" />
    </linearGradient>
    <linearGradient
       id="Gradient_94"
       gradientUnits="userSpaceOnUse"
       x1="855.925"
       y1="169.2"
       x2="990.575"
       y2="169.2"
       spreadMethod="pad">
      <stop
         offset="0%"
         stop-color="#48C9B0"
         id="stop485" />
      <stop
         offset="100%"
         stop-color="#1ABC9C"
         id="stop487" />
    </linearGradient>
    <linearGradient
       id="Gradient_95"
       gradientUnits="userSpaceOnUse"
       x1="858.775"
       y1="169.2"
       x2="987.725"
       y2="169.2"
       spreadMethod="pad">
      <stop
         offset="0%"
         stop-color="#1ABC9C"
         id="stop490" />
      <stop
         offset="100%"
         stop-color="#48C9B0"
         id="stop492" />
    </linearGradient>
    <linearGradient
       id="Gradient_96"
       gradientUnits="userSpaceOnUse"
       x1="873.025"
       y1="169.2"
       x2="973.475"
       y2="169.2"
       spreadMethod="pad">
      <stop
         offset="0%"
         stop-color="#F1F2F2"
         id="stop495" />
      <stop
         offset="100%"
         stop-color="#D1D3D4"
         id="stop497" />
    </linearGradient>
    <linearGradient
       id="Gradient_97"
       gradientUnits="userSpaceOnUse"
       x1="875.875"
       y1="169.2"
       x2="970.625"
       y2="169.2"
       spreadMethod="pad">
      <stop
         offset="0%"
         stop-color="#D1D3D4"
         id="stop500" />
      <stop
         offset="100%"
         stop-color="#F1F2F2"
         id="stop502" />
    </linearGradient>
    <linearGradient
       id="Gradient_98"
       gradientUnits="userSpaceOnUse"
       x1="1013.7749999999999"
       y1="172.65"
       x2="1148.425"
       y2="172.65"
       spreadMethod="pad">
      <stop
         offset="0%"
         stop-color="#F379A4"
         id="stop505" />
      <stop
         offset="100%"
         stop-color="#F0588D"
         id="stop507" />
    </linearGradient>
    <linearGradient
       id="Gradient_99"
       gradientUnits="userSpaceOnUse"
       x1="1016.6249999999999"
       y1="172.65"
       x2="1145.5749999999998"
       y2="172.65"
       spreadMethod="pad">
      <stop
         offset="0%"
         stop-color="#F0588D"
         id="stop510" />
      <stop
         offset="100%"
         stop-color="#F379A4"
         id="stop512" />
    </linearGradient>
    <linearGradient
       id="Gradient_100"
       gradientUnits="userSpaceOnUse"
       x1="1030.875"
       y1="172.65"
       x2="1131.3249999999998"
       y2="172.65"
       spreadMethod="pad">
      <stop
         offset="0%"
         stop-color="#F1F2F2"
         id="stop515" />
      <stop
         offset="100%"
         stop-color="#D1D3D4"
         id="stop517" />
    </linearGradient>
    <linearGradient
       id="Gradient_101"
       gradientUnits="userSpaceOnUse"
       x1="1033.725"
       y1="172.65"
       x2="1128.475"
       y2="172.65"
       spreadMethod="pad">
      <stop
         offset="0%"
         stop-color="#D1D3D4"
         id="stop520" />
      <stop
         offset="100%"
         stop-color="#F1F2F2"
         id="stop522" />
    </linearGradient>
    <linearGradient
       id="Gradient_8"
       gradientUnits="userSpaceOnUse"
       x1="55.312500000000014"
       y1="414.3"
       x2="207.28750000000002"
       y2="414.3"
       spreadMethod="pad">
      <stop
         offset="0%"
         stop-color="#AF7AC5"
         id="stop47" />
      <stop
         offset="100%"
         stop-color="#9B59B6"
         id="stop49" />
    </linearGradient>
    <linearGradient
       id="Gradient_9"
       gradientUnits="userSpaceOnUse"
       x1="58.16250000000001"
       y1="414.3"
       x2="204.4375"
       y2="414.3"
       spreadMethod="pad">
      <stop
         offset="0%"
         stop-color="#9B59B6"
         id="stop52" />
      <stop
         offset="100%"
         stop-color="#AF7AC5"
         id="stop54" />
    </linearGradient>
    <linearGradient
       id="Gradient_10"
       gradientUnits="userSpaceOnUse"
       x1="71.775"
       y1="414.65"
       x2="189.225"
       y2="414.65"
       spreadMethod="pad">
      <stop
         offset="0%"
         stop-color="#F1F2F2"
         id="stop57" />
      <stop
         offset="100%"
         stop-color="#D1D3D4"
         id="stop59" />
    </linearGradient>
    <linearGradient
       id="Gradient_11"
       gradientUnits="userSpaceOnUse"
       x1="74.625"
       y1="414.65"
       x2="186.375"
       y2="414.65"
       spreadMethod="pad">
      <stop
         offset="0%"
         stop-color="#D1D3D4"
         id="stop62" />
      <stop
         offset="100%"
         stop-color="#F1F2F2"
         id="stop64" />
    </linearGradient>
    <linearGradient
       id="Gradient_12"
       gradientUnits="userSpaceOnUse"
       x1="132.15"
       y1="402.325"
       x2="132.15"
       y2="427.97499999999997"
       spreadMethod="pad">
      <stop
         offset="0%"
         stop-color="#F1F2F2"
         id="stop67" />
      <stop
         offset="100%"
         stop-color="#D1D3D4"
         id="stop69" />
    </linearGradient>
    <linearGradient
       id="Gradient_13"
       gradientUnits="userSpaceOnUse"
       x1="132.15"
       y1="405.17499999999995"
       x2="132.15"
       y2="425.125"
       spreadMethod="pad">
      <stop
         offset="0%"
         stop-color="#D1D3D4"
         id="stop72" />
      <stop
         offset="100%"
         stop-color="#F1F2F2"
         id="stop74" />
    </linearGradient>
    <linearGradient
       id="Gradient_14"
       gradientUnits="userSpaceOnUse"
       x1="227.5875"
       y1="416.6"
       x2="287.4125"
       y2="416.6"
       spreadMethod="pad">
      <stop
         offset="0%"
         stop-color="#48C9B0"
         id="stop77" />
      <stop
         offset="100%"
         stop-color="#1ABC9C"
         id="stop79" />
    </linearGradient>
    <linearGradient
       id="Gradient_15"
       gradientUnits="userSpaceOnUse"
       x1="230.425"
       y1="416.6"
       x2="284.575"
       y2="416.6"
       spreadMethod="pad">
      <stop
         offset="0%"
         stop-color="#1ABC9C"
         id="stop82" />
      <stop
         offset="100%"
         stop-color="#48C9B0"
         id="stop84" />
    </linearGradient>
    <linearGradient
       id="Gradient_16"
       gradientUnits="userSpaceOnUse"
       x1="244.675"
       y1="416.6"
       x2="270.325"
       y2="416.6"
       spreadMethod="pad">
      <stop
         offset="0%"
         stop-color="#F1F2F2"
         id="stop87" />
      <stop
         offset="100%"
         stop-color="#D1D3D4"
         id="stop89" />
    </linearGradient>
    <linearGradient
       id="Gradient_17"
       gradientUnits="userSpaceOnUse"
       x1="247.525"
       y1="416.6"
       x2="267.475"
       y2="416.6"
       spreadMethod="pad">
      <stop
         offset="0%"
         stop-color="#D1D3D4"
         id="stop92" />
      <stop
         offset="100%"
         stop-color="#F1F2F2"
         id="stop94" />
    </linearGradient>
    <linearGradient
       id="Gradient_18"
       gradientUnits="userSpaceOnUse"
       x1="328.425"
       y1="410.6"
       x2="463.075"
       y2="410.6"
       spreadMethod="pad">
      <stop
         offset="0%"
         stop-color="#EB984E"
         id="stop97" />
      <stop
         offset="100%"
         stop-color="#E67E22"
         id="stop99" />
    </linearGradient>
    <linearGradient
       id="Gradient_19"
       gradientUnits="userSpaceOnUse"
       x1="331.275"
       y1="410.6"
       x2="460.225"
       y2="410.6"
       spreadMethod="pad">
      <stop
         offset="0%"
         stop-color="#E67E22"
         id="stop102" />
      <stop
         offset="100%"
         stop-color="#EB984E"
         id="stop104" />
    </linearGradient>
    <linearGradient
       id="Gradient_20"
       gradientUnits="userSpaceOnUse"
       x1="345.525"
       y1="410.6"
       x2="445.975"
       y2="410.6"
       spreadMethod="pad">
      <stop
         offset="0%"
         stop-color="#F1F2F2"
         id="stop107" />
      <stop
         offset="100%"
         stop-color="#D1D3D4"
         id="stop109" />
    </linearGradient>
    <linearGradient
       id="Gradient_21"
       gradientUnits="userSpaceOnUse"
       x1="348.375"
       y1="410.6"
       x2="443.125"
       y2="410.6"
       spreadMethod="pad">
      <stop
         offset="0%"
         stop-color="#D1D3D4"
         id="stop112" />
      <stop
         offset="100%"
         stop-color="#F1F2F2"
         id="stop114" />
    </linearGradient>
    <linearGradient
       id="Gradient_22"
       gradientUnits="userSpaceOnUse"
       x1="487.6625"
       y1="411.6"
       x2="633.0375"
       y2="411.6"
       spreadMethod="pad">
      <stop
         offset="0%"
         stop-color="#48C9B0"
         id="stop117" />
      <stop
         offset="100%"
         stop-color="#1ABC9C"
         id="stop119" />
    </linearGradient>
    <linearGradient
       id="Gradient_23"
       gradientUnits="userSpaceOnUse"
       x1="490.51250000000005"
       y1="411.6"
       x2="630.1875"
       y2="411.6"
       spreadMethod="pad">
      <stop
         offset="0%"
         stop-color="#1ABC9C"
         id="stop122" />
      <stop
         offset="100%"
         stop-color="#48C9B0"
         id="stop124" />
    </linearGradient>
    <linearGradient
       id="Gradient_24"
       gradientUnits="userSpaceOnUse"
       x1="504.77500000000003"
       y1="411.6"
       x2="615.9250000000001"
       y2="411.6"
       spreadMethod="pad">
      <stop
         offset="0%"
         stop-color="#F1F2F2"
         id="stop127" />
      <stop
         offset="100%"
         stop-color="#D1D3D4"
         id="stop129" />
    </linearGradient>
    <linearGradient
       id="Gradient_25"
       gradientUnits="userSpaceOnUse"
       x1="507.625"
       y1="411.6"
       x2="613.075"
       y2="411.6"
       spreadMethod="pad">
      <stop
         offset="0%"
         stop-color="#D1D3D4"
         id="stop132" />
      <stop
         offset="100%"
         stop-color="#F1F2F2"
         id="stop134" />
    </linearGradient>
    <linearGradient
       id="Gradient_26"
       gradientUnits="userSpaceOnUse"
       x1="648.0875000000001"
       y1="408.6"
       x2="814.8125"
       y2="408.6"
       spreadMethod="pad">
      <stop
         offset="0%"
         stop-color="#FFC241"
         id="stop137" />
      <stop
         offset="100%"
         stop-color="#FFB312"
         id="stop139" />
    </linearGradient>
    <linearGradient
       id="Gradient_27"
       gradientUnits="userSpaceOnUse"
       x1="650.9375"
       y1="408.6"
       x2="811.9625000000001"
       y2="408.6"
       spreadMethod="pad">
      <stop
         offset="0%"
         stop-color="#FFB312"
         id="stop142" />
      <stop
         offset="100%"
         stop-color="#FFC241"
         id="stop144" />
    </linearGradient>
    <linearGradient
       id="Gradient_28"
       gradientUnits="userSpaceOnUse"
       x1="665.1875"
       y1="408.6"
       x2="797.7125000000001"
       y2="408.6"
       spreadMethod="pad">
      <stop
         offset="0%"
         stop-color="#F1F2F2"
         id="stop147" />
      <stop
         offset="100%"
         stop-color="#D1D3D4"
         id="stop149" />
    </linearGradient>
    <linearGradient
       id="Gradient_29"
       gradientUnits="userSpaceOnUse"
       x1="668.0375"
       y1="408.6"
       x2="794.8625000000001"
       y2="408.6"
       spreadMethod="pad">
      <stop
         offset="0%"
         stop-color="#D1D3D4"
         id="stop152" />
      <stop
         offset="100%"
         stop-color="#F1F2F2"
         id="stop154" />
    </linearGradient>
    <linearGradient
       id="Gradient_30"
       gradientUnits="userSpaceOnUse"
       x1="834.275"
       y1="410.6"
       x2="968.9250000000001"
       y2="410.6"
       spreadMethod="pad">
      <stop
         offset="0%"
         stop-color="#4EB9F3"
         id="stop157" />
      <stop
         offset="100%"
         stop-color="#22A7F0"
         id="stop159" />
    </linearGradient>
    <linearGradient
       id="Gradient_31"
       gradientUnits="userSpaceOnUse"
       x1="837.125"
       y1="410.6"
       x2="966.075"
       y2="410.6"
       spreadMethod="pad">
      <stop
         offset="0%"
         stop-color="#22A7F0"
         id="stop162" />
      <stop
         offset="100%"
         stop-color="#4EB9F3"
         id="stop164" />
    </linearGradient>
    <linearGradient
       id="Gradient_32"
       gradientUnits="userSpaceOnUse"
       x1="851.375"
       y1="410.6"
       x2="951.825"
       y2="410.6"
       spreadMethod="pad">
      <stop
         offset="0%"
         stop-color="#F1F2F2"
         id="stop167" />
      <stop
         offset="100%"
         stop-color="#D1D3D4"
         id="stop169" />
    </linearGradient>
    <linearGradient
       id="Gradient_33"
       gradientUnits="userSpaceOnUse"
       x1="854.225"
       y1="410.6"
       x2="948.975"
       y2="410.6"
       spreadMethod="pad">
      <stop
         offset="0%"
         stop-color="#D1D3D4"
         id="stop172" />
      <stop
         offset="100%"
         stop-color="#F1F2F2"
         id="stop174" />
    </linearGradient>
    <linearGradient
       id="Gradient_34"
       gradientUnits="userSpaceOnUse"
       x1="1028.375"
       y1="328.25"
       x2="1192.625"
       y2="328.25"
       spreadMethod="pad">
      <stop
         offset="0%"
         stop-color="#48C9B0"
         id="stop177" />
      <stop
         offset="100%"
         stop-color="#1ABC9C"
         id="stop179" />
    </linearGradient>
    <linearGradient
       id="Gradient_35"
       gradientUnits="userSpaceOnUse"
       x1="1031.375"
       y1="328.25"
       x2="1189.625"
       y2="328.25"
       spreadMethod="pad">
      <stop
         offset="0%"
         stop-color="#1ABC9C"
         id="stop182" />
      <stop
         offset="100%"
         stop-color="#48C9B0"
         id="stop184" />
    </linearGradient>
    <linearGradient
       id="Gradient_36"
       gradientUnits="userSpaceOnUse"
       x1="1114.8"
       y1="317.77500000000003"
       x2="1114.8"
       y2="343.425"
       spreadMethod="pad">
      <stop
         offset="0%"
         stop-color="#F1F2F2"
         id="stop187" />
      <stop
         offset="100%"
         stop-color="#D1D3D4"
         id="stop189" />
    </linearGradient>
    <linearGradient
       id="Gradient_37"
       gradientUnits="userSpaceOnUse"
       x1="1114.8"
       y1="320.625"
       x2="1114.8"
       y2="340.57500000000005"
       spreadMethod="pad">
      <stop
         offset="0%"
         stop-color="#D1D3D4"
         id="stop192" />
      <stop
         offset="100%"
         stop-color="#F1F2F2"
         id="stop194" />
    </linearGradient>
    <linearGradient
       id="Gradient_38"
       gradientUnits="userSpaceOnUse"
       x1="1110.5"
       y1="365.1375"
       x2="1110.5"
       y2="390.7625"
       spreadMethod="pad">
      <stop
         offset="0%"
         stop-color="#F1F2F2"
         id="stop197" />
      <stop
         offset="100%"
         stop-color="#D1D3D4"
         id="stop199" />
    </linearGradient>
    <linearGradient
       id="Gradient_39"
       gradientUnits="userSpaceOnUse"
       x1="1110.5"
       y1="367.97499999999997"
       x2="1110.5"
       y2="387.925"
       spreadMethod="pad">
      <stop
         offset="0%"
         stop-color="#D1D3D4"
         id="stop202" />
      <stop
         offset="100%"
         stop-color="#F1F2F2"
         id="stop204" />
    </linearGradient>
    <linearGradient
       id="Gradient_40"
       gradientUnits="userSpaceOnUse"
       x1="1110.5"
       y1="265.7875"
       x2="1110.5"
       y2="291.4125"
       spreadMethod="pad">
      <stop
         offset="0%"
         stop-color="#F1F2F2"
         id="stop207" />
      <stop
         offset="100%"
         stop-color="#D1D3D4"
         id="stop209" />
    </linearGradient>
    <linearGradient
       id="Gradient_41"
       gradientUnits="userSpaceOnUse"
       x1="1110.5"
       y1="268.625"
       x2="1110.5"
       y2="288.57500000000005"
       spreadMethod="pad">
      <stop
         offset="0%"
         stop-color="#D1D3D4"
         id="stop212" />
      <stop
         offset="100%"
         stop-color="#F1F2F2"
         id="stop214" />
    </linearGradient>
    <linearGradient
       id="Gradient_42"
       gradientUnits="userSpaceOnUse"
       x1="78.27499999999999"
       y1="652.5"
       x2="223.625"
       y2="652.5"
       spreadMethod="pad">
      <stop
         offset="0%"
         stop-color="#A4D165"
         id="stop217" />
      <stop
         offset="100%"
         stop-color="#8DC63F"
         id="stop219" />
    </linearGradient>
    <linearGradient
       id="Gradient_43"
       gradientUnits="userSpaceOnUse"
       x1="81.13749999999999"
       y1="652.5"
       x2="220.7625"
       y2="652.5"
       spreadMethod="pad">
      <stop
         offset="0%"
         stop-color="#8DC63F"
         id="stop222" />
      <stop
         offset="100%"
         stop-color="#A4D165"
         id="stop224" />
    </linearGradient>
    <linearGradient
       id="Gradient_44"
       gradientUnits="userSpaceOnUse"
       x1="95.38749999999999"
       y1="652.5"
       x2="206.5125"
       y2="652.5"
       spreadMethod="pad">
      <stop
         offset="0%"
         stop-color="#F1F2F2"
         id="stop227" />
      <stop
         offset="100%"
         stop-color="#D1D3D4"
         id="stop229" />
    </linearGradient>
    <linearGradient
       id="Gradient_45"
       gradientUnits="userSpaceOnUse"
       x1="98.2875"
       y1="652.5"
       x2="203.7125"
       y2="652.5"
       spreadMethod="pad">
      <stop
         offset="0%"
         stop-color="#D1D3D4"
         id="stop232" />
      <stop
         offset="100%"
         stop-color="#F1F2F2"
         id="stop234" />
    </linearGradient>
    <linearGradient
       id="Gradient_46"
       gradientUnits="userSpaceOnUse"
       x1="278.27500000000003"
       y1="656.1"
       x2="412.925"
       y2="656.1"
       spreadMethod="pad">
      <stop
         offset="0%"
         stop-color="#F379A4"
         id="stop237" />
      <stop
         offset="100%"
         stop-color="#F0588D"
         id="stop239" />
    </linearGradient>
    <linearGradient
       id="Gradient_47"
       gradientUnits="userSpaceOnUse"
       x1="281.125"
       y1="656.1"
       x2="410.07500000000005"
       y2="656.1"
       spreadMethod="pad">
      <stop
         offset="0%"
         stop-color="#F0588D"
         id="stop242" />
      <stop
         offset="100%"
         stop-color="#F379A4"
         id="stop244" />
    </linearGradient>
    <linearGradient
       id="Gradient_48"
       gradientUnits="userSpaceOnUse"
       x1="295.9875"
       y1="657.7"
       x2="395.6125"
       y2="657.7"
       spreadMethod="pad">
      <stop
         offset="0%"
         stop-color="#F1F2F2"
         id="stop247" />
      <stop
         offset="100%"
         stop-color="#D1D3D4"
         id="stop249" />
    </linearGradient>
    <linearGradient
       id="Gradient_49"
       gradientUnits="userSpaceOnUse"
       x1="299.9875"
       y1="658.2"
       x2="391.6125"
       y2="658.2"
       spreadMethod="pad">
      <stop
         offset="0%"
         stop-color="#D1D3D4"
         id="stop252" />
      <stop
         offset="100%"
         stop-color="#F1F2F2"
         id="stop254" />
    </linearGradient>
    <linearGradient
       id="Gradient_50"
       gradientUnits="userSpaceOnUse"
       x1="469.05"
       y1="657.35"
       x2="595.15"
       y2="657.35"
       spreadMethod="pad">
      <stop
         offset="0%"
         stop-color="#F2647E"
         id="stop257" />
      <stop
         offset="100%"
         stop-color="#EF3D5E"
         id="stop259" />
    </linearGradient>
    <linearGradient
       id="Gradient_51"
       gradientUnits="userSpaceOnUse"
       x1="471.90000000000003"
       y1="657.35"
       x2="592.3000000000001"
       y2="657.35"
       spreadMethod="pad">
      <stop
         offset="0%"
         stop-color="#EF3D5E"
         id="stop262" />
      <stop
         offset="100%"
         stop-color="#F2647E"
         id="stop264" />
    </linearGradient>
    <linearGradient
       id="Gradient_52"
       gradientUnits="userSpaceOnUse"
       x1="486.15000000000003"
       y1="657.35"
       x2="578.0500000000001"
       y2="657.35"
       spreadMethod="pad">
      <stop
         offset="0%"
         stop-color="#F1F2F2"
         id="stop267" />
      <stop
         offset="100%"
         stop-color="#D1D3D4"
         id="stop269" />
    </linearGradient>
    <linearGradient
       id="Gradient_53"
       gradientUnits="userSpaceOnUse"
       x1="489"
       y1="657.35"
       x2="575.2"
       y2="657.35"
       spreadMethod="pad">
      <stop
         offset="0%"
         stop-color="#D1D3D4"
         id="stop272" />
      <stop
         offset="100%"
         stop-color="#F1F2F2"
         id="stop274" />
    </linearGradient>
    <linearGradient
       id="Gradient_102"
       gradientUnits="userSpaceOnUse"
       x1="1093.0749999999998"
       y1="-83.3"
       x2="1173.625"
       y2="-83.3"
       spreadMethod="pad">
      <stop
         offset="0%"
         stop-color="#4EB9F3"
         id="stop525" />
      <stop
         offset="100%"
         stop-color="#22A7F0"
         id="stop527" />
    </linearGradient>
    <linearGradient
       id="Gradient_103"
       gradientUnits="userSpaceOnUse"
       x1="-41.5375"
       y1="0"
       x2="41.5375"
       y2="0"
       spreadMethod="pad">
      <stop
         offset="0%"
         stop-color="#22A7F0"
         id="stop530" />
      <stop
         offset="100%"
         stop-color="#4EB9F3"
         id="stop532" />
    </linearGradient>
    <linearGradient
       id="Gradient_104"
       gradientUnits="userSpaceOnUse"
       x1="1103.0749999999998"
       y1="-83.3"
       x2="1163.625"
       y2="-83.3"
       spreadMethod="pad">
      <stop
         offset="0%"
         stop-color="#F1F2F2"
         id="stop535" />
      <stop
         offset="100%"
         stop-color="#D1D3D4"
         id="stop537" />
    </linearGradient>
    <linearGradient
       id="Gradient_105"
       gradientUnits="userSpaceOnUse"
       x1="1103.0749999999998"
       y1="-83.3"
       x2="1163.625"
       y2="-83.3"
       spreadMethod="pad">
      <stop
         offset="0%"
         stop-color="#D1D3D4"
         id="stop540" />
      <stop
         offset="100%"
         stop-color="#F1F2F2"
         id="stop542" />
    </linearGradient>
    <linearGradient
       inkscape:collect="always"
       xlink:href="#Gradient_102"
       id="linearGradient2513"
       gradientUnits="userSpaceOnUse"
       x1="1093.0749999999998"
       y1="-83.3"
       x2="1173.625"
       y2="-83.3"
       spreadMethod="pad" />
    <linearGradient
       inkscape:collect="always"
       xlink:href="#Gradient_103"
       id="linearGradient2519"
       gradientUnits="userSpaceOnUse"
       x1="-41.5375"
       y1="0"
       x2="41.5375"
       y2="0"
       spreadMethod="pad" />
    <linearGradient
       inkscape:collect="always"
       xlink:href="#Gradient_104"
       id="linearGradient2529"
       gradientUnits="userSpaceOnUse"
       x1="1103.0749999999998"
       y1="-83.3"
       x2="1163.625"
       y2="-83.3"
       spreadMethod="pad" />
    <linearGradient
       inkscape:collect="always"
       xlink:href="#Gradient_105"
       id="linearGradient2535"
       gradientUnits="userSpaceOnUse"
       x1="1103.0749999999998"
       y1="-83.3"
       x2="1163.625"
       y2="-83.3"
       spreadMethod="pad" />
  </defs>
  <g
     transform="matrix(0.88057561,0,0,0.87898093,69.952306,70.00073)"
     id="g3712">
    <g
       transform="matrix(1.5233459,0,0,1.5223846,374.2,-515.65)"
       id="g3710">
      <g
         id="use3706">
        <path
           style="fill:#ffffff;fill-opacity:0.87843137;stroke:none"
           inkscape:connector-curvature="0"
           id="path76"
           d="m -296.85,377.05 q 0,13 13,13 h 76.4 q 13,0 13,-13 V 300.4 q 0,-13 -13,-13 h -76.4 q -13,0 -13,13 z" />
      </g>
      <path
         inkscape:connector-curvature="0"
         d="m -283.80644,287.38827 h 76.39984 q 12.99998,0 12.99998,12.99992 v 76.64955 q 0,12.99992 -12.99998,12.99992 h -76.39984 q -12.99997,0 -12.99997,-12.99992 v -76.64955 q 0,-12.99992 12.99997,-12.99992 z"
         id="use3708"
         style="fill:none;stroke:#ffffff;stroke-width:1.96996295;stroke-linecap:round;stroke-linejoin:round" />
    </g>
  </g>
  <g
     transform="translate(69.989693,69.983617)"
     id="g3480">
    <g
       transform="matrix(1.0316162,0,0,1.0316162,-1169.2,85.95)"
       id="g3462">
      <g
         id="use3460">
        <path
           style="fill:url(#linearGradient2513);stroke:none"
           inkscape:connector-curvature="0"
           id="path2509"
           d="m 1093.2,-117.5 v 0 q -0.498,7.8084 4.55,13.7 l 0.05,0.05 17.1,19.65 -17.55,21.45 -0.05,0.05 q -4.8287,6.033008 -4.1,13.7 v 0.05 q 0.6188,6.504883 5.1,11.1 0.4791,0.570117 1,1.1 5.5668,5.562891 13.35,5.55 h 42.2 q 3.076,0.0076 6.15,-1.05 5.6627,-1.818164 9.2,-6.9 l -0.05,0.05 q 3.5021,-4.947852 3.5,-10.95 -0.012,-7.734375 -5.35,-13.3 -0.066,-0.03223 -0.15,-0.15 -5.5168,-5.512891 -13.3,-5.5 h -3.6 l 1.9,-2.35 q 0.079,-0.03027 0.1,-0.1 4.607,-4.713086 5.3,-11.4 0.015,-0.165625 0,-0.35 0.5289,-7.830469 -4.6,-13.7 h 0.05 l -0.8,-0.9 h 1.65 q 3.076,0.0076 6.15,-1.05 5.6627,-1.81816 9.2,-6.9 l -0.05,0.05 q 3.5021,-4.94785 3.5,-10.95 -0.012,-7.73437 -5.35,-13.3 -0.066,-0.0322 -0.15,-0.15 -5.5168,-5.51289 -13.3,-5.5 h -42.2 q -6.8869,0.005 -12.05,4.4 -0.3447,0.25039 -0.65,0.5 -0.1518,0.14336 -0.35,0.25 -5.8568,5.1502 -6.4,12.85 z" />
      </g>
    </g>
    <g
       id="g3466">
      <g
         id="use3464">
        <path
           style="fill:url(#linearGradient2519);stroke:none"
           inkscape:connector-curvature="0"
           id="path2515"
           d="m 34.6,-46.5 q -0.1,-0.1 -0.15,-0.2 -5.1,-5.05 -12.25,-5.05 h -43.5 q -6.35,0 -11.1,4.05 -0.05,0.05 -0.1,0.1 -0.3,0.2 -0.6,0.4 -0.15,0.1 -0.3,0.3 -5.4,4.65 -5.85,11.8 -0.55,7.15 4.15,12.65 0.05,0.1 0.15,0.2 l 17.5,20.1 q 0.5,0.55 0.5,1.35 0,0.7 -0.45,1.35 l -18.05,22.1 -0.05,0.05 q -4.5,5.55 -3.8,12.65 0.55,6 4.65,10.25 0.05,0.05 0.1,0.1 0.45,0.55 0.95,1.05 V 46.7 q 5.1,5.1 12.3,5.1 h 43.5 q 2.85,0 5.75,-0.9 5.15,-1.8 8.4,-6.4 0.1,-0.2 0.2,-0.3 3,-4.4 3,-9.8 0,-7.1 -4.95,-12.2 Q 34.5,22.1 34.45,22 29.35,16.95 22.2,16.95 h -3.65 q -0.85,0 -1.45,-0.6 -0.55,-0.55 -0.6,-1.3 -0.1,-0.85 0.45,-1.45 l 1.95,-2.45 q 0.05,-0.05 0.1,-0.1 0.05,-0.1 0.15,-0.15 4.203516,-4.3853516 4.8,-10.45 0,-0.2 0.05,-0.35 0.5,-7.25 -4.2,-12.6 -0.1,-0.1 -0.2,-0.2 l -0.65,-0.8 q -0.55,-0.6 -0.5,-1.45 0.05,-0.8 0.65,-1.4 0.6,-0.55 1.4,-0.55 h 1.7 q 2.85,0 5.75,-0.95 5.15,-1.75 8.4,-6.4 0.1,-0.15 0.2,-0.25 3,-4.4 3,-9.8 0,-7.1 -4.95,-12.2 z" />
      </g>
    </g>
    <g
       transform="translate(-1126.8,86.45)"
       id="g3470">
      <g
         id="use3468">
        <path
           style="fill:#000000;fill-opacity:0.2;stroke:none"
           inkscape:connector-curvature="0"
           id="path2521"
           d="m 1112.65,-125.5 q -3.4,0 -5.9,2.3 -0.3,0.2 -0.55,0.4 -2.75,2.4 -3,6 -0.25,3.7 2.15,6.5 l 22.65,26 -22.9,28 q -2.3,2.85 -1.95,6.5 0.3,3.2 2.65,5.4 0.25,0.35 0.6,0.7 2.6,2.6 6.25,2.6 h 42.2 q 1.5,0 3,-0.5 2.55,-0.85 4.15,-3.15 1.65,-2.35 1.65,-5.2 0,-3.7 -2.55,-6.35 -2.6,-2.6 -6.25,-2.6 h -24.65 l 15.35,-18.8 q 0.15,-0.15 0.25,-0.3 2.45,-2.35 2.8,-5.75 0.25,-3.7 -2.15,-6.45 l -15.25,-17.5 h 23.65 q 1.5,0 3,-0.5 2.55,-0.85 4.15,-3.15 1.65,-2.35 1.65,-5.2 0,-3.7 -2.55,-6.35 -2.6,-2.6 -6.25,-2.6 z" />
      </g>
    </g>
    <g
       transform="translate(-1132.55,83.05)"
       id="g3474">
      <g
         id="use3472">
        <path
           style="fill:url(#linearGradient2529);stroke:none"
           inkscape:connector-curvature="0"
           id="path2525"
           d="m 1112.65,-125.5 q -3.4,0 -5.9,2.3 -0.3,0.2 -0.55,0.4 -2.75,2.4 -3,6 -0.25,3.7 2.15,6.5 l 22.65,26 -22.9,28 q -2.3,2.85 -1.95,6.5 0.3,3.2 2.65,5.4 0.25,0.35 0.6,0.7 2.6,2.6 6.25,2.6 h 42.2 q 1.5,0 3,-0.5 2.55,-0.85 4.15,-3.15 1.65,-2.35 1.65,-5.2 0,-3.7 -2.55,-6.35 -2.6,-2.6 -6.25,-2.6 h -24.65 l 15.35,-18.8 q 0.15,-0.15 0.25,-0.3 2.45,-2.35 2.8,-5.75 0.25,-3.7 -2.15,-6.45 l -15.25,-17.5 h 23.65 q 1.5,0 3,-0.5 2.55,-0.85 4.15,-3.15 1.65,-2.35 1.65,-5.2 0,-3.7 -2.55,-6.35 -2.6,-2.6 -6.25,-2.6 z" />
      </g>
    </g>
    <g
       transform="translate(-1133.05,83.1)"
       id="g3478">
      <g
         id="use3476">
        <path
           style="fill:url(#linearGradient2535);stroke:none"
           inkscape:connector-curvature="0"
           id="path2531"
           d="m 1112.65,-123.5 q -2.6219,0.001 -4.55,1.75 -0.1207,0.1332 -0.25,0.2 -0.1758,0.13574 -0.35,0.25 -2.1012,1.8625 -2.3,4.65 -0.1861,2.85527 1.65,5 v 0.05 l 22.65,25.95 q 0.4854,0.590234 0.5,1.3 0.013,0.752734 -0.45,1.3 l -22.9,28 v 0 q -1.7803,2.214063 -1.5,5.05 v 0 q 0.2293,2.469531 2,4.15 0.1643,0.141016 0.25,0.3 0.1936,0.211719 0.4,0.4 2.0314,2.042187 4.85,2.05 h 42.2 q 1.1873,-0.0041 2.35,-0.4 1.9449,-0.653906 3.15,-2.4 v 0 q 1.3045,-1.830469 1.3,-4.05 0,-2.898047 -2,-5 v 0.05 q -1.9816,-1.992383 -4.8,-2 h -24.65 q -0.7936,-0.0049 -1.4,-0.55 -0.5492,-0.540625 -0.6,-1.35 -0.052,-0.75918 0.45,-1.4 L 1144,-79 q 0.061,-0.05137 0.1,-0.15 v 0.05 q 0.157,-0.186914 0.3,-0.35 1.9371,-1.837891 2.2,-4.5 0.1801,-2.82168 -1.65,-4.95 l -15.25,-17.5 q -0.5324,-0.59453 -0.5,-1.4 0.04,-0.79473 0.6,-1.35 0.6031,-0.55313 1.4,-0.55 h 23.65 q 1.1873,-0.004 2.35,-0.4 1.9449,-0.65391 3.15,-2.4 v 0 q 1.3045,-1.83047 1.3,-4.05 0,-2.89805 -2,-5 v 0.05 q -1.9816,-1.99238 -4.8,-2 z" />
      </g>
    </g>
  </g>
</svg>
