<?xml version="1.0" encoding="UTF-8" standalone="no"?>
<svg
   xmlns:dc="http://purl.org/dc/elements/1.1/"
   xmlns:cc="http://creativecommons.org/ns#"
   xmlns:rdf="http://www.w3.org/1999/02/22-rdf-syntax-ns#"
   xmlns:svg="http://www.w3.org/2000/svg"
   xmlns="http://www.w3.org/2000/svg"
   id="svg26"
   version="1.1"
   viewBox="0 0 100 100"
   height="100"
   width="100">
  <metadata
     id="metadata32">
    <rdf:RDF>
      <cc:Work
         rdf:about="">
        <dc:format>image/svg+xml</dc:format>
        <dc:type
           rdf:resource="http://purl.org/dc/dcmitype/StillImage" />
      </cc:Work>
    </rdf:RDF>
  </metadata>
  <defs
     id="defs30" />
  <title
     id="title2">Φ</title>
  <rect
     id="rect4"
     style="fill: #ffffff"
     stroke-width="4"
     opacity="0.90"
     stroke="#ffffff"
     ry="10"
     rx="10"
     height="96"
     width="96"
     y="2"
     x="2" />
  <g
     id="g24"
     style="font-weight:bold;font-size:96px;font-family:'Comics Sans MS', Helvetica, sans-serif;text-anchor:middle;overflow:hidden">
    <defs
       id="defs16">
      <filter
         id="shadow">
        <feGaussianBlur
           id="feGaussianBlur6"
           result="shadow"
           stdDeviation="2 2" />
        <feOffset
           id="feOffset8"
           dy="1"
           dx="1" />
      </filter>
      <filter
         id="innerShadow">
        <feGaussianBlur
           id="feGaussianBlur11"
           result="blur"
           stdDeviation="0.5"
           in="SourceGraphic" />
        <feOffset
           id="feOffset13"
           dy="0"
           dx="0"
           in="blur" />
      </filter>
    </defs>
    <g
       id="text18"
       style="opacity:0.5;fill:#104020;filter:url(#shadow)"
       aria-label="Φ">
      <path
         id="path34"
         style="opacity:0.5;fill:#104020;filter:url(#shadow)"
         d="M 41,37.8125 Q 38.84375,38.703125 37.203125,40.109375 32.65625,44 32.65625,51.078125 32.65625,58.296875 37.203125,62 38.796875,63.40625 41,64.296875 Z M 59.046875,64.296875 Q 61.25,63.40625 62.84375,62 q 4.546875,-4.265625 4.546875,-10.921875 0,-6.890625 -4.546875,-10.96875 -1.546875,-1.40625 -3.796875,-2.296875 z M 41,78.40625 Q 30.453125,76.90625 23.5625,71.5625 14,64.15625 14,51.078125 q 0,-13.125 9.5625,-20.53125 6.890625,-5.34375 17.4375,-6.84375 v -7.6875 h 18.046875 v 7.6875 q 10.546875,1.5 17.390625,6.84375 Q 86,37.953125 86,51.078125 86,64.15625 76.4375,71.5625 69.59375,76.859375 59.046875,78.40625 V 86 H 41 Z" />
    </g>
    <g
       id="text20"
       style="fill:#000040;stroke:#102030;stroke-width:3"
       aria-label="Φ">
      <path
         id="path37"
         style="fill:#000040;stroke:#102030;stroke-width:3"
         d="M 41,37.8125 Q 38.84375,38.703125 37.203125,40.109375 32.65625,44 32.65625,51.078125 32.65625,58.296875 37.203125,62 38.796875,63.40625 41,64.296875 Z M 59.046875,64.296875 Q 61.25,63.40625 62.84375,62 q 4.546875,-4.265625 4.546875,-10.921875 0,-6.890625 -4.546875,-10.96875 -1.546875,-1.40625 -3.796875,-2.296875 z M 41,78.40625 Q 30.453125,76.90625 23.5625,71.5625 14,64.15625 14,51.078125 q 0,-13.125 9.5625,-20.53125 6.890625,-5.34375 17.4375,-6.84375 v -7.6875 h 18.046875 v 7.6875 q 10.546875,1.5 17.390625,6.84375 Q 86,37.953125 86,51.078125 86,64.15625 76.4375,71.5625 69.59375,76.859375 59.046875,78.40625 V 86 H 41 Z" />
    </g>
    <g
       id="text22"
       style="fill:#5cc067;filter:url(#innerShadow)"
       aria-label="Φ">
      <path
         id="path40"
         style="fill:#5cc067;filter:url(#innerShadow)"
         d="M 41,37.8125 Q 38.84375,38.703125 37.203125,40.109375 32.65625,44 32.65625,51.078125 32.65625,58.296875 37.203125,62 38.796875,63.40625 41,64.296875 Z M 59.046875,64.296875 Q 61.25,63.40625 62.84375,62 q 4.546875,-4.265625 4.546875,-10.921875 0,-6.890625 -4.546875,-10.96875 -1.546875,-1.40625 -3.796875,-2.296875 z M 41,78.40625 Q 30.453125,76.90625 23.5625,71.5625 14,64.15625 14,51.078125 q 0,-13.125 9.5625,-20.53125 6.890625,-5.34375 17.4375,-6.84375 v -7.6875 h 18.046875 v 7.6875 q 10.546875,1.5 17.390625,6.84375 Q 86,37.953125 86,51.078125 86,64.15625 76.4375,71.5625 69.59375,76.859375 59.046875,78.40625 V 86 H 41 Z" />
    </g>
  </g>
</svg>
