<?xml version="1.0" encoding="UTF-8" standalone="no"?>
<svg
   xmlns:dc="http://purl.org/dc/elements/1.1/"
   xmlns:cc="http://creativecommons.org/ns#"
   xmlns:rdf="http://www.w3.org/1999/02/22-rdf-syntax-ns#"
   xmlns:svg="http://www.w3.org/2000/svg"
   xmlns="http://www.w3.org/2000/svg"
   id="svg26"
   version="1.1"
   viewBox="0 0 100 100"
   height="100"
   width="100">
  <metadata
     id="metadata32">
    <rdf:RDF>
      <cc:Work
         rdf:about="">
        <dc:format>image/svg+xml</dc:format>
        <dc:type
           rdf:resource="http://purl.org/dc/dcmitype/StillImage" />
      </cc:Work>
    </rdf:RDF>
  </metadata>
  <defs
     id="defs30" />
  <title
     id="title2">Ψ</title>
  <rect
     id="rect4"
     style="fill: #ffffff"
     stroke-width="4"
     opacity="0.90"
     stroke="#ffffff"
     ry="10"
     rx="10"
     height="96"
     width="96"
     y="2"
     x="2" />
  <g
     id="g24"
     style="font-weight:bold;font-size:96px;font-family:'Comics Sans MS', Helvetica, sans-serif;text-anchor:middle;overflow:hidden">
    <defs
       id="defs16">
      <filter
         id="shadow">
        <feGaussianBlur
           id="feGaussianBlur6"
           result="shadow"
           stdDeviation="2 2" />
        <feOffset
           id="feOffset8"
           dy="1"
           dx="1" />
      </filter>
      <filter
         id="innerShadow">
        <feGaussianBlur
           id="feGaussianBlur11"
           result="blur"
           stdDeviation="0.5"
           in="SourceGraphic" />
        <feOffset
           id="feOffset13"
           dy="0"
           dx="0"
           in="blur" />
      </filter>
    </defs>
    <g
       id="text18"
       style="opacity:0.5;fill:#104020;filter:url(#shadow)"
       aria-label="Ψ">
      <path
         id="path34"
         style="opacity:0.5;fill:#104020;filter:url(#shadow)"
         d="M 41.046875,86 V 71.46875 q -8.625,0 -17.53125,-9.75 -8.90625,-9.796875 -8.90625,-26.53125 V 16.015625 h 18 v 16.40625 q 0,11.4375 2.015625,15.1875 3.890625,7.078125 6.421875,7.078125 V 16.015625 h 18 V 54.6875 q 2.578125,0 6.421875,-7.078125 2.0625,-3.75 2.0625,-15.1875 v -16.40625 h 18 V 35.1875 q 0,16.59375 -8.859375,26.4375 -8.8125,9.84375 -17.625,9.84375 V 86 Z" />
    </g>
    <g
       id="text20"
       style="fill:#000040;stroke:#102030;stroke-width:3"
       aria-label="Ψ">
      <path
         id="path37"
         style="fill:#000040;stroke:#102030;stroke-width:3"
         d="M 41.046875,86 V 71.46875 q -8.625,0 -17.53125,-9.75 -8.90625,-9.796875 -8.90625,-26.53125 V 16.015625 h 18 v 16.40625 q 0,11.4375 2.015625,15.1875 3.890625,7.078125 6.421875,7.078125 V 16.015625 h 18 V 54.6875 q 2.578125,0 6.421875,-7.078125 2.0625,-3.75 2.0625,-15.1875 v -16.40625 h 18 V 35.1875 q 0,16.59375 -8.859375,26.4375 -8.8125,9.84375 -17.625,9.84375 V 86 Z" />
    </g>
    <g
       id="text22"
       style="fill:#5cc067;filter:url(#innerShadow)"
       aria-label="Ψ">
      <path
         id="path40"
         style="fill:#5cc067;filter:url(#innerShadow)"
         d="M 41.046875,86 V 71.46875 q -8.625,0 -17.53125,-9.75 -8.90625,-9.796875 -8.90625,-26.53125 V 16.015625 h 18 v 16.40625 q 0,11.4375 2.015625,15.1875 3.890625,7.078125 6.421875,7.078125 V 16.015625 h 18 V 54.6875 q 2.578125,0 6.421875,-7.078125 2.0625,-3.75 2.0625,-15.1875 v -16.40625 h 18 V 35.1875 q 0,16.59375 -8.859375,26.4375 -8.8125,9.84375 -17.625,9.84375 V 86 Z" />
    </g>
  </g>
</svg>
