<?xml version="1.0" encoding="UTF-8" standalone="no"?>
<svg
   xmlns:dc="http://purl.org/dc/elements/1.1/"
   xmlns:cc="http://creativecommons.org/ns#"
   xmlns:rdf="http://www.w3.org/1999/02/22-rdf-syntax-ns#"
   xmlns:svg="http://www.w3.org/2000/svg"
   xmlns="http://www.w3.org/2000/svg"
   id="svg26"
   version="1.1"
   viewBox="0 0 100 100"
   height="100"
   width="100">
  <metadata
     id="metadata32">
    <rdf:RDF>
      <cc:Work
         rdf:about="">
        <dc:format>image/svg+xml</dc:format>
        <dc:type
           rdf:resource="http://purl.org/dc/dcmitype/StillImage" />
      </cc:Work>
    </rdf:RDF>
  </metadata>
  <defs
     id="defs30" />
  <title
     id="title2">立</title>
  <rect
     id="rect4"
     style="fill: #ffffff"
     stroke-width="4"
     opacity="0.90"
     stroke="#ffffff"
     ry="10"
     rx="10"
     height="96"
     width="96"
     y="2"
     x="2" />
  <g
     id="g24"
     style="font-weight:bold;font-size:96px;font-family:'Comics Sans MS', Helvetica, sans-serif;text-anchor:middle;overflow:hidden">
    <defs
       id="defs16">
      <filter
         id="shadow">
        <feGaussianBlur
           id="feGaussianBlur6"
           result="shadow"
           stdDeviation="2 2" />
        <feOffset
           id="feOffset8"
           dy="1"
           dx="1" />
      </filter>
      <filter
         id="innerShadow">
        <feGaussianBlur
           id="feGaussianBlur11"
           result="blur"
           stdDeviation="0.5"
           in="SourceGraphic" />
        <feOffset
           id="feOffset13"
           dy="0"
           dx="0"
           in="blur" />
      </filter>
    </defs>
    <g
       id="text18"
       style="opacity:0.5;fill:#104020;filter:url(#shadow)"
       aria-label="立">
      <path
         id="path34"
         style="opacity:0.5;fill:#104020;filter:url(#shadow)"
         d="m 50,14.75 q 16.828125,0 26.390625,9.65625 Q 86,34.0625 86,48.59375 86,64.90625 73.8125,72.359375 H 88.203125 V 86 H 56.09375 V 71.375 q 1.78125,-0.984375 3.140625,-2.34375 8.109375,-8.203125 8.109375,-20.015625 0,-9 -4.546875,-15.09375 Q 58.25,27.828125 50,27.828125 q -8.25,0 -12.796875,6.09375 -4.546875,6.09375 -4.546875,15.09375 0,11.8125 8.109375,20.015625 Q 42.125,70.390625 43.90625,71.375 V 86 H 11.796875 V 72.359375 H 26.1875 Q 14,64.90625 14,48.59375 14,34.0625 23.5625,24.40625 33.171875,14.75 50,14.75 Z" />
    </g>
    <g
       id="text20"
       style="fill:#000040;stroke:#102030;stroke-width:3"
       aria-label="立">
      <path
         id="path37"
         style="fill:#000040;stroke:#102030;stroke-width:3"
         d="m 50,14.75 q 16.828125,0 26.390625,9.65625 Q 86,34.0625 86,48.59375 86,64.90625 73.8125,72.359375 H 88.203125 V 86 H 56.09375 V 71.375 q 1.78125,-0.984375 3.140625,-2.34375 8.109375,-8.203125 8.109375,-20.015625 0,-9 -4.546875,-15.09375 Q 58.25,27.828125 50,27.828125 q -8.25,0 -12.796875,6.09375 -4.546875,6.09375 -4.546875,15.09375 0,11.8125 8.109375,20.015625 Q 42.125,70.390625 43.90625,71.375 V 86 H 11.796875 V 72.359375 H 26.1875 Q 14,64.90625 14,48.59375 14,34.0625 23.5625,24.40625 33.171875,14.75 50,14.75 Z" />
    </g>
    <g
       id="text22"
       style="fill:#5cc067;filter:url(#innerShadow)"
       aria-label="立">
      <path
         id="path40"
         style="fill:#5cc067;filter:url(#innerShadow)"
         d="m 50,14.75 q 16.828125,0 26.390625,9.65625 Q 86,34.0625 86,48.59375 86,64.90625 73.8125,72.359375 H 88.203125 V 86 H 56.09375 V 71.375 q 1.78125,-0.984375 3.140625,-2.34375 8.109375,-8.203125 8.109375,-20.015625 0,-9 -4.546875,-15.09375 Q 58.25,27.828125 50,27.828125 q -8.25,0 -12.796875,6.09375 -4.546875,6.09375 -4.546875,15.09375 0,11.8125 8.109375,20.015625 Q 42.125,70.390625 43.90625,71.375 V 86 H 11.796875 V 72.359375 H 26.1875 Q 14,64.90625 14,48.59375 14,34.0625 23.5625,24.40625 33.171875,14.75 50,14.75 Z" />
    </g>
  </g>
</svg>
