<?xml version="1.0" encoding="UTF-8" standalone="no"?>
<svg
   xmlns:dc="http://purl.org/dc/elements/1.1/"
   xmlns:cc="http://creativecommons.org/ns#"
   xmlns:rdf="http://www.w3.org/1999/02/22-rdf-syntax-ns#"
   xmlns:svg="http://www.w3.org/2000/svg"
   xmlns="http://www.w3.org/2000/svg"
   xmlns:xlink="http://www.w3.org/1999/xlink"
   xmlns:sodipodi="http://sodipodi.sourceforge.net/DTD/sodipodi-0.dtd"
   xmlns:inkscape="http://www.inkscape.org/namespaces/inkscape"
   id="svg26"
   version="1.1"
   viewBox="0 0 140 140"
   height="140"
   width="140"
   sodipodi:docname="l4.svg"
   inkscape:version="0.92.3 (2405546, 2018-03-11)">
  <sodipodi:namedview
     pagecolor="#ffffff"
     bordercolor="#666666"
     borderopacity="1"
     objecttolerance="10"
     gridtolerance="10"
     guidetolerance="10"
     inkscape:pageopacity="0"
     inkscape:pageshadow="2"
     inkscape:window-width="1920"
     inkscape:window-height="1024"
     id="namedview21"
     showgrid="false"
     inkscape:zoom="5.7928571"
     inkscape:cx="30.123304"
     inkscape:cy="70"
     inkscape:window-x="0"
     inkscape:window-y="0"
     inkscape:window-maximized="1"
     inkscape:current-layer="svg26"
     inkscape:pagecheckerboard="true" />
  <metadata
     id="metadata32">
    <rdf:RDF>
      <cc:Work
         rdf:about="">
        <dc:format>image/svg+xml</dc:format>
        <dc:type
           rdf:resource="http://purl.org/dc/dcmitype/StillImage" />
        <dc:title></dc:title>
        <cc:license
           rdf:resource="http://creativecommons.org/licenses/by-sa/4.0/" />
      </cc:Work>
      <cc:License
         rdf:about="http://creativecommons.org/licenses/by-sa/4.0/">
        <cc:permits
           rdf:resource="http://creativecommons.org/ns#Reproduction" />
        <cc:permits
           rdf:resource="http://creativecommons.org/ns#Distribution" />
        <cc:requires
           rdf:resource="http://creativecommons.org/ns#Notice" />
        <cc:requires
           rdf:resource="http://creativecommons.org/ns#Attribution" />
        <cc:permits
           rdf:resource="http://creativecommons.org/ns#DerivativeWorks" />
        <cc:requires
           rdf:resource="http://creativecommons.org/ns#ShareAlike" />
      </cc:License>
    </rdf:RDF>
  </metadata>
  <defs
     id="defs30">
    <linearGradient
       id="Gradient_74"
       gradientUnits="userSpaceOnUse"
       x1="52.4375"
       y1="167.14999"
       x2="197.7625"
       y2="167.14999"
       spreadMethod="pad">
      <stop
         offset="0%"
         stop-color="#4EB9F3"
         id="stop381" />
      <stop
         offset="100%"
         stop-color="#22A7F0"
         id="stop383" />
    </linearGradient>
    <linearGradient
       id="Gradient_75"
       gradientUnits="userSpaceOnUse"
       x1="55.287498"
       y1="167.14999"
       x2="194.91251"
       y2="167.14999"
       spreadMethod="pad">
      <stop
         offset="0%"
         stop-color="#22A7F0"
         id="stop386" />
      <stop
         offset="100%"
         stop-color="#4EB9F3"
         id="stop388" />
    </linearGradient>
    <linearGradient
       id="Gradient_76"
       gradientUnits="userSpaceOnUse"
       x1="69.525002"
       y1="167.14999"
       x2="180.675"
       y2="167.14999"
       spreadMethod="pad">
      <stop
         offset="0%"
         stop-color="#F1F2F2"
         id="stop391" />
      <stop
         offset="100%"
         stop-color="#D1D3D4"
         id="stop393" />
    </linearGradient>
    <linearGradient
       id="Gradient_77"
       gradientUnits="userSpaceOnUse"
       x1="72.387497"
       y1="167.14999"
       x2="177.8125"
       y2="167.14999"
       spreadMethod="pad">
      <stop
         offset="0%"
         stop-color="#D1D3D4"
         id="stop396" />
      <stop
         offset="100%"
         stop-color="#F1F2F2"
         id="stop398" />
    </linearGradient>
    <linearGradient
       id="Gradient_78"
       gradientUnits="userSpaceOnUse"
       x1="226.9125"
       y1="170.65"
       x2="346.5875"
       y2="170.65"
       spreadMethod="pad">
      <stop
         offset="0%"
         stop-color="#EB984E"
         id="stop401" />
      <stop
         offset="100%"
         stop-color="#E67E22"
         id="stop403" />
    </linearGradient>
    <linearGradient
       id="Gradient_79"
       gradientUnits="userSpaceOnUse"
       x1="229.7625"
       y1="170.65"
       x2="343.7375"
       y2="170.65"
       spreadMethod="pad">
      <stop
         offset="0%"
         stop-color="#E67E22"
         id="stop406" />
      <stop
         offset="100%"
         stop-color="#EB984E"
         id="stop408" />
    </linearGradient>
    <linearGradient
       id="Gradient_80"
       gradientUnits="userSpaceOnUse"
       x1="244.0125"
       y1="170.65"
       x2="329.4875"
       y2="170.65"
       spreadMethod="pad">
      <stop
         offset="0%"
         stop-color="#F1F2F2"
         id="stop411" />
      <stop
         offset="100%"
         stop-color="#D1D3D4"
         id="stop413" />
    </linearGradient>
    <linearGradient
       id="Gradient_81"
       gradientUnits="userSpaceOnUse"
       x1="246.8625"
       y1="170.65"
       x2="326.6375"
       y2="170.65"
       spreadMethod="pad">
      <stop
         offset="0%"
         stop-color="#D1D3D4"
         id="stop416" />
      <stop
         offset="100%"
         stop-color="#F1F2F2"
         id="stop418" />
    </linearGradient>
    <linearGradient
       id="Gradient_82"
       gradientUnits="userSpaceOnUse"
       x1="389.96250000000003"
       y1="172.9"
       x2="503.2375"
       y2="172.9"
       spreadMethod="pad">
      <stop
         offset="0%"
         stop-color="#AF7AC5"
         id="stop421" />
      <stop
         offset="100%"
         stop-color="#9B59B6"
         id="stop423" />
    </linearGradient>
    <linearGradient
       id="Gradient_83"
       gradientUnits="userSpaceOnUse"
       x1="392.8125"
       y1="172.9"
       x2="500.38750000000005"
       y2="172.9"
       spreadMethod="pad">
      <stop
         offset="0%"
         stop-color="#9B59B6"
         id="stop426" />
      <stop
         offset="100%"
         stop-color="#AF7AC5"
         id="stop428" />
    </linearGradient>
    <linearGradient
       id="Gradient_84"
       gradientUnits="userSpaceOnUse"
       x1="407.0625"
       y1="172.9"
       x2="486.13750000000005"
       y2="172.9"
       spreadMethod="pad">
      <stop
         offset="0%"
         stop-color="#F1F2F2"
         id="stop431" />
      <stop
         offset="100%"
         stop-color="#D1D3D4"
         id="stop433" />
    </linearGradient>
    <linearGradient
       id="Gradient_85"
       gradientUnits="userSpaceOnUse"
       x1="409.9125"
       y1="172.9"
       x2="483.2875"
       y2="172.9"
       spreadMethod="pad">
      <stop
         offset="0%"
         stop-color="#D1D3D4"
         id="stop436" />
      <stop
         offset="100%"
         stop-color="#F1F2F2"
         id="stop438" />
    </linearGradient>
    <linearGradient
       id="Gradient_86"
       gradientUnits="userSpaceOnUse"
       x1="525.7125"
       y1="176.25"
       x2="671.0875"
       y2="176.25"
       spreadMethod="pad">
      <stop
         offset="0%"
         stop-color="#FFC241"
         id="stop441" />
      <stop
         offset="100%"
         stop-color="#FFB312"
         id="stop443" />
    </linearGradient>
    <linearGradient
       id="Gradient_87"
       gradientUnits="userSpaceOnUse"
       x1="528.5625"
       y1="176.25"
       x2="668.2375"
       y2="176.25"
       spreadMethod="pad">
      <stop
         offset="0%"
         stop-color="#FFB312"
         id="stop446" />
      <stop
         offset="100%"
         stop-color="#FFC241"
         id="stop448" />
    </linearGradient>
    <linearGradient
       id="Gradient_88"
       gradientUnits="userSpaceOnUse"
       x1="541.4749999999999"
       y1="176.55"
       x2="652.625"
       y2="176.55"
       spreadMethod="pad">
      <stop
         offset="0%"
         stop-color="#F1F2F2"
         id="stop451" />
      <stop
         offset="100%"
         stop-color="#D1D3D4"
         id="stop453" />
    </linearGradient>
    <linearGradient
       id="Gradient_89"
       gradientUnits="userSpaceOnUse"
       x1="544.1625"
       y1="176.5"
       x2="649.6374999999999"
       y2="176.5"
       spreadMethod="pad">
      <stop
         offset="0%"
         stop-color="#D1D3D4"
         id="stop456" />
      <stop
         offset="100%"
         stop-color="#F1F2F2"
         id="stop458" />
    </linearGradient>
    <linearGradient
       id="Gradient_90"
       gradientUnits="userSpaceOnUse"
       x1="705.525"
       y1="170.65"
       x2="829.475"
       y2="170.65"
       spreadMethod="pad">
      <stop
         offset="0%"
         stop-color="#7B9BD3"
         id="stop461" />
      <stop
         offset="61.96078431372549%"
         stop-color="#6389CB"
         id="stop463" />
      <stop
         offset="100%"
         stop-color="#5A82C8"
         id="stop465" />
    </linearGradient>
    <linearGradient
       id="Gradient_91"
       gradientUnits="userSpaceOnUse"
       x1="708.375"
       y1="170.65"
       x2="826.625"
       y2="170.65"
       spreadMethod="pad">
      <stop
         offset="0%"
         stop-color="#5A82C8"
         id="stop468" />
      <stop
         offset="38.03921568627451%"
         stop-color="#6389CB"
         id="stop470" />
      <stop
         offset="100%"
         stop-color="#7B9BD3"
         id="stop472" />
    </linearGradient>
    <linearGradient
       id="Gradient_92"
       gradientUnits="userSpaceOnUse"
       x1="722.625"
       y1="170.65"
       x2="812.375"
       y2="170.65"
       spreadMethod="pad">
      <stop
         offset="0%"
         stop-color="#F1F2F2"
         id="stop475" />
      <stop
         offset="100%"
         stop-color="#D1D3D4"
         id="stop477" />
    </linearGradient>
    <linearGradient
       id="Gradient_93"
       gradientUnits="userSpaceOnUse"
       x1="725.475"
       y1="170.65"
       x2="809.525"
       y2="170.65"
       spreadMethod="pad">
      <stop
         offset="0%"
         stop-color="#D1D3D4"
         id="stop480" />
      <stop
         offset="100%"
         stop-color="#F1F2F2"
         id="stop482" />
    </linearGradient>
    <linearGradient
       inkscape:collect="always"
       xlink:href="#Gradient_90"
       id="linearGradient580"
       gradientUnits="userSpaceOnUse"
       x1="705.525"
       y1="170.65"
       x2="829.475"
       y2="170.65"
       spreadMethod="pad" />
    <linearGradient
       inkscape:collect="always"
       xlink:href="#Gradient_91"
       id="linearGradient586"
       gradientUnits="userSpaceOnUse"
       x1="708.375"
       y1="170.65"
       x2="826.625"
       y2="170.65"
       spreadMethod="pad" />
    <linearGradient
       inkscape:collect="always"
       xlink:href="#Gradient_92"
       id="linearGradient596"
       gradientUnits="userSpaceOnUse"
       x1="722.625"
       y1="170.65"
       x2="812.375"
       y2="170.65"
       spreadMethod="pad" />
    <linearGradient
       inkscape:collect="always"
       xlink:href="#Gradient_93"
       id="linearGradient602"
       gradientUnits="userSpaceOnUse"
       x1="725.475"
       y1="170.65"
       x2="809.525"
       y2="170.65"
       spreadMethod="pad" />
  </defs>
  <g
     transform="matrix(0.88057561,0,0,0.87898093,69.952306,70.00073)"
     id="g3712">
    <g
       transform="matrix(1.5233459,0,0,1.5223846,374.2,-515.65)"
       id="g3710">
      <g
         id="use3706">
        <path
           style="fill:#ffffff;fill-opacity:0.87843137;stroke:none"
           inkscape:connector-curvature="0"
           id="path76"
           d="m -296.85,377.05 q 0,13 13,13 h 76.4 q 13,0 13,-13 V 300.4 q 0,-13 -13,-13 h -76.4 q -13,0 -13,13 z" />
      </g>
      <path
         inkscape:connector-curvature="0"
         d="m -283.80644,287.38827 h 76.39984 q 12.99998,0 12.99998,12.99992 v 76.64955 q 0,12.99992 -12.99998,12.99992 h -76.39984 q -12.99997,0 -12.99997,-12.99992 v -76.64955 q 0,-12.99992 12.99997,-12.99992 z"
         id="use3708"
         style="fill:none;stroke:#ffffff;stroke-width:1.96996295;stroke-linecap:round;stroke-linejoin:round" />
    </g>
  </g>
  <g
     transform="matrix(0.65361023,0,0,0.65361023,70,70)"
     id="g3414">
    <g
       transform="translate(-767.5,-170.65)"
       id="g3396">
      <g
         id="use3394">
        <path
           style="fill:url(#linearGradient580);stroke:none"
           inkscape:connector-curvature="0"
           id="path576"
           d="m 823.05,139.65 q 6.45,-8.55 6.45,-19.6 0,-13.05 -8.8,-22.25 -8.75,-9.25 -21.15,-9.25 h -64.1 q -12.4,0 -21.15,9.25 -8.8,9.2 -8.8,22.25 v 101.2 q 0,13 8.8,22.25 8.8,9.25 21.15,9.25 h 64.1 q 12.35,0 21.15,-9.25 8.8,-9.25 8.8,-22.25 0,-11.05 -6.45,-19.65 -6.4,-8.4 -16.4,-10.95 6.8,-8.65 6.8,-20 0,-11.35 -6.8,-20 10,-2.55 16.4,-11 z" />
      </g>
    </g>
    <g
       transform="translate(-767.5,-170.65)"
       id="g3400">
      <g
         id="use3398">
        <path
           style="fill:url(#linearGradient586);stroke:none"
           inkscape:connector-curvature="0"
           id="path582"
           d="m 819.05,139.85 q 7.6,-8.3 7.6,-19.8 0,-11.8 -7.95,-20.15 -7.95,-8.35 -19.15,-8.35 h -64.1 q -11.2,0 -19.15,8.35 -7.95,8.35 -7.95,20.15 v 101.2 q 0,11.8 7.95,20.15 7.95,8.35 19.15,8.35 h 64.1 q 11.2,0 19.15,-8.35 7.95,-8.35 7.95,-20.15 0,-11.5 -7.6,-19.8 -7.6,-8.25 -18.5,-8.65 4.7,-4 7.35,-9.7 2.7,-5.85 2.7,-12.45 0,-6.6 -2.7,-12.45 -2.65,-5.7 -7.35,-9.7 10.9,-0.4 18.5,-8.65 z" />
      </g>
    </g>
    <g
       transform="translate(-758.7,-166)"
       id="g3404">
      <g
         id="use3402">
        <path
           style="fill:#000000;fill-opacity:0.2;stroke:none"
           inkscape:connector-curvature="0"
           id="path588"
           d="m 726.35,110.5 q -3.75,3.95 -3.75,9.55 v 101.2 q 0,5.6 3.75,9.55 3.8,3.95 9.1,3.95 h 64.1 q 5.3,0 9.1,-3.95 3.75,-3.95 3.75,-9.55 0,-5.6 -3.75,-9.55 -3.75,-3.95 -9.1,-3.95 h -51.3 v -23.6 h 35.3 q 5.3,0 9.05,-3.95 3.75,-3.95 3.75,-9.55 0,-5.6 -3.75,-9.55 -3.75,-3.95 -9.05,-3.95 h -35.3 v -23.6 h 51.3 q 5.3,0 9.1,-3.95 3.75,-3.95 3.75,-9.55 0,-5.6 -3.75,-9.55 -3.75,-3.95 -9.1,-3.95 h -64.1 q -5.35,0 -9.1,3.95 z" />
      </g>
    </g>
    <g
       transform="translate(-767.5,-170.65)"
       id="g3408">
      <g
         id="use3406">
        <path
           style="fill:url(#linearGradient596);stroke:none"
           inkscape:connector-curvature="0"
           id="path592"
           d="m 726.35,110.5 q -3.75,3.95 -3.75,9.55 v 101.2 q 0,5.6 3.75,9.55 3.8,3.95 9.1,3.95 h 64.1 q 5.3,0 9.1,-3.95 3.75,-3.95 3.75,-9.55 0,-5.6 -3.75,-9.55 -3.75,-3.95 -9.1,-3.95 h -51.3 v -23.6 h 35.3 q 5.3,0 9.05,-3.95 3.75,-3.95 3.75,-9.55 0,-5.6 -3.75,-9.55 -3.75,-3.95 -9.05,-3.95 h -35.3 v -23.6 h 51.3 q 5.3,0 9.1,-3.95 3.75,-3.95 3.75,-9.55 0,-5.6 -3.75,-9.55 -3.75,-3.95 -9.1,-3.95 h -64.1 q -5.35,0 -9.1,3.95 z" />
      </g>
    </g>
    <g
       transform="translate(-767.5,-170.65)"
       id="g3412">
      <g
         id="use3410">
        <path
           style="fill:url(#linearGradient602);stroke:none"
           inkscape:connector-curvature="0"
           id="path598"
           d="m 728.4,112.65 q -2.95,3.05 -2.95,7.4 v 101.2 q 0,4.3 2.95,7.4 2.95,3.1 7.05,3.1 h 64.1 q 4.1,0 7.05,-3.1 2.95,-3.1 2.95,-7.4 0,-4.35 -2.95,-7.4 -2.9,-3.1 -7.05,-3.1 H 745.4 v -29.6 h 38.15 q 4.15,0 7.05,-3.05 2.9,-3.1 2.9,-7.45 0,-4.35 -2.9,-7.4 -2.9,-3.1 -7.05,-3.1 H 745.4 v -29.6 h 54.15 q 4.1,0 7.05,-3.1 2.95,-3.1 2.95,-7.4 0,-4.35 -2.95,-7.4 -2.9,-3.1 -7.05,-3.1 h -64.1 q -4.15,0 -7.05,3.1 z" />
      </g>
    </g>
  </g>
</svg>
