<?xml version="1.0" encoding="UTF-8" standalone="no"?>
<svg
   xmlns:dc="http://purl.org/dc/elements/1.1/"
   xmlns:cc="http://creativecommons.org/ns#"
   xmlns:rdf="http://www.w3.org/1999/02/22-rdf-syntax-ns#"
   xmlns:svg="http://www.w3.org/2000/svg"
   xmlns="http://www.w3.org/2000/svg"
   xmlns:xlink="http://www.w3.org/1999/xlink"
   xmlns:sodipodi="http://sodipodi.sourceforge.net/DTD/sodipodi-0.dtd"
   xmlns:inkscape="http://www.inkscape.org/namespaces/inkscape"
   id="svg26"
   version="1.1"
   viewBox="0 0 140 140"
   height="140"
   width="140"
   sodipodi:docname="l6.svg"
   inkscape:version="0.92.3 (2405546, 2018-03-11)">
  <sodipodi:namedview
     pagecolor="#ffffff"
     bordercolor="#666666"
     borderopacity="1"
     objecttolerance="10"
     gridtolerance="10"
     guidetolerance="10"
     inkscape:pageopacity="0"
     inkscape:pageshadow="2"
     inkscape:window-width="1920"
     inkscape:window-height="1024"
     id="namedview21"
     showgrid="false"
     inkscape:zoom="5.7928571"
     inkscape:cx="30.123304"
     inkscape:cy="70"
     inkscape:window-x="0"
     inkscape:window-y="0"
     inkscape:window-maximized="1"
     inkscape:current-layer="svg26"
     inkscape:pagecheckerboard="true" />
  <metadata
     id="metadata32">
    <rdf:RDF>
      <cc:Work
         rdf:about="">
        <dc:format>image/svg+xml</dc:format>
        <dc:type
           rdf:resource="http://purl.org/dc/dcmitype/StillImage" />
        <dc:title></dc:title>
        <cc:license
           rdf:resource="http://creativecommons.org/licenses/by-sa/4.0/" />
      </cc:Work>
      <cc:License
         rdf:about="http://creativecommons.org/licenses/by-sa/4.0/">
        <cc:permits
           rdf:resource="http://creativecommons.org/ns#Reproduction" />
        <cc:permits
           rdf:resource="http://creativecommons.org/ns#Distribution" />
        <cc:requires
           rdf:resource="http://creativecommons.org/ns#Notice" />
        <cc:requires
           rdf:resource="http://creativecommons.org/ns#Attribution" />
        <cc:permits
           rdf:resource="http://creativecommons.org/ns#DerivativeWorks" />
        <cc:requires
           rdf:resource="http://creativecommons.org/ns#ShareAlike" />
      </cc:License>
    </rdf:RDF>
  </metadata>
  <defs
     id="defs30">
    <linearGradient
       id="Gradient_74"
       gradientUnits="userSpaceOnUse"
       x1="52.4375"
       y1="167.14999"
       x2="197.7625"
       y2="167.14999"
       spreadMethod="pad">
      <stop
         offset="0%"
         stop-color="#4EB9F3"
         id="stop381" />
      <stop
         offset="100%"
         stop-color="#22A7F0"
         id="stop383" />
    </linearGradient>
    <linearGradient
       id="Gradient_75"
       gradientUnits="userSpaceOnUse"
       x1="55.287498"
       y1="167.14999"
       x2="194.91251"
       y2="167.14999"
       spreadMethod="pad">
      <stop
         offset="0%"
         stop-color="#22A7F0"
         id="stop386" />
      <stop
         offset="100%"
         stop-color="#4EB9F3"
         id="stop388" />
    </linearGradient>
    <linearGradient
       id="Gradient_76"
       gradientUnits="userSpaceOnUse"
       x1="69.525002"
       y1="167.14999"
       x2="180.675"
       y2="167.14999"
       spreadMethod="pad">
      <stop
         offset="0%"
         stop-color="#F1F2F2"
         id="stop391" />
      <stop
         offset="100%"
         stop-color="#D1D3D4"
         id="stop393" />
    </linearGradient>
    <linearGradient
       id="Gradient_77"
       gradientUnits="userSpaceOnUse"
       x1="72.387497"
       y1="167.14999"
       x2="177.8125"
       y2="167.14999"
       spreadMethod="pad">
      <stop
         offset="0%"
         stop-color="#D1D3D4"
         id="stop396" />
      <stop
         offset="100%"
         stop-color="#F1F2F2"
         id="stop398" />
    </linearGradient>
    <linearGradient
       id="Gradient_78"
       gradientUnits="userSpaceOnUse"
       x1="226.9125"
       y1="170.65"
       x2="346.5875"
       y2="170.65"
       spreadMethod="pad">
      <stop
         offset="0%"
         stop-color="#EB984E"
         id="stop401" />
      <stop
         offset="100%"
         stop-color="#E67E22"
         id="stop403" />
    </linearGradient>
    <linearGradient
       id="Gradient_79"
       gradientUnits="userSpaceOnUse"
       x1="229.7625"
       y1="170.65"
       x2="343.7375"
       y2="170.65"
       spreadMethod="pad">
      <stop
         offset="0%"
         stop-color="#E67E22"
         id="stop406" />
      <stop
         offset="100%"
         stop-color="#EB984E"
         id="stop408" />
    </linearGradient>
    <linearGradient
       id="Gradient_80"
       gradientUnits="userSpaceOnUse"
       x1="244.0125"
       y1="170.65"
       x2="329.4875"
       y2="170.65"
       spreadMethod="pad">
      <stop
         offset="0%"
         stop-color="#F1F2F2"
         id="stop411" />
      <stop
         offset="100%"
         stop-color="#D1D3D4"
         id="stop413" />
    </linearGradient>
    <linearGradient
       id="Gradient_81"
       gradientUnits="userSpaceOnUse"
       x1="246.8625"
       y1="170.65"
       x2="326.6375"
       y2="170.65"
       spreadMethod="pad">
      <stop
         offset="0%"
         stop-color="#D1D3D4"
         id="stop416" />
      <stop
         offset="100%"
         stop-color="#F1F2F2"
         id="stop418" />
    </linearGradient>
    <linearGradient
       id="Gradient_82"
       gradientUnits="userSpaceOnUse"
       x1="389.96250000000003"
       y1="172.9"
       x2="503.2375"
       y2="172.9"
       spreadMethod="pad">
      <stop
         offset="0%"
         stop-color="#AF7AC5"
         id="stop421" />
      <stop
         offset="100%"
         stop-color="#9B59B6"
         id="stop423" />
    </linearGradient>
    <linearGradient
       id="Gradient_83"
       gradientUnits="userSpaceOnUse"
       x1="392.8125"
       y1="172.9"
       x2="500.38750000000005"
       y2="172.9"
       spreadMethod="pad">
      <stop
         offset="0%"
         stop-color="#9B59B6"
         id="stop426" />
      <stop
         offset="100%"
         stop-color="#AF7AC5"
         id="stop428" />
    </linearGradient>
    <linearGradient
       id="Gradient_84"
       gradientUnits="userSpaceOnUse"
       x1="407.0625"
       y1="172.9"
       x2="486.13750000000005"
       y2="172.9"
       spreadMethod="pad">
      <stop
         offset="0%"
         stop-color="#F1F2F2"
         id="stop431" />
      <stop
         offset="100%"
         stop-color="#D1D3D4"
         id="stop433" />
    </linearGradient>
    <linearGradient
       id="Gradient_85"
       gradientUnits="userSpaceOnUse"
       x1="409.9125"
       y1="172.9"
       x2="483.2875"
       y2="172.9"
       spreadMethod="pad">
      <stop
         offset="0%"
         stop-color="#D1D3D4"
         id="stop436" />
      <stop
         offset="100%"
         stop-color="#F1F2F2"
         id="stop438" />
    </linearGradient>
    <linearGradient
       id="Gradient_86"
       gradientUnits="userSpaceOnUse"
       x1="525.7125"
       y1="176.25"
       x2="671.0875"
       y2="176.25"
       spreadMethod="pad">
      <stop
         offset="0%"
         stop-color="#FFC241"
         id="stop441" />
      <stop
         offset="100%"
         stop-color="#FFB312"
         id="stop443" />
    </linearGradient>
    <linearGradient
       id="Gradient_87"
       gradientUnits="userSpaceOnUse"
       x1="528.5625"
       y1="176.25"
       x2="668.2375"
       y2="176.25"
       spreadMethod="pad">
      <stop
         offset="0%"
         stop-color="#FFB312"
         id="stop446" />
      <stop
         offset="100%"
         stop-color="#FFC241"
         id="stop448" />
    </linearGradient>
    <linearGradient
       id="Gradient_88"
       gradientUnits="userSpaceOnUse"
       x1="541.4749999999999"
       y1="176.55"
       x2="652.625"
       y2="176.55"
       spreadMethod="pad">
      <stop
         offset="0%"
         stop-color="#F1F2F2"
         id="stop451" />
      <stop
         offset="100%"
         stop-color="#D1D3D4"
         id="stop453" />
    </linearGradient>
    <linearGradient
       id="Gradient_89"
       gradientUnits="userSpaceOnUse"
       x1="544.1625"
       y1="176.5"
       x2="649.6374999999999"
       y2="176.5"
       spreadMethod="pad">
      <stop
         offset="0%"
         stop-color="#D1D3D4"
         id="stop456" />
      <stop
         offset="100%"
         stop-color="#F1F2F2"
         id="stop458" />
    </linearGradient>
    <linearGradient
       id="Gradient_90"
       gradientUnits="userSpaceOnUse"
       x1="705.525"
       y1="170.65"
       x2="829.475"
       y2="170.65"
       spreadMethod="pad">
      <stop
         offset="0%"
         stop-color="#7B9BD3"
         id="stop461" />
      <stop
         offset="61.96078431372549%"
         stop-color="#6389CB"
         id="stop463" />
      <stop
         offset="100%"
         stop-color="#5A82C8"
         id="stop465" />
    </linearGradient>
    <linearGradient
       id="Gradient_91"
       gradientUnits="userSpaceOnUse"
       x1="708.375"
       y1="170.65"
       x2="826.625"
       y2="170.65"
       spreadMethod="pad">
      <stop
         offset="0%"
         stop-color="#5A82C8"
         id="stop468" />
      <stop
         offset="38.03921568627451%"
         stop-color="#6389CB"
         id="stop470" />
      <stop
         offset="100%"
         stop-color="#7B9BD3"
         id="stop472" />
    </linearGradient>
    <linearGradient
       id="Gradient_92"
       gradientUnits="userSpaceOnUse"
       x1="722.625"
       y1="170.65"
       x2="812.375"
       y2="170.65"
       spreadMethod="pad">
      <stop
         offset="0%"
         stop-color="#F1F2F2"
         id="stop475" />
      <stop
         offset="100%"
         stop-color="#D1D3D4"
         id="stop477" />
    </linearGradient>
    <linearGradient
       id="Gradient_93"
       gradientUnits="userSpaceOnUse"
       x1="725.475"
       y1="170.65"
       x2="809.525"
       y2="170.65"
       spreadMethod="pad">
      <stop
         offset="0%"
         stop-color="#D1D3D4"
         id="stop480" />
      <stop
         offset="100%"
         stop-color="#F1F2F2"
         id="stop482" />
    </linearGradient>
    <linearGradient
       id="Gradient_94"
       gradientUnits="userSpaceOnUse"
       x1="855.925"
       y1="169.2"
       x2="990.575"
       y2="169.2"
       spreadMethod="pad">
      <stop
         offset="0%"
         stop-color="#48C9B0"
         id="stop485" />
      <stop
         offset="100%"
         stop-color="#1ABC9C"
         id="stop487" />
    </linearGradient>
    <linearGradient
       id="Gradient_95"
       gradientUnits="userSpaceOnUse"
       x1="858.775"
       y1="169.2"
       x2="987.725"
       y2="169.2"
       spreadMethod="pad">
      <stop
         offset="0%"
         stop-color="#1ABC9C"
         id="stop490" />
      <stop
         offset="100%"
         stop-color="#48C9B0"
         id="stop492" />
    </linearGradient>
    <linearGradient
       id="Gradient_96"
       gradientUnits="userSpaceOnUse"
       x1="873.025"
       y1="169.2"
       x2="973.475"
       y2="169.2"
       spreadMethod="pad">
      <stop
         offset="0%"
         stop-color="#F1F2F2"
         id="stop495" />
      <stop
         offset="100%"
         stop-color="#D1D3D4"
         id="stop497" />
    </linearGradient>
    <linearGradient
       id="Gradient_97"
       gradientUnits="userSpaceOnUse"
       x1="875.875"
       y1="169.2"
       x2="970.625"
       y2="169.2"
       spreadMethod="pad">
      <stop
         offset="0%"
         stop-color="#D1D3D4"
         id="stop500" />
      <stop
         offset="100%"
         stop-color="#F1F2F2"
         id="stop502" />
    </linearGradient>
    <linearGradient
       id="Gradient_98"
       gradientUnits="userSpaceOnUse"
       x1="1013.7749999999999"
       y1="172.65"
       x2="1148.425"
       y2="172.65"
       spreadMethod="pad">
      <stop
         offset="0%"
         stop-color="#F379A4"
         id="stop505" />
      <stop
         offset="100%"
         stop-color="#F0588D"
         id="stop507" />
    </linearGradient>
    <linearGradient
       id="Gradient_99"
       gradientUnits="userSpaceOnUse"
       x1="1016.6249999999999"
       y1="172.65"
       x2="1145.5749999999998"
       y2="172.65"
       spreadMethod="pad">
      <stop
         offset="0%"
         stop-color="#F0588D"
         id="stop510" />
      <stop
         offset="100%"
         stop-color="#F379A4"
         id="stop512" />
    </linearGradient>
    <linearGradient
       id="Gradient_100"
       gradientUnits="userSpaceOnUse"
       x1="1030.875"
       y1="172.65"
       x2="1131.3249999999998"
       y2="172.65"
       spreadMethod="pad">
      <stop
         offset="0%"
         stop-color="#F1F2F2"
         id="stop515" />
      <stop
         offset="100%"
         stop-color="#D1D3D4"
         id="stop517" />
    </linearGradient>
    <linearGradient
       id="Gradient_101"
       gradientUnits="userSpaceOnUse"
       x1="1033.725"
       y1="172.65"
       x2="1128.475"
       y2="172.65"
       spreadMethod="pad">
      <stop
         offset="0%"
         stop-color="#D1D3D4"
         id="stop520" />
      <stop
         offset="100%"
         stop-color="#F1F2F2"
         id="stop522" />
    </linearGradient>
    <linearGradient
       inkscape:collect="always"
       xlink:href="#Gradient_98"
       id="linearGradient879"
       gradientUnits="userSpaceOnUse"
       x1="1013.7749999999999"
       y1="172.65"
       x2="1148.425"
       y2="172.65"
       spreadMethod="pad" />
    <linearGradient
       inkscape:collect="always"
       xlink:href="#Gradient_99"
       id="linearGradient885"
       gradientUnits="userSpaceOnUse"
       x1="1016.6249999999999"
       y1="172.65"
       x2="1145.5749999999998"
       y2="172.65"
       spreadMethod="pad" />
    <linearGradient
       inkscape:collect="always"
       xlink:href="#Gradient_100"
       id="linearGradient895"
       gradientUnits="userSpaceOnUse"
       x1="1030.875"
       y1="172.65"
       x2="1131.3249999999998"
       y2="172.65"
       spreadMethod="pad" />
    <linearGradient
       inkscape:collect="always"
       xlink:href="#Gradient_101"
       id="linearGradient901"
       gradientUnits="userSpaceOnUse"
       x1="1033.725"
       y1="172.65"
       x2="1128.475"
       y2="172.65"
       spreadMethod="pad" />
  </defs>
  <g
     transform="matrix(0.88057561,0,0,0.87898093,69.952306,70.00073)"
     id="g3712">
    <g
       transform="matrix(1.5233459,0,0,1.5223846,374.2,-515.65)"
       id="g3710">
      <g
         id="use3706">
        <path
           style="fill:#ffffff;fill-opacity:0.87843137;stroke:none"
           inkscape:connector-curvature="0"
           id="path76"
           d="m -296.85,377.05 q 0,13 13,13 h 76.4 q 13,0 13,-13 V 300.4 q 0,-13 -13,-13 h -76.4 q -13,0 -13,13 z" />
      </g>
      <path
         inkscape:connector-curvature="0"
         d="m -283.80644,287.38827 h 76.39984 q 12.99998,0 12.99998,12.99992 v 76.64955 q 0,12.99992 -12.99998,12.99992 h -76.39984 q -12.99997,0 -12.99997,-12.99992 v -76.64955 q 0,-12.99992 12.99997,-12.99992 z"
         id="use3708"
         style="fill:none;stroke:#ffffff;stroke-width:1.96996295;stroke-linecap:round;stroke-linejoin:round" />
    </g>
  </g>
  <g
     transform="matrix(0.65361023,0,0,0.65361023,70,70)"
     id="g3458">
    <g
       transform="translate(-1081.1,-172.65)"
       id="g3440">
      <g
         id="use3438">
        <path
           style="fill:url(#linearGradient879);stroke:none"
           inkscape:connector-curvature="0"
           id="path875"
           d="m 1148.45,122.05 q 0,-13.05 -8.8,-22.25 -8.75,-9.25 -21.15,-9.25 -12.4,0 -21.15,9.25 -8.75,9.2 -8.75,22.25 v 15.75 h -15 v -15.75 q 0,-13.05 -8.75,-22.25 -8.75,-9.25 -21.15,-9.25 -12.4,0 -21.15,9.25 -8.8,9.2 -8.8,22.25 v 101.2 q 0,13 8.8,22.25 8.8,9.25 21.15,9.25 12.35,0 21.15,-9.25 8.75,-9.25 8.75,-22.25 v -22.5 h 15 v 22.5 q 0,13 8.75,22.25 8.8,9.25 21.15,9.25 12.35,0 21.15,-9.25 8.8,-9.25 8.8,-22.25 z" />
      </g>
    </g>
    <g
       transform="translate(-1081.1,-172.65)"
       id="g3444">
      <g
         id="use3442">
        <path
           style="fill:url(#linearGradient885);stroke:none"
           inkscape:connector-curvature="0"
           id="path881"
           d="m 1145.6,122.05 q 0,-11.8 -7.95,-20.15 -7.95,-8.35 -19.15,-8.35 -11.2,0 -19.1,8.35 -7.95,8.35 -7.95,20.15 v 18.75 h -20.7 v -18.75 q 0,-11.8 -7.95,-20.15 -7.9,-8.35 -19.1,-8.35 -11.2,0 -19.15,8.35 -7.95,8.35 -7.95,20.15 v 101.2 q 0,11.8 7.95,20.15 7.95,8.35 19.15,8.35 11.2,0 19.1,-8.35 7.95,-8.35 7.95,-20.15 V 197.8 h 20.7 v 25.45 q 0,11.8 7.95,20.15 7.95,8.35 19.1,8.35 11.2,0 19.15,-8.35 7.95,-8.35 7.95,-20.15 z" />
      </g>
    </g>
    <g
       transform="translate(-1073.75,-163.35)"
       id="g3448">
      <g
         id="use3446">
        <path
           style="fill:#000000;fill-opacity:0.2;stroke:none"
           inkscape:connector-curvature="0"
           id="path887"
           d="m 1034.6,112.5 q -3.75,3.95 -3.75,9.55 v 101.2 q 0,5.6 3.75,9.55 3.8,3.95 9.1,3.95 5.3,0 9.05,-3.95 3.75,-3.95 3.75,-9.55 V 182.8 h 49.2 v 40.45 q 0,5.6 3.75,9.55 3.75,3.95 9.05,3.95 5.3,0 9.1,-3.95 3.75,-3.95 3.75,-9.55 v -101.2 q 0,-5.6 -3.75,-9.55 -3.75,-3.95 -9.1,-3.95 -5.35,0 -9.05,3.95 -3.75,3.95 -3.75,9.55 v 33.75 h -49.2 v -33.75 q 0,-5.6 -3.75,-9.55 -3.7,-3.95 -9.05,-3.95 -5.35,0 -9.1,3.95 z" />
      </g>
    </g>
    <g
       transform="translate(-1081.1,-172.65)"
       id="g3452">
      <g
         id="use3450">
        <path
           style="fill:url(#linearGradient895);stroke:none"
           inkscape:connector-curvature="0"
           id="path891"
           d="m 1034.6,112.5 q -3.75,3.95 -3.75,9.55 v 101.2 q 0,5.6 3.75,9.55 3.8,3.95 9.1,3.95 5.3,0 9.05,-3.95 3.75,-3.95 3.75,-9.55 V 182.8 h 49.2 v 40.45 q 0,5.6 3.75,9.55 3.75,3.95 9.05,3.95 5.3,0 9.1,-3.95 3.75,-3.95 3.75,-9.55 v -101.2 q 0,-5.6 -3.75,-9.55 -3.75,-3.95 -9.1,-3.95 -5.35,0 -9.05,3.95 -3.75,3.95 -3.75,9.55 v 33.75 h -49.2 v -33.75 q 0,-5.6 -3.75,-9.55 -3.7,-3.95 -9.05,-3.95 -5.35,0 -9.1,3.95 z" />
      </g>
    </g>
    <g
       transform="translate(-1081.1,-172.65)"
       id="g3456">
      <g
         id="use3454">
        <path
           style="fill:url(#linearGradient901);stroke:none"
           inkscape:connector-curvature="0"
           id="path897"
           d="m 1050.75,114.65 q -2.9,-3.1 -7.05,-3.1 -4.15,0 -7.05,3.1 -2.95,3.05 -2.95,7.4 v 101.2 q 0,4.3 2.95,7.4 2.95,3.1 7.05,3.1 4.1,0 7.05,-3.1 2.9,-3.1 2.9,-7.4 V 179.8 h 54.9 v 43.45 q 0,4.3 2.9,7.4 2.95,3.1 7.05,3.1 4.1,0 7.05,-3.1 2.95,-3.1 2.95,-7.4 v -101.2 q 0,-4.35 -2.95,-7.4 -2.9,-3.1 -7.05,-3.1 -4.1,0 -7.05,3.1 -2.9,3.05 -2.9,7.4 v 36.75 h -54.9 v -36.75 q 0,-4.35 -2.9,-7.4 z" />
      </g>
    </g>
  </g>
</svg>
