<?xml version="1.0" encoding="UTF-8" standalone="no"?>
<svg
   xmlns:dc="http://purl.org/dc/elements/1.1/"
   xmlns:cc="http://creativecommons.org/ns#"
   xmlns:rdf="http://www.w3.org/1999/02/22-rdf-syntax-ns#"
   xmlns:svg="http://www.w3.org/2000/svg"
   xmlns="http://www.w3.org/2000/svg"
   id="svg26"
   version="1.1"
   viewBox="0 0 100 100"
   height="100"
   width="100">
  <metadata
     id="metadata32">
    <rdf:RDF>
      <cc:Work
         rdf:about="">
        <dc:format>image/svg+xml</dc:format>
        <dc:type
           rdf:resource="http://purl.org/dc/dcmitype/StillImage" />
      </cc:Work>
    </rdf:RDF>
  </metadata>
  <defs
     id="defs30" />
  <title
     id="title2">Θ</title>
  <rect
     id="rect4"
     style="fill: #ffffff"
     stroke-width="4"
     opacity="0.90"
     stroke="#ffffff"
     ry="10"
     rx="10"
     height="96"
     width="96"
     y="2"
     x="2" />
  <g
     id="g24"
     style="font-weight:bold;font-size:96px;font-family:'Comics Sans MS', Helvetica, sans-serif;text-anchor:middle;overflow:hidden">
    <defs
       id="defs16">
      <filter
         id="shadow">
        <feGaussianBlur
           id="feGaussianBlur6"
           result="shadow"
           stdDeviation="2 2" />
        <feOffset
           id="feOffset8"
           dy="1"
           dx="1" />
      </filter>
      <filter
         id="innerShadow">
        <feGaussianBlur
           id="feGaussianBlur11"
           result="blur"
           stdDeviation="0.5"
           in="SourceGraphic" />
        <feOffset
           id="feOffset13"
           dy="0"
           dx="0"
           in="blur" />
      </filter>
    </defs>
    <g
       id="text18"
       style="opacity:0.5;fill:#104020;filter:url(#shadow)"
       aria-label="Θ">
      <path
         id="path34"
         style="opacity:0.5;fill:#104020;filter:url(#shadow)"
         d="m 50,27.828125 q -8.25,0 -12.796875,6.09375 -4.546875,6.09375 -4.546875,17.15625 0,11.015625 4.546875,17.109375 Q 41.75,74.28125 50,74.28125 q 8.296875,0 12.84375,-6.09375 4.546875,-6.09375 4.546875,-17.109375 0,-11.0625 -4.546875,-17.15625 Q 58.296875,27.828125 50,27.828125 Z M 50,14.75 q 16.875,0 26.4375,9.65625 Q 86,34.0625 86,51.078125 q 0,16.96875 -9.5625,26.625 -9.5625,9.65625 -26.4375,9.65625 -16.828125,0 -26.4375,-9.65625 Q 14,68.046875 14,51.078125 14,34.0625 23.5625,24.40625 33.171875,14.75 50,14.75 Z M 38.046875,42.6875 H 62 V 56.328125 H 38.046875 Z" />
    </g>
    <g
       id="text20"
       style="fill:#000040;stroke:#102030;stroke-width:3"
       aria-label="Θ">
      <path
         id="path37"
         style="fill:#000040;stroke:#102030;stroke-width:3"
         d="m 50,27.828125 q -8.25,0 -12.796875,6.09375 -4.546875,6.09375 -4.546875,17.15625 0,11.015625 4.546875,17.109375 Q 41.75,74.28125 50,74.28125 q 8.296875,0 12.84375,-6.09375 4.546875,-6.09375 4.546875,-17.109375 0,-11.0625 -4.546875,-17.15625 Q 58.296875,27.828125 50,27.828125 Z M 50,14.75 q 16.875,0 26.4375,9.65625 Q 86,34.0625 86,51.078125 q 0,16.96875 -9.5625,26.625 -9.5625,9.65625 -26.4375,9.65625 -16.828125,0 -26.4375,-9.65625 Q 14,68.046875 14,51.078125 14,34.0625 23.5625,24.40625 33.171875,14.75 50,14.75 Z M 38.046875,42.6875 H 62 V 56.328125 H 38.046875 Z" />
    </g>
    <g
       id="text22"
       style="fill:#5cc067;filter:url(#innerShadow)"
       aria-label="Θ">
      <path
         id="path40"
         style="fill:#5cc067;filter:url(#innerShadow)"
         d="m 50,27.828125 q -8.25,0 -12.796875,6.09375 -4.546875,6.09375 -4.546875,17.15625 0,11.015625 4.546875,17.109375 Q 41.75,74.28125 50,74.28125 q 8.296875,0 12.84375,-6.09375 4.546875,-6.09375 4.546875,-17.109375 0,-11.0625 -4.546875,-17.15625 Q 58.296875,27.828125 50,27.828125 Z M 50,14.75 q 16.875,0 26.4375,9.65625 Q 86,34.0625 86,51.078125 q 0,16.96875 -9.5625,26.625 -9.5625,9.65625 -26.4375,9.65625 -16.828125,0 -26.4375,-9.65625 Q 14,68.046875 14,51.078125 14,34.0625 23.5625,24.40625 33.171875,14.75 50,14.75 Z M 38.046875,42.6875 H 62 V 56.328125 H 38.046875 Z" />
    </g>
  </g>
</svg>
