<?xml version="1.0" encoding="UTF-8" standalone="no"?>
<svg
   xmlns:dc="http://purl.org/dc/elements/1.1/"
   xmlns:cc="http://creativecommons.org/ns#"
   xmlns:rdf="http://www.w3.org/1999/02/22-rdf-syntax-ns#"
   xmlns:svg="http://www.w3.org/2000/svg"
   xmlns="http://www.w3.org/2000/svg"
   xmlns:xlink="http://www.w3.org/1999/xlink"
   xmlns:sodipodi="http://sodipodi.sourceforge.net/DTD/sodipodi-0.dtd"
   xmlns:inkscape="http://www.inkscape.org/namespaces/inkscape"
   id="svg26"
   version="1.1"
   viewBox="0 0 140 140"
   height="140"
   width="140"
   sodipodi:docname="l7.svg"
   inkscape:version="0.92.3 (2405546, 2018-03-11)">
  <sodipodi:namedview
     pagecolor="#ffffff"
     bordercolor="#666666"
     borderopacity="1"
     objecttolerance="10"
     gridtolerance="10"
     guidetolerance="10"
     inkscape:pageopacity="0"
     inkscape:pageshadow="2"
     inkscape:window-width="1920"
     inkscape:window-height="1024"
     id="namedview21"
     showgrid="false"
     inkscape:zoom="5.7928571"
     inkscape:cx="30.123304"
     inkscape:cy="70"
     inkscape:window-x="0"
     inkscape:window-y="0"
     inkscape:window-maximized="1"
     inkscape:current-layer="svg26"
     inkscape:pagecheckerboard="true" />
  <metadata
     id="metadata32">
    <rdf:RDF>
      <cc:Work
         rdf:about="">
        <dc:format>image/svg+xml</dc:format>
        <dc:type
           rdf:resource="http://purl.org/dc/dcmitype/StillImage" />
        <dc:title></dc:title>
        <cc:license
           rdf:resource="http://creativecommons.org/licenses/by-sa/4.0/" />
      </cc:Work>
      <cc:License
         rdf:about="http://creativecommons.org/licenses/by-sa/4.0/">
        <cc:permits
           rdf:resource="http://creativecommons.org/ns#Reproduction" />
        <cc:permits
           rdf:resource="http://creativecommons.org/ns#Distribution" />
        <cc:requires
           rdf:resource="http://creativecommons.org/ns#Notice" />
        <cc:requires
           rdf:resource="http://creativecommons.org/ns#Attribution" />
        <cc:permits
           rdf:resource="http://creativecommons.org/ns#DerivativeWorks" />
        <cc:requires
           rdf:resource="http://creativecommons.org/ns#ShareAlike" />
      </cc:License>
    </rdf:RDF>
  </metadata>
  <defs
     id="defs30">
    <linearGradient
       id="Gradient_74"
       gradientUnits="userSpaceOnUse"
       x1="52.4375"
       y1="167.14999"
       x2="197.7625"
       y2="167.14999"
       spreadMethod="pad">
      <stop
         offset="0%"
         stop-color="#4EB9F3"
         id="stop381" />
      <stop
         offset="100%"
         stop-color="#22A7F0"
         id="stop383" />
    </linearGradient>
    <linearGradient
       id="Gradient_75"
       gradientUnits="userSpaceOnUse"
       x1="55.287498"
       y1="167.14999"
       x2="194.91251"
       y2="167.14999"
       spreadMethod="pad">
      <stop
         offset="0%"
         stop-color="#22A7F0"
         id="stop386" />
      <stop
         offset="100%"
         stop-color="#4EB9F3"
         id="stop388" />
    </linearGradient>
    <linearGradient
       id="Gradient_76"
       gradientUnits="userSpaceOnUse"
       x1="69.525002"
       y1="167.14999"
       x2="180.675"
       y2="167.14999"
       spreadMethod="pad">
      <stop
         offset="0%"
         stop-color="#F1F2F2"
         id="stop391" />
      <stop
         offset="100%"
         stop-color="#D1D3D4"
         id="stop393" />
    </linearGradient>
    <linearGradient
       id="Gradient_77"
       gradientUnits="userSpaceOnUse"
       x1="72.387497"
       y1="167.14999"
       x2="177.8125"
       y2="167.14999"
       spreadMethod="pad">
      <stop
         offset="0%"
         stop-color="#D1D3D4"
         id="stop396" />
      <stop
         offset="100%"
         stop-color="#F1F2F2"
         id="stop398" />
    </linearGradient>
    <linearGradient
       id="Gradient_78"
       gradientUnits="userSpaceOnUse"
       x1="226.9125"
       y1="170.65"
       x2="346.5875"
       y2="170.65"
       spreadMethod="pad">
      <stop
         offset="0%"
         stop-color="#EB984E"
         id="stop401" />
      <stop
         offset="100%"
         stop-color="#E67E22"
         id="stop403" />
    </linearGradient>
    <linearGradient
       id="Gradient_79"
       gradientUnits="userSpaceOnUse"
       x1="229.7625"
       y1="170.65"
       x2="343.7375"
       y2="170.65"
       spreadMethod="pad">
      <stop
         offset="0%"
         stop-color="#E67E22"
         id="stop406" />
      <stop
         offset="100%"
         stop-color="#EB984E"
         id="stop408" />
    </linearGradient>
    <linearGradient
       id="Gradient_80"
       gradientUnits="userSpaceOnUse"
       x1="244.0125"
       y1="170.65"
       x2="329.4875"
       y2="170.65"
       spreadMethod="pad">
      <stop
         offset="0%"
         stop-color="#F1F2F2"
         id="stop411" />
      <stop
         offset="100%"
         stop-color="#D1D3D4"
         id="stop413" />
    </linearGradient>
    <linearGradient
       id="Gradient_81"
       gradientUnits="userSpaceOnUse"
       x1="246.8625"
       y1="170.65"
       x2="326.6375"
       y2="170.65"
       spreadMethod="pad">
      <stop
         offset="0%"
         stop-color="#D1D3D4"
         id="stop416" />
      <stop
         offset="100%"
         stop-color="#F1F2F2"
         id="stop418" />
    </linearGradient>
    <linearGradient
       id="Gradient_82"
       gradientUnits="userSpaceOnUse"
       x1="389.96250000000003"
       y1="172.9"
       x2="503.2375"
       y2="172.9"
       spreadMethod="pad">
      <stop
         offset="0%"
         stop-color="#AF7AC5"
         id="stop421" />
      <stop
         offset="100%"
         stop-color="#9B59B6"
         id="stop423" />
    </linearGradient>
    <linearGradient
       id="Gradient_83"
       gradientUnits="userSpaceOnUse"
       x1="392.8125"
       y1="172.9"
       x2="500.38750000000005"
       y2="172.9"
       spreadMethod="pad">
      <stop
         offset="0%"
         stop-color="#9B59B6"
         id="stop426" />
      <stop
         offset="100%"
         stop-color="#AF7AC5"
         id="stop428" />
    </linearGradient>
    <linearGradient
       id="Gradient_84"
       gradientUnits="userSpaceOnUse"
       x1="407.0625"
       y1="172.9"
       x2="486.13750000000005"
       y2="172.9"
       spreadMethod="pad">
      <stop
         offset="0%"
         stop-color="#F1F2F2"
         id="stop431" />
      <stop
         offset="100%"
         stop-color="#D1D3D4"
         id="stop433" />
    </linearGradient>
    <linearGradient
       id="Gradient_85"
       gradientUnits="userSpaceOnUse"
       x1="409.9125"
       y1="172.9"
       x2="483.2875"
       y2="172.9"
       spreadMethod="pad">
      <stop
         offset="0%"
         stop-color="#D1D3D4"
         id="stop436" />
      <stop
         offset="100%"
         stop-color="#F1F2F2"
         id="stop438" />
    </linearGradient>
    <linearGradient
       id="Gradient_86"
       gradientUnits="userSpaceOnUse"
       x1="525.7125"
       y1="176.25"
       x2="671.0875"
       y2="176.25"
       spreadMethod="pad">
      <stop
         offset="0%"
         stop-color="#FFC241"
         id="stop441" />
      <stop
         offset="100%"
         stop-color="#FFB312"
         id="stop443" />
    </linearGradient>
    <linearGradient
       id="Gradient_87"
       gradientUnits="userSpaceOnUse"
       x1="528.5625"
       y1="176.25"
       x2="668.2375"
       y2="176.25"
       spreadMethod="pad">
      <stop
         offset="0%"
         stop-color="#FFB312"
         id="stop446" />
      <stop
         offset="100%"
         stop-color="#FFC241"
         id="stop448" />
    </linearGradient>
    <linearGradient
       id="Gradient_88"
       gradientUnits="userSpaceOnUse"
       x1="541.4749999999999"
       y1="176.55"
       x2="652.625"
       y2="176.55"
       spreadMethod="pad">
      <stop
         offset="0%"
         stop-color="#F1F2F2"
         id="stop451" />
      <stop
         offset="100%"
         stop-color="#D1D3D4"
         id="stop453" />
    </linearGradient>
    <linearGradient
       id="Gradient_89"
       gradientUnits="userSpaceOnUse"
       x1="544.1625"
       y1="176.5"
       x2="649.6374999999999"
       y2="176.5"
       spreadMethod="pad">
      <stop
         offset="0%"
         stop-color="#D1D3D4"
         id="stop456" />
      <stop
         offset="100%"
         stop-color="#F1F2F2"
         id="stop458" />
    </linearGradient>
    <linearGradient
       id="Gradient_90"
       gradientUnits="userSpaceOnUse"
       x1="705.525"
       y1="170.65"
       x2="829.475"
       y2="170.65"
       spreadMethod="pad">
      <stop
         offset="0%"
         stop-color="#7B9BD3"
         id="stop461" />
      <stop
         offset="61.96078431372549%"
         stop-color="#6389CB"
         id="stop463" />
      <stop
         offset="100%"
         stop-color="#5A82C8"
         id="stop465" />
    </linearGradient>
    <linearGradient
       id="Gradient_91"
       gradientUnits="userSpaceOnUse"
       x1="708.375"
       y1="170.65"
       x2="826.625"
       y2="170.65"
       spreadMethod="pad">
      <stop
         offset="0%"
         stop-color="#5A82C8"
         id="stop468" />
      <stop
         offset="38.03921568627451%"
         stop-color="#6389CB"
         id="stop470" />
      <stop
         offset="100%"
         stop-color="#7B9BD3"
         id="stop472" />
    </linearGradient>
    <linearGradient
       id="Gradient_92"
       gradientUnits="userSpaceOnUse"
       x1="722.625"
       y1="170.65"
       x2="812.375"
       y2="170.65"
       spreadMethod="pad">
      <stop
         offset="0%"
         stop-color="#F1F2F2"
         id="stop475" />
      <stop
         offset="100%"
         stop-color="#D1D3D4"
         id="stop477" />
    </linearGradient>
    <linearGradient
       id="Gradient_93"
       gradientUnits="userSpaceOnUse"
       x1="725.475"
       y1="170.65"
       x2="809.525"
       y2="170.65"
       spreadMethod="pad">
      <stop
         offset="0%"
         stop-color="#D1D3D4"
         id="stop480" />
      <stop
         offset="100%"
         stop-color="#F1F2F2"
         id="stop482" />
    </linearGradient>
    <linearGradient
       id="Gradient_94"
       gradientUnits="userSpaceOnUse"
       x1="855.925"
       y1="169.2"
       x2="990.575"
       y2="169.2"
       spreadMethod="pad">
      <stop
         offset="0%"
         stop-color="#48C9B0"
         id="stop485" />
      <stop
         offset="100%"
         stop-color="#1ABC9C"
         id="stop487" />
    </linearGradient>
    <linearGradient
       id="Gradient_95"
       gradientUnits="userSpaceOnUse"
       x1="858.775"
       y1="169.2"
       x2="987.725"
       y2="169.2"
       spreadMethod="pad">
      <stop
         offset="0%"
         stop-color="#1ABC9C"
         id="stop490" />
      <stop
         offset="100%"
         stop-color="#48C9B0"
         id="stop492" />
    </linearGradient>
    <linearGradient
       id="Gradient_96"
       gradientUnits="userSpaceOnUse"
       x1="873.025"
       y1="169.2"
       x2="973.475"
       y2="169.2"
       spreadMethod="pad">
      <stop
         offset="0%"
         stop-color="#F1F2F2"
         id="stop495" />
      <stop
         offset="100%"
         stop-color="#D1D3D4"
         id="stop497" />
    </linearGradient>
    <linearGradient
       id="Gradient_97"
       gradientUnits="userSpaceOnUse"
       x1="875.875"
       y1="169.2"
       x2="970.625"
       y2="169.2"
       spreadMethod="pad">
      <stop
         offset="0%"
         stop-color="#D1D3D4"
         id="stop500" />
      <stop
         offset="100%"
         stop-color="#F1F2F2"
         id="stop502" />
    </linearGradient>
    <linearGradient
       id="Gradient_98"
       gradientUnits="userSpaceOnUse"
       x1="1013.7749999999999"
       y1="172.65"
       x2="1148.425"
       y2="172.65"
       spreadMethod="pad">
      <stop
         offset="0%"
         stop-color="#F379A4"
         id="stop505" />
      <stop
         offset="100%"
         stop-color="#F0588D"
         id="stop507" />
    </linearGradient>
    <linearGradient
       id="Gradient_99"
       gradientUnits="userSpaceOnUse"
       x1="1016.6249999999999"
       y1="172.65"
       x2="1145.5749999999998"
       y2="172.65"
       spreadMethod="pad">
      <stop
         offset="0%"
         stop-color="#F0588D"
         id="stop510" />
      <stop
         offset="100%"
         stop-color="#F379A4"
         id="stop512" />
    </linearGradient>
    <linearGradient
       id="Gradient_100"
       gradientUnits="userSpaceOnUse"
       x1="1030.875"
       y1="172.65"
       x2="1131.3249999999998"
       y2="172.65"
       spreadMethod="pad">
      <stop
         offset="0%"
         stop-color="#F1F2F2"
         id="stop515" />
      <stop
         offset="100%"
         stop-color="#D1D3D4"
         id="stop517" />
    </linearGradient>
    <linearGradient
       id="Gradient_101"
       gradientUnits="userSpaceOnUse"
       x1="1033.725"
       y1="172.65"
       x2="1128.475"
       y2="172.65"
       spreadMethod="pad">
      <stop
         offset="0%"
         stop-color="#D1D3D4"
         id="stop520" />
      <stop
         offset="100%"
         stop-color="#F1F2F2"
         id="stop522" />
    </linearGradient>
    <linearGradient
       id="Gradient_8"
       gradientUnits="userSpaceOnUse"
       x1="55.312500000000014"
       y1="414.3"
       x2="207.28750000000002"
       y2="414.3"
       spreadMethod="pad">
      <stop
         offset="0%"
         stop-color="#AF7AC5"
         id="stop47" />
      <stop
         offset="100%"
         stop-color="#9B59B6"
         id="stop49" />
    </linearGradient>
    <linearGradient
       id="Gradient_9"
       gradientUnits="userSpaceOnUse"
       x1="58.16250000000001"
       y1="414.3"
       x2="204.4375"
       y2="414.3"
       spreadMethod="pad">
      <stop
         offset="0%"
         stop-color="#9B59B6"
         id="stop52" />
      <stop
         offset="100%"
         stop-color="#AF7AC5"
         id="stop54" />
    </linearGradient>
    <linearGradient
       id="Gradient_10"
       gradientUnits="userSpaceOnUse"
       x1="71.775"
       y1="414.65"
       x2="189.225"
       y2="414.65"
       spreadMethod="pad">
      <stop
         offset="0%"
         stop-color="#F1F2F2"
         id="stop57" />
      <stop
         offset="100%"
         stop-color="#D1D3D4"
         id="stop59" />
    </linearGradient>
    <linearGradient
       id="Gradient_11"
       gradientUnits="userSpaceOnUse"
       x1="74.625"
       y1="414.65"
       x2="186.375"
       y2="414.65"
       spreadMethod="pad">
      <stop
         offset="0%"
         stop-color="#D1D3D4"
         id="stop62" />
      <stop
         offset="100%"
         stop-color="#F1F2F2"
         id="stop64" />
    </linearGradient>
    <linearGradient
       id="Gradient_12"
       gradientUnits="userSpaceOnUse"
       x1="132.15"
       y1="402.325"
       x2="132.15"
       y2="427.97499999999997"
       spreadMethod="pad">
      <stop
         offset="0%"
         stop-color="#F1F2F2"
         id="stop67" />
      <stop
         offset="100%"
         stop-color="#D1D3D4"
         id="stop69" />
    </linearGradient>
    <linearGradient
       id="Gradient_13"
       gradientUnits="userSpaceOnUse"
       x1="132.15"
       y1="405.17499999999995"
       x2="132.15"
       y2="425.125"
       spreadMethod="pad">
      <stop
         offset="0%"
         stop-color="#D1D3D4"
         id="stop72" />
      <stop
         offset="100%"
         stop-color="#F1F2F2"
         id="stop74" />
    </linearGradient>
    <linearGradient
       inkscape:collect="always"
       xlink:href="#Gradient_8"
       id="linearGradient1055"
       gradientUnits="userSpaceOnUse"
       x1="55.312500000000014"
       y1="414.3"
       x2="207.28750000000002"
       y2="414.3"
       spreadMethod="pad" />
    <linearGradient
       inkscape:collect="always"
       xlink:href="#Gradient_9"
       id="linearGradient1061"
       gradientUnits="userSpaceOnUse"
       x1="58.16250000000001"
       y1="414.3"
       x2="204.4375"
       y2="414.3"
       spreadMethod="pad" />
    <linearGradient
       inkscape:collect="always"
       xlink:href="#Gradient_10"
       id="linearGradient1075"
       gradientUnits="userSpaceOnUse"
       x1="71.775"
       y1="414.65"
       x2="189.225"
       y2="414.65"
       spreadMethod="pad" />
    <linearGradient
       inkscape:collect="always"
       xlink:href="#Gradient_11"
       id="linearGradient1081"
       gradientUnits="userSpaceOnUse"
       x1="74.625"
       y1="414.65"
       x2="186.375"
       y2="414.65"
       spreadMethod="pad" />
    <linearGradient
       inkscape:collect="always"
       xlink:href="#Gradient_12"
       id="linearGradient1087"
       gradientUnits="userSpaceOnUse"
       x1="132.15"
       y1="402.325"
       x2="132.15"
       y2="427.97499999999997"
       spreadMethod="pad" />
    <linearGradient
       inkscape:collect="always"
       xlink:href="#Gradient_13"
       id="linearGradient1093"
       gradientUnits="userSpaceOnUse"
       x1="132.15"
       y1="405.17499999999995"
       x2="132.15"
       y2="425.125"
       spreadMethod="pad" />
  </defs>
  <g
     transform="matrix(0.88057561,0,0,0.87898093,69.952306,70.00073)"
     id="g3712">
    <g
       transform="matrix(1.5233459,0,0,1.5223846,374.2,-515.65)"
       id="g3710">
      <g
         id="use3706">
        <path
           style="fill:#ffffff;fill-opacity:0.87843137;stroke:none"
           inkscape:connector-curvature="0"
           id="path76"
           d="m -296.85,377.05 q 0,13 13,13 h 76.4 q 13,0 13,-13 V 300.4 q 0,-13 -13,-13 h -76.4 q -13,0 -13,13 z" />
      </g>
      <path
         inkscape:connector-curvature="0"
         d="m -283.80644,287.38827 h 76.39984 q 12.99998,0 12.99998,12.99992 v 76.64955 q 0,12.99992 -12.99998,12.99992 h -76.39984 q -12.99997,0 -12.99997,-12.99992 v -76.64955 q 0,-12.99992 12.99997,-12.99992 z"
         id="use3708"
         style="fill:none;stroke:#ffffff;stroke-width:1.96996295;stroke-linecap:round;stroke-linejoin:round" />
    </g>
  </g>
  <g
     transform="matrix(0.65361023,0,0,0.65361023,69.98366,70)"
     id="g2780">
    <g
       transform="translate(-131.25,-414.35)"
       id="g2750">
      <g
         id="use2748">
        <path
           style="fill:url(#linearGradient1055);stroke:none"
           inkscape:connector-curvature="0"
           id="path1051"
           d="m 76.9,356.95 q -10.25,11.3 -15.8,25.85 -5.8,15.1 -5.8,31.5 0,16.45 5.8,31.5 5.55,14.55 15.75,25.85 10.2,11.35 23.4,17.75 13.7,6.6 28.75,7 l 1.9,0.05 0.4,-0.05 0.4,0.05 1.9,-0.05 q 15.05,-0.4 28.7,-7 13.25,-6.4 23.45,-17.75 10.15,-11.3 15.75,-25.85 5.75,-15.05 5.75,-31.5 0,-16.45 -5.75,-31.5 -5.6,-14.55 -15.8,-25.85 -10.15,-11.3 -23.4,-17.7 -13.7,-6.6 -28.75,-7 h -4.5 q -15.05,0.4 -28.75,7 -13.25,6.4 -23.4,17.7 z" />
      </g>
    </g>
    <g
       transform="translate(-131.25,-414.35)"
       id="g2754">
      <g
         id="use2752">
        <path
           style="fill:url(#linearGradient1061);stroke:none"
           inkscape:connector-curvature="0"
           id="path1057"
           d="m 133.45,335.25 h -4.25 q -14.5,0.35 -27.7,6.75 -12.75,6.15 -22.6,17.05 -20.75,23.05 -20.75,55.25 0,32.2 20.75,55.3 9.8,10.9 22.6,17.05 13.15,6.35 27.65,6.75 l 1.75,0.05 0.4,-0.05 0.4,0.05 1.75,-0.05 q 14.5,-0.4 27.65,-6.75 12.75,-6.15 22.55,-17.05 20.75,-23.1 20.75,-55.3 0,-32.2 -20.75,-55.25 -9.8,-10.9 -22.55,-17.05 -13.15,-6.4 -27.65,-6.75 z" />
      </g>
    </g>
    <g
       transform="translate(-120.65,-407.6)"
       id="g2758">
      <g
         id="use2756">
        <path
           style="fill:#000000;fill-opacity:0.2;stroke:none"
           inkscape:connector-curvature="0"
           id="path1063"
           d="m 132.45,350.55 h -3.95 q -23.65,0.8 -40.15,19.4 -16.6,18.7 -16.6,44.7 0,26 16.6,44.65 16.55,18.65 40.15,19.4 0.25,0.05 0.8,0.05 h 2.35 q 0.55,0 0.85,-0.05 23.6,-0.75 40.15,-19.4 16.55,-18.65 16.55,-44.65 0,-26 -16.6,-44.7 -16.5,-18.6 -40.15,-19.4 m -20.15,33 q 0.8,-0.3 1.85,-0.95 7.45,-5 16.35,-5.1 8.85,0.1 16.3,5.1 1.1,0.65 1.85,0.95 6.85,5.1 10.8,13.15 4.1,8.35 4.1,17.95 0,9.45 -4,17.7 -3.85,8 -10.55,13.1 -1.05,0.5 -1.9,1.05 -7.6,5.15 -16.6,5.25 -9.05,-0.1 -16.65,-5.25 -0.75,-0.5 -1.85,-1.05 -6.7,-5.1 -10.6,-13.1 -4,-8.25 -4,-17.7 0,-9.6 4.1,-17.95 3.95,-8.05 10.8,-13.15 z" />
      </g>
    </g>
    <g
       transform="translate(-120.65,-407.6)"
       id="g2762">
      <g
         id="use2760">
        <path
           style="fill:#000000;fill-opacity:0.2;stroke:none"
           inkscape:connector-curvature="0"
           id="path1067"
           d="m 149.3,424.2 q 3.95,-3.75 3.95,-9.05 0.05,-5.3 -3.9,-9.1 -3.95,-3.75 -9.55,-3.75 h -15.25 q -5.6,0 -9.55,3.75 -3.95,3.75 -4,9.1 0,5.3 3.95,9.05 3.95,3.75 9.55,3.75 h 15.25 q 5.6,0 9.55,-3.75 z" />
      </g>
    </g>
    <g
       transform="translate(-131.25,-414.35)"
       id="g2766">
      <g
         id="use2764">
        <path
           style="fill:url(#linearGradient1075);stroke:none"
           inkscape:connector-curvature="0"
           id="path1071"
           d="m 132.45,350.55 h -3.95 q -23.65,0.8 -40.15,19.4 -16.6,18.7 -16.6,44.7 0,26 16.6,44.65 16.55,18.65 40.15,19.4 0.25,0.05 0.8,0.05 h 2.35 q 0.55,0 0.85,-0.05 23.6,-0.75 40.15,-19.4 16.55,-18.65 16.55,-44.65 0,-26 -16.6,-44.7 -16.5,-18.6 -40.15,-19.4 m -20.15,33 q 0.8,-0.3 1.85,-0.95 7.45,-5 16.35,-5.1 8.85,0.1 16.3,5.1 1.1,0.65 1.85,0.95 6.85,5.1 10.8,13.15 4.1,8.35 4.1,17.95 0,9.45 -4,17.7 -3.85,8 -10.55,13.1 -1.05,0.5 -1.9,1.05 -7.6,5.15 -16.6,5.25 -9.05,-0.1 -16.65,-5.25 -0.75,-0.5 -1.85,-1.05 -6.7,-5.1 -10.6,-13.1 -4,-8.25 -4,-17.7 0,-9.6 4.1,-17.95 3.95,-8.05 10.8,-13.15 z" />
      </g>
    </g>
    <g
       transform="translate(-131.25,-414.35)"
       id="g2770">
      <g
         id="use2768">
        <path
           style="fill:url(#linearGradient1081);stroke:none"
           inkscape:connector-curvature="0"
           id="path1077"
           d="m 132.3,353.55 h -3.65 q -22.5,0.7 -38.25,18.5 -15.8,17.8 -15.8,42.6 0,24.8 15.8,42.6 15.75,17.75 38.2,18.45 l 0.7,0.05 3.05,-0.05 q 22.45,-0.7 38.2,-18.45 15.8,-17.8 15.8,-42.6 0,-24.8 -15.8,-42.6 -15.75,-17.8 -38.25,-18.5 m -33.25,41.6 q 4.35,-8.8 11.9,-14.25 1.1,-0.45 1.65,-0.85 8.2,-5.45 17.9,-5.55 9.65,0.1 17.85,5.55 0.6,0.4 1.65,0.85 7.55,5.45 11.9,14.25 4.5,9.05 4.5,19.5 0,10.3 -4.4,19.3 -4.3,8.7 -11.7,14.2 -1.2,0.55 -1.65,0.9 -8.3,5.6 -18.15,5.7 -9.85,-0.1 -18.2,-5.7 -0.45,-0.35 -1.65,-0.9 -7.4,-5.5 -11.7,-14.2 -4.4,-9 -4.4,-19.3 0,-10.45 4.5,-19.5 z" />
      </g>
    </g>
    <g
       transform="translate(-131.25,-414.35)"
       id="g2774">
      <g
         id="use2772">
        <path
           style="fill:url(#linearGradient1087);stroke:none"
           inkscape:connector-curvature="0"
           id="path1083"
           d="m 149.3,424.2 q 3.95,-3.75 3.95,-9.05 0.05,-5.3 -3.9,-9.1 -3.95,-3.75 -9.55,-3.75 h -15.25 q -5.6,0 -9.55,3.75 -3.95,3.75 -4,9.1 0,5.3 3.95,9.05 3.95,3.75 9.55,3.75 h 15.25 q 5.6,0 9.55,-3.75 z" />
      </g>
    </g>
    <g
       transform="translate(-131.25,-414.35)"
       id="g2778">
      <g
         id="use2776">
        <path
           style="fill:url(#linearGradient1093);stroke:none"
           inkscape:connector-curvature="0"
           id="path1089"
           d="m 147.2,422.2 q 3.05,-2.9 3.05,-7.05 0.05,-4.1 -3.05,-7.05 -3.1,-2.95 -7.4,-2.95 h -15.25 q -4.35,0 -7.45,2.95 -3.05,2.9 -3.1,7.05 0,4.1 3.1,7.05 3.1,2.9 7.4,2.9 h 15.25 q 4.35,0 7.45,-2.9 z" />
      </g>
    </g>
  </g>
</svg>
